<svg width="24" height="24" viewBox="0 0 24 24" fill="none" xmlns="http://www.w3.org/2000/svg">
<path d="M17.8359 4.05469V3.5C17.8359 3.22386 17.6121 3 17.3359 3H17.2812C17.0051 3 16.7812 3.22386 16.7812 3.5V4.05469H7.21875V3.5C7.21875 3.22386 6.99489 3 6.71875 3H6.66406C6.38792 3 6.16406 3.22386 6.16406 3.5V4.05469H4.3C3.58203 4.05469 3 4.63672 3 5.35469V19.7C3 20.418 3.58203 21 4.3 21H19.7C20.418 21 21 20.418 21 19.7V5.35469C21 4.63672 20.418 4.05469 19.7 4.05469H17.8359ZM6.16406 5.10938V6.16406H5.60938C5.33323 6.16406 5.10938 6.38792 5.10938 6.66406V6.71875C5.10938 6.99489 5.33323 7.21875 5.60938 7.21875H7.77344C8.04958 7.21875 8.27344 6.99489 8.27344 6.71875V6.66406C8.27344 6.38792 8.04958 6.16406 7.77344 6.16406H7.21875V5.10938H16.7812V6.16406H16.2266C15.9504 6.16406 15.7266 6.38792 15.7266 6.66406V6.71875C15.7266 6.99489 15.9504 7.21875 16.2266 7.21875H18.3906C18.6668 7.21875 18.8906 6.99489 18.8906 6.71875V6.66406C18.8906 6.38792 18.6668 6.16406 18.3906 6.16406H17.8359V5.10938H19.9453V8.27344H4.05469V5.10938H6.16406ZM4.05469 19.9453V9.32812H19.9453V19.9453H4.05469Z" fill="#FF9522"/>
<path d="M13.3809 14.023C13.6805 13.6923 13.8633 13.2538 13.8633 12.7734C13.8633 11.746 13.0274 10.9102 12 10.9102C10.9726 10.9102 10.1367 11.746 10.1367 12.7734C10.1367 13.2538 10.3195 13.6923 10.6191 14.023C10.0087 14.4566 9.60938 15.1686 9.60938 15.9727C9.60938 17.2908 10.6818 18.3633 12 18.3633C13.3182 18.3633 14.3906 17.2908 14.3906 15.9727C14.3906 15.1686 13.9912 14.4566 13.3809 14.023ZM11.1914 12.7734C11.1914 12.3276 11.5541 11.9648 12 11.9648C12.4459 11.9648 12.8086 12.3276 12.8086 12.7734C12.8086 13.2193 12.4459 13.582 12 13.582C11.5541 13.582 11.1914 13.2193 11.1914 12.7734ZM12 17.3086C11.2634 17.3086 10.6641 16.7093 10.6641 15.9727C10.6641 15.236 11.2634 14.6367 12 14.6367C12.7366 14.6367 13.3359 15.236 13.3359 15.9727C13.3359 16.7093 12.7366 17.3086 12 17.3086Z" fill="#FF9522"/>
<path d="M5.63672 14.1094H7.74609V15.1641H5.63672V14.1094Z" fill="#FF9522"/>
<path d="M6.21191 17.3086L8.0386 16.2539L8.56595 17.1673L6.73926 18.2219L6.21191 17.3086Z" fill="#FF9522"/>
<path d="M6.21191 11.9639L6.73926 11.0505L8.56595 12.1052L8.0386 13.0185L6.21191 11.9639Z" fill="#FF9522"/>
<path d="M16.2539 14.1094H18.3633V15.1641H16.2539V14.1094Z" fill="#FF9522"/>
<path d="M15.4346 17.168L15.9619 16.2546L17.7886 17.3093L17.2613 18.2226L15.4346 17.168Z" fill="#FF9522"/>
<path d="M15.4346 12.1055L17.2613 11.0508L17.7886 11.9642L15.9619 13.0188L15.4346 12.1055Z" fill="#FF9522"/>
</svg>
