<svg viewBox="0 0 40 40" xmlns="http://www.w3.org/2000/svg">
<path d="M16.144 12.7177V5C16.144 4.44772 15.6963 4 15.144 4H11.5083C10.956 4 10.5083 4.44772 10.5083 5V12.7177C10.5083 15.4827 9.30267 16.9345 7.90676 18.6155C6.4845 20.328 4.87256 22.2691 4.87256 25.7109C4.87256 26.3883 5.35485 28.6498 6.09069 32.0225C6.40622 33.4689 6.70429 34.8351 6.76058 35.2288C6.82666 35.6911 7.22266 36.0346 7.68974 36.0346H18.9625C19.4296 36.0346 19.8256 35.6912 19.8917 35.2288C19.948 34.8351 20.246 33.4689 20.5616 32.0226C21.2974 28.6498 21.7797 26.3883 21.7797 25.711C21.7797 22.2696 20.1678 20.3283 18.7455 18.6155C17.3495 16.9343 16.144 15.4824 16.144 12.7177ZM12.3868 7.75405H14.5341V12.7177C14.5341 13.9922 14.7555 15.0607 15.1061 15.9883H11.8149C12.1655 15.0607 12.3868 13.9923 12.3868 12.7177V7.75405ZM14.5341 5.55724V7.75405H12.3868V5.55724H14.5341ZM8.45977 34.4773C8.36453 34.0111 7.83156 31.1878 7.66086 30.4035H13.3249H19.26C19.0893 31.1878 18.5353 34.0111 18.44 34.4773H8.45977ZM19.26 30.4035H13.3249H7.66086C7.24244 28.4709 6.75282 26.1478 6.75113 25.7109C6.75113 22.9464 7.95661 21.4948 9.35245 19.814C9.89479 19.1609 11.3172 16.7784 11.8149 15.9883H15.1061C15.6037 16.7783 17.0262 19.1609 17.5685 19.814C18.9644 21.495 20.1698 22.9468 20.1698 25.7109C20.1681 26.1478 19.6785 28.4709 19.26 30.4035Z" fill="#FF9522"/>
<path d="M24.7769 24.9116C24.1466 24.9116 23.6735 25.4877 23.796 26.106L25.6315 35.3682C25.7243 35.8364 26.1351 36.1738 26.6124 36.1738H32.0742C32.5516 36.1738 32.9624 35.8364 33.0552 35.3682L34.8907 26.106C35.0132 25.4877 34.5401 24.9116 33.9097 24.9116H24.7769ZM33.2996 26.3437L32.5556 30.5427C30.441 30.5427 28.3529 30.5427 26.131 30.5427L25.3871 26.3437H33.2996ZM26.8963 34.9224L26.131 30.5427C28.1159 30.5427 30.6271 30.5427 32.5556 30.5427L31.8329 34.9224H26.8963Z" fill="#FF9522"/>
</svg>
