<svg viewBox="0 0 16 16" xmlns="http://www.w3.org/2000/svg">
<g>
<path d="M13 8L13.5303 8.53033C13.8232 8.23744 13.8232 7.76256 13.5303 7.46967L13 8ZM6.53033 0.46967C6.23744 0.176777 5.76256 0.176777 5.46967 0.46967C5.17678 0.762563 5.17678 1.23744 5.46967 1.53033L6.53033 0.46967ZM5.46967 14.4697C5.17678 14.7626 5.17678 15.2374 5.46967 15.5303C5.76256 15.8232 6.23744 15.8232 6.53033 15.5303L5.46967 14.4697ZM13.5303 7.46967L6.53033 0.46967L5.46967 1.53033L12.4697 8.53033L13.5303 7.46967ZM12.4697 7.46967L5.46967 14.4697L6.53033 15.5303L13.5303 8.53033L12.4697 7.46967Z"/>
</g>
</svg>
