<svg width="24" height="24" viewBox="0 0 24 24" fill="none" xmlns="http://www.w3.org/2000/svg">
<path d="M9.12761 15.1994C9.12784 15.1962 9.12784 15.193 9.12761 15.1898C9.07533 14.7461 8.9945 14.3063 8.88561 13.873C8.67443 13.0476 8.36107 12.2517 7.95281 11.5038C7.20953 10.1414 6.81345 8.61689 6.79961 7.06501C7.28801 6.83429 7.59954 6.34257 7.59954 5.80241C7.59954 5.26225 7.28801 4.77054 6.79961 4.53981V3.19941C6.79961 2.75759 6.44144 2.39941 5.99961 2.39941H4.79961C4.35778 2.39941 3.99961 2.75759 3.99961 3.19941V4.54021C3.50719 4.76458 3.1935 5.25833 3.19961 5.79941C3.20086 6.33988 3.51188 6.83176 3.99961 7.06461C3.99256 7.82515 3.89467 8.58211 3.70801 9.31941C3.51367 10.08 3.22489 10.8133 2.84841 11.5022C2.22713 12.6442 1.82859 13.8938 1.67401 15.1846C1.67401 15.1894 1.67161 15.193 1.67161 15.1978V15.2026C1.62415 15.5998 1.6001 15.9994 1.59961 16.3994V19.5994C1.60093 20.7034 2.49559 21.5981 3.59961 21.5994H7.19961C8.30363 21.5981 9.19829 20.7034 9.19961 19.5994V16.3994C9.19884 15.9995 9.17466 15.6001 9.12721 15.203L9.12761 15.1994ZM2.39961 16.3994C2.39961 16.1318 2.41521 15.8654 2.43961 15.5994H8.35961C8.38241 15.8662 8.39961 16.133 8.39961 16.3994V18.7994H2.39961V16.3994ZM5.99961 3.19941V4.39941H4.79961V3.19941H5.99961ZM3.55081 11.8866C3.95927 11.1387 4.27264 10.3427 4.48361 9.51701C4.69266 8.69139 4.7988 7.84309 4.79961 6.99141V6.77941C4.79965 6.58931 4.66588 6.42544 4.47961 6.38741C4.17752 6.32607 3.97107 6.04581 4.00204 5.73911C4.03302 5.43242 4.29136 5.1991 4.59961 5.19941H6.19961C6.50786 5.1991 6.7662 5.43242 6.79717 5.73911C6.82815 6.04581 6.6217 6.32607 6.31961 6.38741C6.13334 6.42544 5.99957 6.58931 5.99961 6.77941V6.99141C6.00095 8.70178 6.43026 10.3846 7.24841 11.8866C7.62476 12.5756 7.91353 13.3088 8.10801 14.0694C8.16881 14.3094 8.21721 14.555 8.25881 14.7994H2.54081C2.71548 13.7797 3.0567 12.7956 3.55081 11.8866ZM7.19961 20.7994H3.59961C2.93687 20.7994 2.39961 20.2622 2.39961 19.5994H8.39961C8.39961 20.2622 7.86235 20.7994 7.19961 20.7994Z" fill="#FF9522"/>
<path d="M22.4 0H13.2C12.7387 0.0014346 12.3009 0.203156 12 0.5528C11.6992 0.203156 11.2613 0.0014346 10.8 0H1.6C0.716344 0 0 0.716344 0 1.6V22.4C0 23.2837 0.716344 24 1.6 24H10.8C11.2613 23.9986 11.6992 23.7968 12 23.4472C12.3009 23.7968 12.7387 23.9986 13.2 24H22.4C23.2837 24 24 23.2837 24 22.4V1.6C24 0.716344 23.2837 0 22.4 0ZM10.8 23.2H1.6C1.15817 23.2 0.8 22.8418 0.8 22.4V1.6C0.8 1.15817 1.15817 0.8 1.6 0.8H10.8C11.2418 0.8 11.6 1.15817 11.6 1.6V3.2324C10.6884 3.3812 10 4.0272 10 4.8C10 5.02091 10.1791 5.2 10.4 5.2C10.6209 5.2 10.8 5.02091 10.8 4.8C10.8 4.4596 11.14 4.164 11.6 4.0508V5.6324C10.6884 5.7812 10 6.4272 10 7.2C10 7.42091 10.1791 7.6 10.4 7.6C10.6209 7.6 10.8 7.42091 10.8 7.2C10.8 6.8596 11.14 6.564 11.6 6.4508V8.0324C10.6884 8.1812 10 8.8272 10 9.6C10 9.82091 10.1791 10 10.4 10C10.6209 10 10.8 9.82091 10.8 9.6C10.8 9.2596 11.14 8.964 11.6 8.8508V10.4324C10.6884 10.5812 10 11.2272 10 12C10 12.2209 10.1791 12.4 10.4 12.4C10.6209 12.4 10.8 12.2209 10.8 12C10.8 11.6596 11.14 11.364 11.6 11.2508V12.8324C10.6884 12.9812 10 13.6272 10 14.4C10 14.6209 10.1791 14.8 10.4 14.8C10.6209 14.8 10.8 14.6209 10.8 14.4C10.8 14.0596 11.14 13.764 11.6 13.6508V15.2324C10.6884 15.3812 10 16.0272 10 16.8C10 17.0209 10.1791 17.2 10.4 17.2C10.6209 17.2 10.8 17.0209 10.8 16.8C10.8 16.4596 11.14 16.164 11.6 16.0508V17.6324C10.6884 17.7812 10 18.4272 10 19.2C10 19.4209 10.1791 19.6 10.4 19.6C10.6209 19.6 10.8 19.4209 10.8 19.2C10.8 18.8596 11.14 18.564 11.6 18.4508V22.4C11.6 22.8418 11.2418 23.2 10.8 23.2ZM23.2 22.4C23.2 22.8418 22.8418 23.2 22.4 23.2H13.2C12.7582 23.2 12.4 22.8418 12.4 22.4V18.4508C12.86 18.564 13.2 18.8596 13.2 19.2C13.2 19.4209 13.3791 19.6 13.6 19.6C13.8209 19.6 14 19.4209 14 19.2C14 18.4272 13.3116 17.7812 12.4 17.6324V16.0508C12.86 16.164 13.2 16.4596 13.2 16.8C13.2 17.0209 13.3791 17.2 13.6 17.2C13.8209 17.2 14 17.0209 14 16.8C14 16.0272 13.3116 15.3812 12.4 15.2324V13.6508C12.86 13.764 13.2 14.0596 13.2 14.4C13.2 14.6209 13.3791 14.8 13.6 14.8C13.8209 14.8 14 14.6209 14 14.4C14 13.6272 13.3116 12.9812 12.4 12.8324V11.2508C12.86 11.364 13.2 11.6596 13.2 12C13.2 12.2209 13.3791 12.4 13.6 12.4C13.8209 12.4 14 12.2209 14 12C14 11.2272 13.3116 10.5812 12.4 10.4324V8.8508C12.86 8.964 13.2 9.2596 13.2 9.6C13.2 9.82091 13.3791 10 13.6 10C13.8209 10 14 9.82091 14 9.6C14 8.8272 13.3116 8.1812 12.4 8.0324V6.4508C12.86 6.564 13.2 6.8596 13.2 7.2C13.2 7.42091 13.3791 7.6 13.6 7.6C13.8209 7.6 14 7.42091 14 7.2C14 6.4272 13.3116 5.7812 12.4 5.6324V4.0508C12.86 4.164 13.2 4.4596 13.2 4.8C13.2 5.02091 13.3791 5.2 13.6 5.2C13.8209 5.2 14 5.02091 14 4.8C14 4.0272 13.3116 3.3812 12.4 3.2324V1.6C12.4 1.15817 12.7582 0.8 13.2 0.8H22.4C22.8418 0.8 23.2 1.15817 23.2 1.6V22.4Z" fill="#FF9522"/>
<path d="M6.00039 16.7998H4.80039C4.57948 16.7998 4.40039 16.9789 4.40039 17.1998C4.40039 17.4207 4.57948 17.5998 4.80039 17.5998H6.00039C6.2213 17.5998 6.40039 17.4207 6.40039 17.1998C6.40039 16.9789 6.2213 16.7998 6.00039 16.7998Z" fill="#FF9522"/>
<path d="M20.4002 7.59961H19.6002C19.3793 7.59961 19.2002 7.7787 19.2002 7.99961C19.2002 8.22052 19.3793 8.39961 19.6002 8.39961H20.4002C20.6211 8.39961 20.8002 8.22052 20.8002 7.99961C20.8002 7.7787 20.6211 7.59961 20.4002 7.59961Z" fill="#FF9522"/>
<path d="M15.1998 8.39961H17.9998C18.2207 8.39961 18.3998 8.22052 18.3998 7.99961C18.3998 7.7787 18.2207 7.59961 17.9998 7.59961H15.1998C14.9789 7.59961 14.7998 7.7787 14.7998 7.99961C14.7998 8.22052 14.9789 8.39961 15.1998 8.39961Z" fill="#FF9522"/>
<path d="M20.4002 9.60059H19.6002C19.3793 9.60059 19.2002 9.77967 19.2002 10.0006C19.2002 10.2215 19.3793 10.4006 19.6002 10.4006H20.4002C20.6211 10.4006 20.8002 10.2215 20.8002 10.0006C20.8002 9.77967 20.6211 9.60059 20.4002 9.60059Z" fill="#FF9522"/>
<path d="M15.1998 10.4006H17.9998C18.2207 10.4006 18.3998 10.2215 18.3998 10.0006C18.3998 9.77967 18.2207 9.60059 17.9998 9.60059H15.1998C14.9789 9.60059 14.7998 9.77967 14.7998 10.0006C14.7998 10.2215 14.9789 10.4006 15.1998 10.4006Z" fill="#FF9522"/>
<path d="M20.4002 11.5996H19.6002C19.3793 11.5996 19.2002 11.7787 19.2002 11.9996C19.2002 12.2205 19.3793 12.3996 19.6002 12.3996H20.4002C20.6211 12.3996 20.8002 12.2205 20.8002 11.9996C20.8002 11.7787 20.6211 11.5996 20.4002 11.5996Z" fill="#FF9522"/>
<path d="M15.1998 12.3996H17.9998C18.2207 12.3996 18.3998 12.2205 18.3998 11.9996C18.3998 11.7787 18.2207 11.5996 17.9998 11.5996H15.1998C14.9789 11.5996 14.7998 11.7787 14.7998 11.9996C14.7998 12.2205 14.9789 12.3996 15.1998 12.3996Z" fill="#FF9522"/>
<path d="M20.4002 13.5996H19.6002C19.3793 13.5996 19.2002 13.7787 19.2002 13.9996C19.2002 14.2205 19.3793 14.3996 19.6002 14.3996H20.4002C20.6211 14.3996 20.8002 14.2205 20.8002 13.9996C20.8002 13.7787 20.6211 13.5996 20.4002 13.5996Z" fill="#FF9522"/>
<path d="M15.1998 14.3996H17.9998C18.2207 14.3996 18.3998 14.2205 18.3998 13.9996C18.3998 13.7787 18.2207 13.5996 17.9998 13.5996H15.1998C14.9789 13.5996 14.7998 13.7787 14.7998 13.9996C14.7998 14.2205 14.9789 14.3996 15.1998 14.3996Z" fill="#FF9522"/>
<path d="M20.4002 15.6006H19.6002C19.3793 15.6006 19.2002 15.7797 19.2002 16.0006C19.2002 16.2215 19.3793 16.4006 19.6002 16.4006H20.4002C20.6211 16.4006 20.8002 16.2215 20.8002 16.0006C20.8002 15.7797 20.6211 15.6006 20.4002 15.6006Z" fill="#FF9522"/>
<path d="M15.1998 16.4006H17.9998C18.2207 16.4006 18.3998 16.2215 18.3998 16.0006C18.3998 15.7797 18.2207 15.6006 17.9998 15.6006H15.1998C14.9789 15.6006 14.7998 15.7797 14.7998 16.0006C14.7998 16.2215 14.9789 16.4006 15.1998 16.4006Z" fill="#FF9522"/>
<path d="M20.4002 17.5996H19.6002C19.3793 17.5996 19.2002 17.7787 19.2002 17.9996C19.2002 18.2205 19.3793 18.3996 19.6002 18.3996H20.4002C20.6211 18.3996 20.8002 18.2205 20.8002 17.9996C20.8002 17.7787 20.6211 17.5996 20.4002 17.5996Z" fill="#FF9522"/>
<path d="M18.3998 17.9996C18.3998 17.7787 18.2207 17.5996 17.9998 17.5996H15.1998C14.9789 17.5996 14.7998 17.7787 14.7998 17.9996C14.7998 18.2205 14.9789 18.3996 15.1998 18.3996H17.9998C18.2207 18.3996 18.3998 18.2205 18.3998 17.9996Z" fill="#FF9522"/>
<path d="M18.3998 20.7998H17.1998C16.9789 20.7998 16.7998 20.9789 16.7998 21.1998C16.7998 21.4207 16.9789 21.5998 17.1998 21.5998H18.3998C18.6207 21.5998 18.7998 21.4207 18.7998 21.1998C18.7998 20.9789 18.6207 20.7998 18.3998 20.7998Z" fill="#FF9522"/>
<path d="M16.8004 3.59981H18.8004C19.0213 3.59981 19.2004 3.42072 19.2004 3.19981C19.2004 2.97889 19.0213 2.7998 18.8004 2.7998H16.8004C16.5795 2.7998 16.4004 2.97889 16.4004 3.19981C16.4004 3.42072 16.5795 3.59981 16.8004 3.59981Z" fill="#FF9522"/>
<path d="M15.6002 5.20039H20.0002C20.2211 5.20039 20.4002 5.02131 20.4002 4.80039C20.4002 4.57948 20.2211 4.40039 20.0002 4.40039H15.6002C15.3793 4.40039 15.2002 4.57948 15.2002 4.80039C15.2002 5.02131 15.3793 5.20039 15.6002 5.20039Z" fill="#FF9522"/>
</svg>
