<svg viewBox="0 0 26 25" xmlns="http://www.w3.org/2000/svg">
<path fill-rule="evenodd" clip-rule="evenodd" d="M1.55197 0.368652C1.11015 0.368641 0.751964 0.726804 0.751953 1.16863C0.751942 1.61046 1.11011 1.96864 1.55193 1.96865H3.80931C4.14546 1.96864 4.30737 2.10498 4.38314 2.33047C4.56138 2.86098 4.76097 3.47508 4.91645 3.95798C4.99408 4.19912 5.06052 4.40692 5.10753 4.5544L5.18167 4.78754L5.18383 4.79428L8.06453 13.658C7.37983 14.8295 7.46928 15.9203 7.91337 16.7484C8.14316 17.1769 8.45591 17.5135 8.76091 17.7476C8.91386 17.865 9.07554 17.9648 9.23727 18.0384C9.38447 18.1054 9.59135 18.1782 9.81995 18.1782H21.1258C21.1258 18.1782 21.1262 18.1782 21.1262 17.3782L21.1258 18.1782C21.5676 18.1782 21.9262 17.82 21.9262 17.3782C21.9262 16.9364 21.5681 16.5782 21.1262 16.5782V17.3782C21.1262 16.5782 21.1262 16.5782 21.1262 16.5782H9.89231C9.85675 16.5611 9.80137 16.5292 9.73503 16.4783C9.59072 16.3676 9.43496 16.2002 9.3234 15.9922C9.15261 15.6738 9.04373 15.1916 9.41112 14.526L10.2416 14.4362C10.998 14.3543 12.054 14.2394 13.2524 14.1078C15.6487 13.8446 18.6168 13.5142 20.8983 13.246C21.5711 13.1669 22.2126 12.8462 22.7062 12.4603C23.1867 12.0847 23.6414 11.5566 23.8065 10.9648C24.3352 9.07012 25.0319 5.7361 25.1671 5.08334C25.2864 4.50673 24.8393 4.01074 24.298 4.00319L6.5318 3.75513L6.43946 3.46763C6.28327 2.9825 6.08127 2.36093 5.89982 1.82089C5.57467 0.853145 4.73187 0.368606 3.80923 0.368652H1.55197ZM9.50277 12.9068L7.05089 5.36253L23.4254 5.59116C23.1542 6.86522 22.6583 9.12677 22.2654 10.5347C22.2275 10.6705 22.0589 10.9355 21.7207 11.1998C21.3956 11.4539 21.0231 11.6203 20.7115 11.6569C18.4364 11.9244 15.4733 12.2542 13.0777 12.5173C11.8802 12.6489 10.825 12.7636 10.0692 12.8456L9.50277 12.9068ZM9.91668 16.5892C9.92076 16.5907 9.92274 16.5912 9.92274 16.5912L9.92125 16.5906C9.92125 16.5906 9.91871 16.5897 9.91668 16.5892Z"/>
<path fill-rule="evenodd" clip-rule="evenodd" d="M8.64766 24.457C10.0284 24.457 11.1477 23.3377 11.1477 21.957C11.1477 20.5763 10.0284 19.457 8.64766 19.457C7.26694 19.457 6.14766 20.5763 6.14766 21.957C6.14766 23.3377 7.26694 24.457 8.64766 24.457ZM8.64766 23.057C9.25517 23.057 9.74766 22.5645 9.74766 21.957C9.74766 21.3495 9.25517 20.857 8.64766 20.857C8.04014 20.857 7.54766 21.3495 7.54766 21.957C7.54766 22.5645 8.04014 23.057 8.64766 23.057Z"/>
<path fill-rule="evenodd" clip-rule="evenodd" d="M19.2395 24.457C20.6202 24.457 21.7395 23.3377 21.7395 21.957C21.7395 20.5763 20.6202 19.457 19.2395 19.457C17.8587 19.457 16.7395 20.5763 16.7395 21.957C16.7395 23.3377 17.8587 24.457 19.2395 24.457ZM19.2395 23.057C19.847 23.057 20.3395 22.5645 20.3395 21.957C20.3395 21.3495 19.847 20.857 19.2395 20.857C18.6319 20.857 18.1395 21.3495 18.1395 21.957C18.1395 22.5645 18.6319 23.057 19.2395 23.057Z"/>
</svg>
