<svg viewBox="0 0 40 40" xmlns="http://www.w3.org/2000/svg">
<path d="M32.2683 20.9354C31.9826 17.2708 30.4078 13.8655 27.7697 11.2563C25.2259 8.74031 21.952 7.22151 18.4314 6.8968C18.7969 6.53081 19.0229 6.02556 19.0229 5.46743C19.0229 4.35031 18.1173 3.44458 17 3.44458C15.8828 3.44458 14.9772 4.35031 14.9772 5.46743C14.9772 6.0255 15.2032 6.53081 15.5687 6.8968C12.0481 7.22151 8.77433 8.74031 6.23044 11.2563C3.59233 13.8655 2.01747 17.2708 1.73177 20.9354H0.0146484V22.5434H1.67238H3.48106V23.9989L8.22291 26.362L19.9497 28.1788L19.9902 28.1843C19.9941 28.1847 20.3985 28.2419 20.7837 28.4566C21.3577 28.7766 21.4312 29.1895 21.4312 29.5134V29.9831H20.6676V35.9999H31.4973V29.9831H30.3807V24.5435L28.3493 22.5434H32.3276H33.9854V20.9354H32.2683ZM19.7783 26.5925L8.3893 24.828L5.08909 23.1834V22.5434H25.8568L28.7727 25.4144V29.9831H23.5112L23.0393 29.9853C23.0394 27.6135 20.9194 26.7318 19.7783 26.5925ZM29.8894 31.6293V34.3919H22.2758V31.6293H29.8894ZM26.2371 20.9354H3.34716C3.96467 14.2148 10.1419 8.43841 17 8.43841C23.8582 8.43841 30.0354 14.2148 30.6529 20.9354L26.2371 20.9354Z" fill="#FF9522"/>
</svg>
