<svg viewBox="0 0 24 24" xmlns="http://www.w3.org/2000/svg">
<g>
<path fill-rule="evenodd" clip-rule="evenodd" d="M18.6133 19.7016L18.6172 19.7L17.46 15.2186C17.2318 14.3347 17.0022 13.7078 16.7522 13.254C16.1937 12.2404 15.5329 12.0908 14.556 11.8695C14.4096 11.8363 14.2562 11.8015 14.0949 11.762C10.7329 10.9701 10.4773 5.21893 11.5785 1.7544L17.2611 0.144531C19.8828 2.56166 22.4296 7.66376 19.9052 10.116C19.7805 10.2409 19.6605 10.3568 19.5463 10.4671C18.8186 11.1698 18.324 11.6474 18.3277 12.8087C18.3294 13.3321 18.4322 13.9943 18.6606 14.8785L19.8284 19.4013C19.9038 19.6719 20.0528 20.0132 20.282 20.2713C20.3368 20.333 20.3962 20.3899 20.4602 20.4399C20.5318 20.4958 20.6091 20.5432 20.6924 20.5791C20.8817 20.6606 21.1018 20.6828 21.3542 20.6113L22.9089 20.1709C23.2632 20.0705 23.6281 20.2901 23.7239 20.6614C23.8198 21.0326 23.6103 21.4149 23.256 21.5153L16.6815 23.3778C16.3273 23.4782 15.9623 23.2586 15.8665 22.8874C15.7706 22.5161 15.9801 22.1338 16.3344 22.0335L17.888 21.5933C18.1403 21.5218 18.3197 21.3864 18.444 21.216C18.5476 21.0739 18.613 20.9075 18.6503 20.7335C18.7221 20.3993 18.6905 20.0371 18.6289 19.7659L18.6235 19.7426C18.6202 19.7287 18.6168 19.715 18.6133 19.7016ZM18.3836 9.38747C17.9738 9.78111 17.4019 10.3304 17.0552 11.1465C16.3558 10.6168 15.587 10.4448 15.0363 10.3217L14.9332 10.2986C14.7853 10.2651 14.6447 10.2332 14.4985 10.1974L14.485 10.1941C13.7389 10.0184 13.0414 9.22285 12.7291 7.44753C12.4831 6.0494 12.566 4.41909 12.8694 3.05121L16.7698 1.94623C17.692 2.97008 18.5491 4.33616 19.0098 5.67386C19.5948 7.37263 19.3737 8.42392 18.8158 8.96584L18.8067 8.97469L18.7977 8.98368C18.6853 9.09631 18.5758 9.20207 18.4604 9.31355L18.3836 9.38747Z"/>
<path fill-rule="evenodd" clip-rule="evenodd" d="M3.67465 19.6527L3.67878 19.6529L4.21114 15.0525C4.31629 14.1438 4.32787 13.4724 4.2582 12.9528C4.1029 11.7945 3.54382 11.3906 2.71749 10.7935C2.59359 10.704 2.4637 10.6101 2.32825 10.5087C-0.506477 8.42468 1.31704 3.01576 3.5798 0.262733L9.4276 1.06517C10.9933 4.3506 11.5275 10.083 8.30742 11.3292C8.14698 11.3943 7.99417 11.4529 7.84867 11.5087C6.92251 11.8638 6.29287 12.1053 5.88021 13.1764C5.69385 13.6601 5.55174 14.313 5.44655 15.222L4.90928 19.8649C4.88223 20.1452 4.89823 20.5207 5.01884 20.8514C5.04766 20.9305 5.08246 21.0069 5.12408 21.0789C5.17046 21.1592 5.2253 21.2339 5.28978 21.3004C5.43608 21.4512 5.63195 21.5599 5.89101 21.5954L7.49092 21.815C7.85549 21.8651 8.11527 22.2146 8.07117 22.5957C8.02707 22.9768 7.69579 23.2451 7.33122 23.1951L0.565654 22.2667C0.201084 22.2167 -0.0587536 21.8672 -0.0146532 21.4861C0.0294469 21.105 0.36073 20.8366 0.7253 20.8867L2.32408 21.106C2.58313 21.1415 2.79764 21.0892 2.97374 20.9826C3.12099 20.8934 3.24138 20.7663 3.3385 20.6208C3.52529 20.3411 3.62599 19.9937 3.66607 19.7183L3.66938 19.6947C3.6713 19.6805 3.67305 19.6665 3.67465 19.6527ZM7.15578 10.0455C6.63493 10.2436 5.90839 10.5199 5.29472 11.1322C4.83587 10.363 4.18487 9.89531 3.7185 9.56024L3.63121 9.49741C3.50606 9.40699 3.38701 9.32092 3.26432 9.22908L3.25294 9.22064C2.62398 8.75824 2.26166 7.74285 2.60827 5.9783C2.88115 4.58906 3.54225 3.1181 4.31377 1.97808L8.32532 2.52855C8.81384 3.84453 9.11949 5.45015 9.06748 6.8701C9.00141 8.67383 8.41911 9.55525 7.7077 9.83056L7.69607 9.83506L7.68452 9.83974C7.5399 9.89839 7.40049 9.95189 7.25346 10.0083L7.15578 10.0455Z"/>
</g>
</svg>
