<svg width="14" height="14" viewBox="0 0 14 14" xmlns="http://www.w3.org/2000/svg">
<g clip-path="url(#clip0)">
<path d="M13.4798 0H0.574219C0.272156 0 0.0273438 0.244812 0.0273438 0.546875C0.0273438 2.06979 0.680176 3.52371 1.81847 4.53554L4.2135 6.66429C4.62879 7.03343 4.86698 7.56386 4.86698 8.1196V13.4525C4.86698 13.8883 5.35404 14.1495 5.71709 13.9074L8.94355 11.7565C9.09564 11.6551 9.18708 11.4844 9.18708 11.3015V8.1196C9.18708 7.56386 9.42527 7.03343 9.84055 6.66429L12.2355 4.53554C13.3738 3.52371 14.0266 2.06979 14.0266 0.546875C14.0266 0.244812 13.7818 0 13.4798 0ZM11.5088 3.718L9.11391 5.84686C8.46535 6.42343 8.09333 7.25176 8.09333 8.11949V11.0089L5.96062 12.4306V8.1196C5.96062 7.25176 5.58859 6.42343 4.94003 5.84686L2.54511 3.71811C1.77756 3.03569 1.28761 2.10066 1.15645 1.09364H12.8975C12.7663 2.10066 12.2765 3.03569 11.5088 3.718Z" fill="white"/>
</g>
<defs>
<clipPath id="clip0">
<rect width="14" height="14" fill="white"/>
</clipPath>
</defs>
</svg>
