<svg viewBox="0 0 16 16" xmlns="http://www.w3.org/2000/svg">
<path d="M1 8.49023V14.4902C1 15.0422 1.449 15.4902 2 15.4902H7V8.49023H1Z"/>
<path d="M15 4.49052H11.836C12.063 4.33552 12.258 4.18152 12.394 4.04352C13.201 3.23252 13.201 1.91252 12.394 1.10152C11.61 0.311516 10.244 0.313516 9.461 1.10152C9.027 1.53652 7.877 3.30752 8.036 4.49052H7.964C8.122 3.30752 6.972 1.53652 6.539 1.10152C5.755 0.313516 4.389 0.313516 3.606 1.10152C2.8 1.91252 2.8 3.23252 3.605 4.04352C3.742 4.18152 3.937 4.33552 4.164 4.49052H1C0.449 4.49052 0 4.93952 0 5.49052V6.99052C0 7.26652 0.224 7.49052 0.5 7.49052H7V5.49052H9V7.49052H15.5C15.776 7.49052 16 7.26652 16 6.99052V5.49052C16 4.93952 15.552 4.49052 15 4.49052ZM6.941 4.45752C6.941 4.45752 6.899 4.49052 6.756 4.49052C6.065 4.49052 4.746 3.77252 4.315 3.33852C3.896 2.91652 3.896 2.22852 4.315 1.80652C4.518 1.60252 4.787 1.49052 5.073 1.49052C5.358 1.49052 5.627 1.60252 5.83 1.80652C6.504 2.48452 7.174 4.21652 6.941 4.45752ZM9.243 4.49052C9.101 4.49052 9.059 4.45852 9.059 4.45752C8.826 4.21652 9.496 2.48452 10.17 1.80652C10.573 1.39952 11.278 1.39752 11.685 1.80652C12.105 2.22852 12.105 2.91652 11.685 3.33852C11.254 3.77252 9.935 4.49052 9.243 4.49052Z"/>
<path d="M9 8.49023V15.4902H14C14.552 15.4902 15 15.0422 15 14.4902V8.49023H9Z"/>
</svg>
