<svg viewBox="0 0 34 30" xmlns="http://www.w3.org/2000/svg">
<path d="M25.5218 19.5514L18.9406 12.8014C16.8208 10.6274 16.257 7.31692 17.5376 4.5638L19.0152 1.38699C19.1557 1.08485 19.1323 0.731887 18.9531 0.451015C18.7739 0.170045 18.4637 0 18.1305 0H8.66731C8.33415 0 8.02391 0.170045 7.84469 0.451015C7.66558 0.731887 7.64216 1.08495 7.78265 1.38699L9.26027 4.5638C10.5408 7.31692 9.97704 10.6273 7.85728 12.8013L1.27605 19.5513C0.569045 20.2764 0.179688 21.2335 0.179688 22.2464C0.179688 23.6398 0.934306 24.9293 2.14911 25.6119L5.49489 27.4918C7.90323 28.845 10.6364 29.5603 13.3989 29.5603C16.1614 29.5603 18.8946 28.845 21.303 27.4918L24.6488 25.6118C25.8635 24.9293 26.6181 23.6398 26.6181 22.2464C26.6181 21.2335 26.2288 20.2764 25.5218 19.5514ZM8.57653 14.1634C9.90079 12.8052 10.7693 11.0988 11.0877 9.22868C11.4061 7.35867 11.1516 5.46096 10.3516 3.74099L9.55197 1.38699L17.2173 1.39592L16.352 3.74992C15.5521 5.46998 15.2975 7.3676 15.616 9.23761C15.9345 11.1077 16.8029 12.8141 18.1271 14.1723L23.1989 19.3744L3.50454 19.3654L8.57653 14.1634ZM24.2767 23.9197L20.9309 25.7997C18.8137 26.9893 15.8274 28.0823 13.3989 28.0823C10.9704 28.0823 7.88981 26.9804 5.77269 25.7908L2.4269 23.9108C1.82614 23.5732 1.45297 22.9355 1.45297 22.2464C1.45297 21.9158 3.34708 19.647 3.50454 19.3654L23.1989 19.3744C23.3565 19.6558 25.2506 21.9247 25.2506 22.2553C25.2506 22.9444 24.8774 23.5822 24.2767 23.9197Z" fill="#FF9522"/>
<path d="M33.3473 1.47624C33.1094 1.26156 32.7908 1.15847 32.4732 1.19344L31.218 1.33148C30.1888 0.938324 29.109 0.739014 28.0065 0.739014H27.6126C26.5101 0.739014 25.4303 0.938324 24.401 1.33148L23.1459 1.19344C22.8281 1.15838 22.5096 1.2616 22.2718 1.47624C22.0339 1.69093 21.8975 1.99851 21.8975 2.32012V4.52244C21.8975 4.83938 22.0306 5.1439 22.2627 5.35803C22.4949 5.57216 22.8081 5.67932 23.1216 5.65148L24.401 5.53891C25.1434 5.81055 25.9116 5.98217 26.6935 6.05177V9.14354C26.6935 9.39842 26.8982 9.6051 27.1511 9.60649C27.0998 9.73106 27.0733 9.85646 27.0733 9.98158C27.0733 10.1928 27.147 10.405 27.2922 10.6123C27.3997 10.7655 27.5357 10.9028 27.6682 11.0365C27.7727 11.1419 27.8806 11.2508 27.9429 11.3396C27.9885 11.4046 27.9935 11.4352 27.9935 11.4352C27.9933 11.4373 27.9886 11.4679 27.9429 11.5331C27.8806 11.622 27.7726 11.7309 27.6678 11.8367C27.536 11.9696 27.3998 12.1071 27.2922 12.2606C27.1469 12.4678 27.0733 12.68 27.0733 12.8912C27.0733 13.1024 27.147 13.3146 27.2922 13.5219C27.3997 13.6753 27.5359 13.8126 27.6678 13.9457C27.7724 14.0512 27.8805 14.1603 27.9429 14.2493C27.9885 14.3143 27.9936 14.3449 27.9936 14.3449C27.9933 14.347 27.9886 14.3776 27.943 14.4428C27.8806 14.5318 27.7724 14.6409 27.6676 14.7466C27.5359 14.8795 27.3998 15.0168 27.2922 15.1702C27.147 15.3775 27.0733 15.5897 27.0733 15.8009C27.0733 16.0121 27.147 16.2243 27.2922 16.4315C27.3818 16.5594 27.5241 16.6277 27.6686 16.6277C27.7602 16.6277 27.8528 16.6002 27.9334 16.543C28.141 16.3955 28.1906 16.1066 28.0441 15.8976C27.9986 15.8326 27.9935 15.802 27.9935 15.802C27.9938 15.7999 27.9984 15.7693 28.0441 15.7042C28.1065 15.6152 28.2145 15.5062 28.3192 15.4005C28.451 15.2676 28.5872 15.1302 28.6949 14.9767C28.8401 14.7695 28.9137 14.5573 28.9137 14.3461C28.9137 14.1348 28.8401 13.9226 28.6948 13.7154C28.5872 13.562 28.451 13.4245 28.3191 13.2914C28.2146 13.1859 28.1065 13.0769 28.0442 12.9881C27.9986 12.923 27.9935 12.8924 27.9935 12.8924C27.9938 12.8903 27.9984 12.8597 28.0441 12.7945C28.1065 12.7055 28.2147 12.5964 28.3197 12.4905C28.4513 12.3577 28.5874 12.2204 28.6949 12.0671C28.8401 11.8598 28.9138 11.6477 28.9138 11.4364C28.9138 11.2252 28.8401 11.0131 28.6949 10.8058C28.5874 10.6525 28.4514 10.5152 28.3189 10.3815C28.2144 10.2761 28.1065 10.1672 28.0442 10.0784C27.9986 10.0134 27.9936 9.98279 27.9936 9.98279C27.9938 9.9807 27.9985 9.95009 28.0442 9.88489C28.1016 9.80302 28.1978 9.7041 28.2942 9.60667H28.4655C28.7196 9.60667 28.9256 9.39935 28.9256 9.14359V6.0402C29.709 5.96018 30.4767 5.77818 31.2181 5.49496L32.4732 5.63301C32.7909 5.66802 33.1094 5.56484 33.3473 5.35016C33.5852 5.13547 33.7216 4.82794 33.7216 4.50633V2.32012C33.7216 1.99851 33.5852 1.69093 33.3473 1.47624ZM27.6138 8.68051V6.08743H28.0054V8.68051H27.6138ZM32.7978 4.2493C32.7978 4.32979 32.755 4.3805 32.7294 4.40356C32.7039 4.42666 32.6493 4.46399 32.5696 4.45528L31.2031 4.30497C31.1289 4.29686 31.0539 4.30691 30.9844 4.33447C30.1719 4.65668 29.3232 4.93815 28.4559 4.98635H27.1501C27.1323 4.98635 27.1149 4.98761 27.0976 4.9896C26.2824 4.95014 25.4815 4.69312 24.7114 4.41129L24.6161 4.37642C24.5656 4.35794 24.5125 4.34854 24.4589 4.34854C24.4456 4.34854 24.4322 4.34914 24.4188 4.3503L23.038 4.47182C22.9594 4.47871 22.9059 4.44116 22.8809 4.41814C22.856 4.39513 22.8141 4.3447 22.8141 4.26537L22.8212 2.50246C22.8212 2.42198 22.8641 2.37127 22.8896 2.34816C22.9152 2.3251 22.9701 2.28769 23.0494 2.29648L24.416 2.4468C24.4902 2.45495 24.5652 2.44486 24.6346 2.4173C25.5882 2.03924 26.5913 1.84753 27.6161 1.84753H28.0101C29.0349 1.84753 30.038 2.03924 30.9915 2.4173C31.061 2.44481 31.136 2.45495 31.2102 2.4468L32.5767 2.29648C32.6563 2.28764 32.7109 2.32515 32.7365 2.34816C32.7621 2.37123 32.8049 2.42193 32.8049 2.50246L32.7978 4.2493Z" fill="#FF9522"/>
</svg>
