<svg viewBox="0 0 34 34" xmlns="http://www.w3.org/2000/svg">
<g>
<path d="M26.9556 12.0621C24.0729 8.87818 22.3597 6.07543 21.4301 4.28479C20.4233 2.34528 20.0933 1.1426 20.0908 1.13303L19.7911 0L18.7208 0.477418C18.5957 0.533182 15.6384 1.88182 13.9814 5.19583C13.1496 6.85951 12.9832 8.71182 12.9902 9.97266C12.9942 10.7064 12.4743 11.3436 11.7541 11.4876C11.2491 11.5885 10.7296 11.4315 10.3651 11.067L8.37133 9.07326L7.68547 10.019C7.61429 10.1172 5.93818 12.4287 5.63304 12.8906C4.14296 15.1462 3.36599 17.7738 3.38612 20.4892C3.41311 24.1159 4.83931 27.5136 7.402 30.0567C9.96456 32.5996 13.3732 34 17.0001 34C24.5069 33.9999 30.6142 27.8927 30.6142 20.3858C30.6143 17.664 29.2807 14.6301 26.9556 12.0621ZM17.0001 32.0061C13.9029 32.0061 10.9931 30.8111 8.8066 28.6413C6.62004 26.4715 5.4032 23.5711 5.38014 20.4744C5.36286 18.1562 6.02565 15.9138 7.29679 13.9897C7.45198 13.7548 8.07456 12.8863 8.61499 12.1368L8.95522 12.477C9.79215 13.3139 10.9844 13.675 12.1453 13.4429C13.7994 13.112 14.9934 11.648 14.9842 9.96176C14.9784 8.9182 15.1092 7.39901 15.7649 6.08752C16.563 4.49137 17.7561 3.4482 18.5852 2.86809C19.335 4.77537 21.2359 8.71574 25.4775 13.4005C26.4225 14.4441 28.6203 17.2139 28.6203 20.3859C28.6203 26.7932 23.4075 32.0061 17.0001 32.0061Z"/>
<path d="M19.0207 16.9155L12.769 26.0707H14.9793L21.231 16.9155H19.0207Z"/>
<path d="M20.3548 21.1008C18.9685 21.1008 17.9221 22.0294 17.9221 23.6512C17.9221 25.2861 18.9684 26.2015 20.3548 26.2015C21.7412 26.2015 22.7875 25.2861 22.7875 23.6512C22.7875 22.0294 21.7411 21.1008 20.3548 21.1008ZM20.3548 24.789C20.0671 24.789 19.7794 24.5274 19.7794 23.6512C19.7794 22.7749 20.0671 22.5133 20.3548 22.5133C20.6425 22.5133 20.9303 22.7749 20.9303 23.6512C20.9303 24.5274 20.6425 24.789 20.3548 24.789Z"/>
<path d="M16.078 19.3352C16.078 17.7135 15.0317 16.7849 13.6453 16.7849C12.2589 16.7849 11.2126 17.7135 11.2126 19.3352C11.2126 20.9701 12.2589 21.8856 13.6453 21.8856C15.0317 21.8856 16.078 20.9701 16.078 19.3352ZM13.0699 19.3352C13.0699 18.459 13.3576 18.1974 13.6453 18.1974C13.9331 18.1974 14.2208 18.459 14.2208 19.3352C14.2208 20.2115 13.9331 20.4731 13.6453 20.4731C13.3576 20.4731 13.0699 20.2115 13.0699 19.3352Z"/>
</g>
</svg>
