<svg  xmlns="http://www.w3.org/2000/svg" viewBox="0 0 24 24"><defs><style>.cls-1{fill:#2c2c38;}</style></defs><title>listing</title><path class="cls-1" d="M22.12,0H1.88A1.88,1.88,0,0,0,0,1.88V3.8A1.88,1.88,0,0,0,1.88,5.68H22.12A1.88,1.88,0,0,0,24,3.8V1.88A1.88,1.88,0,0,0,22.12,0Z"/><path class="cls-1" d="M22.12,9.16H1.88A1.88,1.88,0,0,0,0,11V13a1.88,1.88,0,0,0,1.88,1.88H22.12A1.88,1.88,0,0,0,24,13V11A1.88,1.88,0,0,0,22.12,9.16Z"/><path class="cls-1" d="M22.12,18.32H1.88A1.88,1.88,0,0,0,0,20.2v1.92A1.88,1.88,0,0,0,1.88,24H22.12A1.88,1.88,0,0,0,24,22.12V20.2A1.88,1.88,0,0,0,22.12,18.32Z"/></svg>