<svg width="24" height="24" viewBox="0 0 24 24" fill="none" xmlns="http://www.w3.org/2000/svg">
<g clip-path="url(#clip0)">
<path d="M5.86178 19.456L6.22178 22.256C6.35377 23.2526 7.20251 23.9979 8.20778 24H15.7918C16.7969 23.9973 17.645 23.2517 17.7766 22.2552L18.1366 19.4552C18.3066 19.3184 18.4782 19.1704 18.6566 18.9976C20.1634 17.5957 21.0739 15.6683 21.1998 13.614C21.21 13.4112 21.1357 13.2133 20.9946 13.0672C20.8271 12.8946 20.5963 12.7981 20.3558 12.8H18.9958L19.1526 11.5852C19.8636 11.5148 20.4041 10.9145 20.3998 10.2C20.3998 9.42684 19.773 8.80004 18.9998 8.80004H17.4282C17.5374 8.13161 17.7195 7.47716 17.9714 6.84844L18.5374 5.43004C19.1549 5.39583 19.6762 4.9592 19.8181 4.35728C19.9601 3.75535 19.6889 3.13179 19.1518 2.82524L19.6062 1.69364C19.7704 1.28352 19.5711 0.817918 19.161 0.653643L17.6762 0.0576427C17.2663 -0.106658 16.8008 0.0922556 16.6362 0.502043L16.1822 1.63364C15.8893 1.56109 15.5808 1.5845 15.3022 1.70044C14.8833 1.87961 14.5778 2.25142 14.4832 2.69711C14.3887 3.1428 14.5169 3.60662 14.827 3.94044L14.2562 5.36004C14.1051 5.73535 13.9296 6.10039 13.731 6.45284C13.5057 6.16807 13.1629 6.00141 12.7998 6.00004H9.59978C8.93704 6.00004 8.39978 6.5373 8.39978 7.20004V8.80004H4.99978C4.2582 8.79969 3.64568 9.37907 3.60483 10.1195C3.56399 10.86 4.10906 11.5032 4.84618 11.5844L5.00298 12.8H3.64378C3.40286 12.7977 3.17154 12.8943 3.00378 13.0672C2.86331 13.2131 2.78947 13.4106 2.79978 13.6128C2.92426 15.6666 3.83317 17.5939 5.33858 18.9964C5.51978 19.1716 5.69338 19.32 5.86178 19.456ZM10.015 19.2H10.113C10.3637 19.1998 10.611 19.1414 10.8354 19.0296C11.0648 18.9153 11.3347 18.9153 11.5642 19.0296C11.7886 19.1414 12.0359 19.1998 12.2866 19.2H12.3846C13.2762 19.1989 13.9987 18.4764 13.9998 17.5848V11.6H18.345L17.387 19.0244C14.1857 21.3921 9.81383 21.3921 6.61258 19.0244L5.65458 11.6H8.39978V17.5848C8.40088 18.4764 9.12339 19.1989 10.015 19.2ZM16.983 22.1524C16.9043 22.7507 16.3952 23.1984 15.7918 23.2H8.20778C7.60454 23.1984 7.09549 22.7509 7.01658 22.1528L6.75098 20.0944C9.9624 22.1014 14.0372 22.1014 17.2486 20.0944L16.983 22.1524ZM20.3558 13.6C20.3703 13.5998 20.3848 13.6027 20.3982 13.6084C20.2808 15.3502 19.534 16.9899 18.297 18.2216L18.8934 13.6H20.3558ZM19.5998 10.2C19.6006 10.3594 19.5377 10.5125 19.425 10.6253C19.3123 10.738 19.1592 10.8009 18.9998 10.8L13.9998 10.8001V9.60004H18.9998C19.3312 9.60004 19.5998 9.86867 19.5998 10.2ZM17.3782 0.800043L18.8634 1.39604L18.417 2.50924L16.9322 1.91244L17.3782 0.800043ZM14.9998 5.65724L15.5198 4.36364L15.8906 4.51244C16.0235 4.56698 16.1754 4.54608 16.2886 4.45768C16.4018 4.36928 16.459 4.22696 16.4383 4.08481C16.4176 3.94266 16.3223 3.82252 16.1886 3.77004L15.5486 3.51404C15.5394 3.50684 15.5334 3.49684 15.5238 3.49044C15.3385 3.36953 15.2348 3.15644 15.2539 2.93601C15.2731 2.71558 15.412 2.52358 15.6154 2.43644C15.7636 2.37452 15.9302 2.37266 16.0798 2.43124L16.2546 2.50124C16.2582 2.50124 16.2602 2.50604 16.2638 2.50764L18.4902 3.40004L18.675 3.47404C18.8232 3.53341 18.9417 3.64944 19.0042 3.79644C19.0666 3.94159 19.0682 4.10571 19.0086 4.25204C18.949 4.40145 18.8322 4.52085 18.6842 4.58364C18.5764 4.6301 18.4571 4.6432 18.3418 4.62124C18.3314 4.62124 18.321 4.62124 18.3106 4.62124L17.6706 4.36484C17.4655 4.28266 17.2326 4.38232 17.1504 4.58744C17.0682 4.79256 17.1679 5.02546 17.373 5.10764L17.7438 5.25604L17.2274 6.54964C16.9385 7.27376 16.7346 8.02894 16.6198 8.80004H13.9998V7.54244C14.3985 6.95098 14.7337 6.31908 14.9998 5.65724ZM9.19978 7.20004C9.19978 6.97913 9.37887 6.80004 9.59978 6.80004H12.7998C13.0207 6.80004 13.1998 6.97913 13.1998 7.20004V17.5848C13.1993 18.0349 12.8346 18.3996 12.3846 18.4H12.2866C12.1601 18.4 12.0353 18.3706 11.9222 18.314C11.4672 18.0874 10.9323 18.0874 10.4774 18.314C10.3642 18.3706 10.2395 18.4 10.113 18.4H10.015C9.56494 18.3996 9.20022 18.0349 9.19978 17.5848V7.20004ZM4.39978 10.2C4.39892 10.0407 4.46186 9.88754 4.57457 9.77483C4.68728 9.66212 4.84039 9.59918 4.99978 9.60004L8.39978 9.60003V10.8H4.99978C4.66841 10.8 4.39978 10.5314 4.39978 10.2ZM3.64378 13.6H5.10618L5.70258 18.2216C4.46507 16.99 3.71769 15.3504 3.59978 13.6084C3.61365 13.6024 3.62867 13.5996 3.64378 13.6Z" fill="#FF9522"/>
</g>
<defs>
<clipPath id="clip0">
<rect width="24" height="24" fill="white"/>
</clipPath>
</defs>
</svg>
