<svg width="24" height="24" viewBox="0 0 24 24" fill="none" xmlns="http://www.w3.org/2000/svg">
<g clip-path="url(#clip0)">
<path d="M12.7998 16.7998H11.1998C10.9789 16.7998 10.7998 16.9789 10.7998 17.1998C10.7998 17.4207 10.9789 17.5998 11.1998 17.5998H12.7998C13.0207 17.5998 13.1998 17.4207 13.1998 17.1998C13.1998 16.9789 13.0207 16.7998 12.7998 16.7998Z" fill="#FF9522"/>
<path d="M12.7998 18.4004H11.1998C10.9789 18.4004 10.7998 18.5795 10.7998 18.8004C10.7998 19.0213 10.9789 19.2004 11.1998 19.2004H12.7998C13.0207 19.2004 13.1998 19.0213 13.1998 18.8004C13.1998 18.5795 13.0207 18.4004 12.7998 18.4004Z" fill="#FF9522"/>
<path d="M22 21.2V16.8C21.9975 16.775 21.9925 16.7504 21.9852 16.7264C21.9189 15.1772 21.4967 13.6641 20.7512 12.3044C19.9969 10.9199 19.6011 9.36864 19.6 7.792V7.466C20.1576 7.20237 20.4763 6.60425 20.3841 5.99442C20.2919 5.38458 19.8106 4.90741 19.2 4.8204V3.6C19.2 3.15817 18.8418 2.8 18.4 2.8H17.2C16.7582 2.8 16.4 3.15817 16.4 3.6V4.8196C15.7098 4.91253 15.196 5.50358 15.2 6.2C15.2012 6.74058 15.5122 7.2326 16 7.4656V7.792C15.9991 8.57758 15.9012 9.36004 15.7084 10.1216C15.6188 10.4717 15.5084 10.8162 15.378 11.1532C15.3052 11.0028 15.2316 10.8524 15.1512 10.7044C14.3969 9.31991 14.0011 7.76864 14 6.192V4.666C14.5576 4.40237 14.8763 3.80425 14.7841 3.19442C14.6919 2.58458 14.2106 2.10741 13.6 2.0204V0.8C13.6 0.358172 13.2418 0 12.8 0H11.2C10.7582 0 10.4 0.358172 10.4 0.8V2.0196C9.70962 2.11219 9.19563 2.70345 9.2 3.4C9.20125 3.94046 9.51227 4.43234 10 4.6652V6.192C9.99912 6.97758 9.90118 7.76004 9.7084 8.5216C9.51378 9.28213 9.22502 10.0154 8.8488 10.7044C8.7688 10.8504 8.6964 10.9996 8.624 11.1492C8.21436 10.0772 8.00293 8.93963 8 7.792V7.466C8.55758 7.20237 8.87626 6.60425 8.78406 5.99442C8.69185 5.38458 8.2106 4.90741 7.6 4.8204V3.6C7.6 3.15817 7.24183 2.8 6.8 2.8H5.6C5.15817 2.8 4.8 3.15817 4.8 3.6V4.8196C4.1098 4.91253 3.59599 5.50358 3.6 6.2C3.60119 6.74058 3.91221 7.2326 4.4 7.4656V7.792C4.39912 8.57758 4.30118 9.36004 4.1084 10.1216C3.91378 10.8821 3.62502 11.6154 3.2488 12.3044C2.50844 13.666 2.08653 15.1778 2.0148 16.726C2.00742 16.7501 2.00246 16.7749 2 16.8V22C2.00132 23.104 2.89598 23.9987 4 24H20C21.104 23.9987 21.9987 23.104 22 22V21.2ZM21.2 20.8H16.4V17.2H21.2V20.8ZM2.8 17.2H7.6V20.8H2.8V17.2ZM8.4 16H15.6V20H8.4V16ZM17.2 3.6H18.4V4.8H17.2V3.6ZM16.484 10.3176C16.6931 9.49198 16.7992 8.64367 16.8 7.792V7.6H17.2C17.4209 7.6 17.6 7.42091 17.6 7.2C17.6 6.97909 17.4209 6.8 17.2 6.8H16.51C16.5 6.79541 16.4897 6.79141 16.4792 6.788C16.177 6.72663 15.9705 6.44613 16.0017 6.1393C16.0329 5.83248 16.2916 5.59928 16.6 5.6H19C19.3083 5.59969 19.5666 5.83301 19.5976 6.1397C19.6285 6.44639 19.4221 6.72666 19.12 6.788C19.1088 6.7904 19.1004 6.7968 19.0896 6.8H18.4C18.1791 6.8 18 6.97909 18 7.2C18 7.42091 18.1791 7.6 18.4 7.6H18.8V7.792C18.8014 9.50249 19.2307 11.1854 20.0488 12.6876C20.4252 13.3764 20.714 14.1095 20.9084 14.87C21.0333 15.3724 21.1175 15.8841 21.16 16.4H16.4V15.6C16.3992 14.748 16.2929 13.8994 16.0836 13.0736C16.0072 12.772 15.9112 12.4736 15.806 12.1792C16.0923 11.5823 16.3194 10.9588 16.484 10.3176ZM11.2 0.8H12.8V2H11.2V0.8ZM10.484 8.7176C10.6931 7.89198 10.7992 7.04367 10.8 6.192V4.8H11.2C11.4209 4.8 11.6 4.62091 11.6 4.4C11.6 4.17909 11.4209 4 11.2 4H10.5096C10.4992 3.9968 10.4904 3.9904 10.4792 3.988C10.177 3.92663 9.97047 3.64613 10.0017 3.3393C10.0329 3.03248 10.2916 2.79928 10.6 2.8H13.4C13.7314 2.8 14 3.06863 14 3.4C13.9998 3.55917 13.937 3.71188 13.8252 3.8252C13.7418 3.90839 13.6356 3.96503 13.52 3.988C13.5088 3.9904 13.5004 3.9968 13.4896 4H12.8C12.5791 4 12.4 4.17909 12.4 4.4C12.4 4.62091 12.5791 4.8 12.8 4.8H13.2V6.192C13.2013 7.90237 13.6306 9.58521 14.4488 11.0872C14.8249 11.7762 15.1137 12.5095 15.3084 13.27C15.4671 13.9021 15.561 14.5488 15.5884 15.2H8.4128C8.47367 13.7602 8.86306 12.3534 9.5512 11.0872C9.95974 10.3393 10.2731 9.54328 10.484 8.7176ZM5.6 3.6H6.8V4.8H5.6V3.6ZM3.9512 12.6872C4.35974 11.9393 4.6731 11.1433 4.884 10.3176C5.09305 9.49198 5.19919 8.64367 5.2 7.792V7.6H5.6C5.82091 7.6 6 7.42091 6 7.2C6 6.97909 5.82091 6.8 5.6 6.8H4.91C4.89997 6.79541 4.88969 6.79141 4.8792 6.788C4.57696 6.72663 4.37047 6.44613 4.40167 6.1393C4.43287 5.83248 4.69159 5.59928 5 5.6H7.4C7.70825 5.59969 7.96659 5.83301 7.99757 6.1397C8.02854 6.44639 7.82209 6.72666 7.52 6.788C7.5088 6.7904 7.5004 6.7968 7.4896 6.8H6.8C6.57909 6.8 6.4 6.97909 6.4 7.2C6.4 7.42091 6.57909 7.6 6.8 7.6H7.2V7.792C7.20377 9.31032 7.54363 10.809 8.1952 12.1804C7.80365 13.2781 7.60236 14.4346 7.6 15.6V16.4H2.84C2.94998 15.0989 3.32833 13.8348 3.9512 12.6872ZM2.8 22V21.6H7.6V22C7.60147 22.4342 7.74568 22.8558 8.0104 23.2H4C3.33726 23.2 2.8 22.6627 2.8 22ZM13.6 23.2H9.6C8.93726 23.2 8.4 22.6627 8.4 22V20.8H15.6V22C15.6 22.6627 15.0627 23.2 14.4 23.2H13.6ZM20 23.2H15.9896C16.2543 22.8558 16.3985 22.4342 16.4 22V21.6H21.2V22C21.2 22.6627 20.6627 23.2 20 23.2Z" fill="#FF9522"/>
<path d="M17.1998 18.8H18.3998C18.6207 18.8 18.7998 18.6209 18.7998 18.4C18.7998 18.1791 18.6207 18 18.3998 18H17.1998C16.9789 18 16.7998 18.1791 16.7998 18.4C16.7998 18.6209 16.9789 18.8 17.1998 18.8Z" fill="#FF9522"/>
<path d="M5.60019 18.8H6.80019C7.02111 18.8 7.20019 18.6209 7.20019 18.4C7.20019 18.1791 7.02111 18 6.80019 18H5.60019C5.37928 18 5.2002 18.1791 5.2002 18.4C5.2002 18.6209 5.37928 18.8 5.60019 18.8Z" fill="#FF9522"/>
<path d="M18.3998 19.2002H17.1998C16.9789 19.2002 16.7998 19.3793 16.7998 19.6002C16.7998 19.8211 16.9789 20.0002 17.1998 20.0002H18.3998C18.6207 20.0002 18.7998 19.8211 18.7998 19.6002C18.7998 19.3793 18.6207 19.2002 18.3998 19.2002Z" fill="#FF9522"/>
<path d="M6.80019 19.2002H5.60019C5.37928 19.2002 5.2002 19.3793 5.2002 19.6002C5.2002 19.8211 5.37928 20.0002 5.60019 20.0002H6.80019C7.02111 20.0002 7.20019 19.8211 7.20019 19.6002C7.20019 19.3793 7.02111 19.2002 6.80019 19.2002Z" fill="#FF9522"/>
</g>
<defs>
<clipPath id="clip0">
<rect width="24" height="24" fill="white"/>
</clipPath>
</defs>
</svg>
