<?xml version="1.0" encoding="utf-8"?>
<svg version="1.1" xmlns="http://www.w3.org/2000/svg" xmlns:xlink="http://www.w3.org/1999/xlink" x="0px" y="0px"
	 viewBox="0 0 24 24" style="enable-background:new 0 0 24 24;" xml:space="preserve">
<g>
	<path d="M12,24C5.4,24,0,18.6,0,12C0,5.4,5.4,0,12,0c6.6,0,12,5.4,12,12C24,18.6,18.6,24,12,24z M12,1
		C5.9,1,1,5.9,1,12s4.9,11,11,11s11-4.9,11-11S18.1,1,12,1z"/>
</g>
<g>
	<path d="M10.3,17.9l-3.8-3.8c-0.2-0.2-0.2-0.5,0-0.7s0.5-0.2,0.7,0l3,3l6.5-8.1C16.9,8,17.2,8,17.5,8.2
		c0.2,0.2,0.2,0.5,0.1,0.7L10.3,17.9z"/>
</g>
</svg>
