<svg viewBox="0 0 24 24" xmlns="http://www.w3.org/2000/svg">
<path d="M23.9775 9.35366L22.4775 3.35366C22.395 3.01916 22.0935 2.78516 21.75 2.78516H2.25C1.9065 2.78516 1.605 3.01916 1.5225 3.35366L0.0225 9.35366C0.0075 9.41216 0 9.47366 0 9.53516C0 10.7922 0.5955 11.9007 1.5 12.5817V23.0352C1.5 23.4492 1.836 23.7852 2.25 23.7852H9.75C10.164 23.7852 10.5 23.4492 10.5 23.0352V17.7852H13.5V23.0352C13.5 23.4492 13.836 23.7852 14.25 23.7852H21.75C22.164 23.7852 22.5 23.4492 22.5 23.0352V12.5817C23.4045 11.9007 24 10.7922 24 9.53516C24 9.47366 23.9925 9.41216 23.9775 9.35366ZM21 22.2852H15V17.0352C15 16.6212 14.664 16.2852 14.25 16.2852H9.75C9.336 16.2852 9 16.6212 9 17.0352V22.2852H3V13.2252C3.1845 13.2567 3.3705 13.2852 3.5625 13.2852C4.7055 13.2852 5.7225 12.7167 6.375 11.8347C7.0275 12.7167 8.0445 13.2852 9.1875 13.2852C10.3305 13.2852 11.3475 12.7167 12 11.8347C12.6525 12.7167 13.6695 13.2852 14.8125 13.2852C15.9555 13.2852 16.9725 12.7167 17.625 11.8347C18.2775 12.7167 19.2945 13.2852 20.4375 13.2852C20.6295 13.2852 20.8155 13.2567 21 13.2252V22.2852ZM20.4375 11.7852C19.3005 11.7852 18.375 10.7757 18.375 9.53516C18.375 9.12116 18.039 8.78516 17.625 8.78516C17.211 8.78516 16.875 9.12116 16.875 9.53516C16.875 10.7757 15.9495 11.7852 14.8125 11.7852C13.6755 11.7852 12.75 10.7757 12.75 9.53516C12.75 9.12116 12.414 8.78516 12 8.78516C11.586 8.78516 11.25 9.12116 11.25 9.53516C11.25 10.7757 10.3245 11.7852 9.1875 11.7852C8.0505 11.7852 7.125 10.7757 7.125 9.53516C7.125 9.12116 6.789 8.78516 6.375 8.78516C5.961 8.78516 5.625 9.12116 5.625 9.53516C5.625 10.7757 4.6995 11.7852 3.5625 11.7852C2.4525 11.7852 1.5435 10.8222 1.5015 9.62216L2.8365 4.28516H21.165L22.5 9.62216C22.4565 10.8222 21.5475 11.7852 20.4375 11.7852Z" />
</svg>
