<svg width="24" height="24" viewBox="0 0 24 24" fill="none" xmlns="http://www.w3.org/2000/svg">
<g clip-path="url(#clip0)">
<path d="M8.7998 11.2002H3.1998C2.97889 11.2002 2.7998 11.3793 2.7998 11.6002V15.6002C2.7998 15.8211 2.97889 16.0002 3.1998 16.0002H8.7998C9.02072 16.0002 9.1998 15.8211 9.1998 15.6002V11.6002C9.1998 11.3793 9.02072 11.2002 8.7998 11.2002ZM8.3998 15.2002H3.5998V12.0002H8.3998V15.2002Z" fill="#FF9522"/>
<path d="M6.80039 14.3998C7.02131 14.3998 7.20039 14.2207 7.20039 13.9998V13.1998C7.20039 12.9789 7.02131 12.7998 6.80039 12.7998C6.57948 12.7998 6.40039 12.9789 6.40039 13.1998V13.9998C6.40039 14.2207 6.57948 14.3998 6.80039 14.3998Z" fill="#FF9522"/>
<path d="M5.19981 14.3998C5.42072 14.3998 5.59981 14.2207 5.59981 13.9998V13.1998C5.59981 12.9789 5.42072 12.7998 5.19981 12.7998C4.97889 12.7998 4.7998 12.9789 4.7998 13.1998V13.9998C4.7998 14.2207 4.97889 14.3998 5.19981 14.3998Z" fill="#FF9522"/>
<path d="M8.79941 9.2C9.02033 9.2 9.19942 9.02091 9.19942 8.8V8.4C9.19942 8.17909 9.02033 8 8.79941 8C8.5785 8 8.39941 8.17909 8.39941 8.4V8.8C8.39941 9.02091 8.5785 9.2 8.79941 9.2Z" fill="#FF9522"/>
<path d="M7.19981 9.2C7.42072 9.2 7.59981 9.02091 7.59981 8.8V8.4C7.59981 8.17909 7.42072 8 7.19981 8C6.97889 8 6.7998 8.17909 6.7998 8.4V8.8C6.7998 9.02091 6.97889 9.2 7.19981 9.2Z" fill="#FF9522"/>
<path d="M23.0428 2.10361L21.832 2.34361C21.5852 1.87553 21.095 1.58727 20.566 1.59922C20.0369 1.61117 19.5602 1.92127 19.3348 2.40001H18.364C17.9326 2.39846 17.5067 2.30291 17.116 2.12001C16.7262 1.93983 16.3816 1.67468 16.1076 1.34401C15.3984 0.490559 14.3456 -0.00218886 13.236 7.31011e-06H6C4.89598 0.00132976 4.00132 0.895986 4 2.00001V4.80001C2.89598 4.80133 2.00132 5.69599 2 6.80001V9.60001C0.895979 9.60133 0.00132245 10.496 0 11.6V15.6C0.00132245 16.704 0.895979 17.5987 2 17.6H9.24C10.3489 17.6013 11.4007 17.1086 12.1096 16.256C12.5811 15.6897 13.2492 15.3224 13.98 15.2276C13.9337 15.6783 13.7344 16.0996 13.4152 16.4212C12.5884 17.2579 12.3707 18.5212 12.8696 19.5864L12.4048 19.9864C12.0502 20.2904 11.8461 20.7341 11.8461 21.2012C11.8461 21.6683 12.0502 22.112 12.4048 22.416L13.8048 23.616C14.0946 23.864 14.4634 24.0004 14.8448 24.0008H22.4C23.2837 24.0008 24 23.2845 24 22.4008V20C24 19.1164 23.2837 18.4 22.4 18.4H14.8436C14.4621 18.4003 14.0933 18.5369 13.8036 18.7852L13.5076 19.0388C13.2646 18.3206 13.4472 17.5267 13.9796 16.9868C14.4581 16.5096 14.7464 15.8744 14.7904 15.2H15.3344C15.5523 15.662 16.0053 15.9679 16.5152 15.9976C16.8912 16.0188 17.2591 15.8824 17.5304 15.6212C17.6426 15.5128 17.7371 15.3874 17.8104 15.2496L19.0448 15.4964C19.2799 15.5443 19.5241 15.4835 19.7092 15.3308C19.8942 15.1787 20.0009 14.9515 20 14.712V12.488C20 12.2483 19.8925 12.0212 19.7071 11.8692C19.5216 11.7173 19.2779 11.6565 19.0428 11.7036L17.8316 11.9456C17.5853 11.4773 17.0953 11.1886 16.5664 11.2002C16.0374 11.2117 15.5604 11.5214 15.3348 12H14.362C14.1231 11.9991 13.8852 11.9692 13.6536 11.9108C13.8176 11.7724 13.9695 11.6202 14.1076 11.456C14.6647 10.7853 15.4921 10.3981 16.364 10.4H17.3344C17.4027 10.5452 17.4957 10.6774 17.6092 10.7908C17.8526 11.0339 18.1766 11.1795 18.52 11.2C18.8963 11.2191 19.2636 11.0812 19.5344 10.8192C19.645 10.7113 19.738 10.5867 19.81 10.45L21.0448 10.6968C21.2799 10.7447 21.5241 10.6839 21.7092 10.5312C21.8943 10.379 22.0011 10.1516 22 9.91201V7.68801C22 7.44828 21.8925 7.22119 21.7071 7.06924C21.5216 6.91729 21.2779 6.8565 21.0428 6.90361L19.832 7.14561C19.5856 6.67736 19.0956 6.38873 18.5666 6.40025C18.0376 6.41178 17.5606 6.72147 17.3348 7.20001H16.364C16.1249 7.19869 15.8869 7.1682 15.6552 7.10921C15.8185 6.9712 15.9699 6.81959 16.1076 6.65601C16.6647 5.98527 17.4921 5.59807 18.364 5.60001H19.3344C19.4027 5.74518 19.4957 5.87741 19.6092 5.99081C19.8526 6.23389 20.1766 6.37945 20.52 6.40001C20.8962 6.41849 21.2633 6.28068 21.5344 6.01921C21.645 5.91133 21.738 5.78675 21.81 5.65001L23.0448 5.89681C23.2799 5.94473 23.5241 5.88387 23.7092 5.73121C23.8943 5.579 24.0011 5.35162 24 5.11201V2.88801C24 2.64828 23.8925 2.42119 23.7071 2.26924C23.5216 2.11729 23.2779 2.0565 23.0428 2.10361ZM14.8436 19.2H22.4C22.8418 19.2 23.2 19.5582 23.2 20V22.4C23.2 22.8418 22.8418 23.2 22.4 23.2H14.8436C14.6529 23.1997 14.4686 23.1315 14.3236 23.0076L12.9236 21.8076C12.7461 21.6556 12.644 21.4337 12.644 21.2C12.644 20.9664 12.7461 20.7444 12.9236 20.5924L13.3092 20.262C13.344 20.302 13.376 20.342 13.4136 20.3788L13.7208 20.686C13.6422 20.846 13.6009 21.0218 13.6 21.2C13.6 21.8628 14.1373 22.4 14.8 22.4C15.4627 22.4 16 21.8628 16 21.2C16 20.5373 15.4627 20 14.8 20C14.6218 20.0007 14.4461 20.0417 14.286 20.12L13.9788 19.8128C13.956 19.79 13.9368 19.7652 13.9152 19.7416L14.3232 19.3924C14.4682 19.2683 14.6527 19.2 14.8436 19.2ZM14.52 20.92L14.5228 20.9156C14.6814 20.761 14.935 20.7634 15.0906 20.921C15.2462 21.0786 15.2454 21.3322 15.0888 21.4888C14.9322 21.6454 14.6786 21.6462 14.521 21.4906C14.3634 21.335 14.361 21.0814 14.5156 20.9228L14.52 20.92ZM11.4924 15.744C10.9361 16.4136 10.1105 16.8006 9.24 16.8H2C1.33726 16.8 0.8 16.2628 0.8 15.6V11.6C0.8 10.9373 1.33726 10.4 2 10.4H9.24C10.1112 10.3988 10.9377 10.7859 11.4944 11.456C11.7966 11.8166 12.1645 12.1167 12.5784 12.3404C12.5986 12.3536 12.6199 12.3651 12.642 12.3748C13.0645 12.5956 13.5256 12.7332 14 12.78V14.42C13.0221 14.513 12.1207 14.9889 11.4924 15.744ZM10.4 9.78681C10.0256 9.66375 9.6341 9.6007 9.24 9.60001H5.6V7.20001H10.4V9.78681ZM19.2 12.488V14.712L18 14.472V12.728L19.2 12.488ZM15.6 13.2C15.8209 13.2 16 13.0209 16 12.8V12.51C16.0046 12.5 16.0086 12.4897 16.012 12.4792C16.0733 12.1771 16.3536 11.9707 16.6603 12.0016C16.967 12.0326 17.2003 12.291 17.2 12.5992V14.5352C17.1996 14.7257 17.1207 14.9075 16.982 15.038C16.8708 15.1473 16.719 15.2053 16.5632 15.198C16.2915 15.1822 16.0648 14.9849 16.0116 14.718C16.0083 14.7085 16.0044 14.6991 16 14.69V14.4C16 14.1791 15.8209 14 15.6 14C15.3791 14 15.2 14.1791 15.2 14.4H14.8V12.8H15.2C15.2 13.0209 15.3791 13.2 15.6 13.2ZM21.2 7.68801V9.91201L20 9.67201V7.92801L21.2 7.68801ZM17.2 8.00001C17.2 8.22092 17.3791 8.40001 17.6 8.40001C17.8209 8.40001 18 8.22092 18 8.00001V7.71001C18.0046 7.69998 18.0086 7.6897 18.012 7.67921C18.0733 7.37712 18.3536 7.17066 18.6603 7.20164C18.967 7.23262 19.2003 7.49096 19.2 7.79921V9.73521C19.1993 9.9252 19.1208 10.1066 18.9828 10.2372C18.8721 10.3469 18.7209 10.4058 18.5652 10.4C18.2931 10.3843 18.0657 10.1872 18.0116 9.92001C18.0083 9.90978 18.0045 9.89977 18 9.89001V9.60001C18 9.37909 17.8209 9.20001 17.6 9.20001C17.3791 9.20001 17.2 9.37909 17.2 9.60001H16.364C15.2544 9.59781 14.2016 10.0906 13.4924 10.944C13.2951 11.1808 13.0613 11.3846 12.8 11.548C12.539 11.3843 12.3055 11.1805 12.108 10.944C11.8497 10.6345 11.5431 10.3688 11.2 10.1572V6.80001C11.2 6.57909 11.0209 6.40001 10.8 6.40001H5.2C4.97909 6.40001 4.8 6.57909 4.8 6.80001V9.60001H2.8V6.80001C2.8 6.13727 3.33726 5.60001 4 5.60001H11.236C12.1078 5.59808 12.9351 5.98511 13.4924 6.65561C13.7919 7.01523 14.1578 7.31398 14.57 7.53561C14.5974 7.55499 14.6271 7.57084 14.6584 7.58281C14.6984 7.60321 14.7384 7.62761 14.7784 7.64681C15.275 7.8784 15.8161 7.99894 16.364 8.00001H17.2ZM12.4 4.98681C12.0243 4.8635 11.6314 4.80046 11.236 4.80001H7.6V2.40001H12.4V4.98681ZM20.5652 5.60001C20.2931 5.58434 20.0657 5.38719 20.0116 5.12001C20.0083 5.10978 20.0045 5.09977 20 5.09001V4.80001C20 4.57909 19.8209 4.40001 19.6 4.40001C19.3791 4.40001 19.2 4.57909 19.2 4.80001H18.364C17.2544 4.79781 16.2016 5.29056 15.4924 6.14401C15.295 6.38069 15.0613 6.58455 14.8 6.74801C14.5384 6.58498 14.3046 6.38105 14.1076 6.14401C13.8497 5.83422 13.5431 5.56837 13.2 5.35681V2.00001C13.2 1.77909 13.0209 1.60001 12.8 1.60001H7.2C6.97909 1.60001 6.8 1.77909 6.8 2.00001V4.80001H4.8V2.00001C4.8 1.33727 5.33726 0.800007 6 0.800007H13.236C14.1078 0.798084 14.9351 1.18511 15.4924 1.85561C15.8416 2.2779 16.281 2.61648 16.7784 2.84641C17.2749 3.07814 17.816 3.19881 18.364 3.20001H19.2C19.2 3.42092 19.3791 3.60001 19.6 3.60001C19.8209 3.60001 20 3.42092 20 3.20001V2.91001C20.0046 2.89998 20.0086 2.8897 20.012 2.87921C20.0734 2.57697 20.3539 2.37048 20.6607 2.40168C20.9675 2.43287 21.2007 2.6916 21.2 3.00001V4.93601C21.1993 5.126 21.1208 5.30741 20.9828 5.43801C20.8722 5.54775 20.7209 5.60645 20.5652 5.60001ZM23.2 5.11201L22 4.87201V3.12801L23.2 2.88801V5.11201Z" fill="#FF9522"/>
<path d="M10.8004 4.40019C11.0213 4.40019 11.2004 4.22111 11.2004 4.00019V3.60019C11.2004 3.37928 11.0213 3.2002 10.8004 3.2002C10.5795 3.2002 10.4004 3.37928 10.4004 3.60019V4.00019C10.4004 4.22111 10.5795 4.40019 10.8004 4.40019Z" fill="#FF9522"/>
<path d="M9.19981 4.40019C9.42072 4.40019 9.59981 4.22111 9.59981 4.00019V3.60019C9.59981 3.37928 9.42072 3.2002 9.19981 3.2002C8.97889 3.2002 8.7998 3.37928 8.7998 3.60019V4.00019C8.7998 4.22111 8.97889 4.40019 9.19981 4.40019Z" fill="#FF9522"/>
<path d="M17.1998 20.8H21.5998C21.8207 20.8 21.9998 20.6209 21.9998 20.4C21.9998 20.1791 21.8207 20 21.5998 20H17.1998C16.9789 20 16.7998 20.1791 16.7998 20.4C16.7998 20.6209 16.9789 20.8 17.1998 20.8Z" fill="#FF9522"/>
<path d="M17.1998 22.4006H19.5998C19.8207 22.4006 19.9998 22.2215 19.9998 22.0006C19.9998 21.7797 19.8207 21.6006 19.5998 21.6006H17.1998C16.9789 21.6006 16.7998 21.7797 16.7998 22.0006C16.7998 22.2215 16.9789 22.4006 17.1998 22.4006Z" fill="#FF9522"/>
</g>
<defs>
<clipPath id="clip0">
<rect width="24" height="24" fill="white"/>
</clipPath>
</defs>
</svg>
