<svg viewBox="0 0 40 40" xmlns="http://www.w3.org/2000/svg">
<path d="M11.2014 11.9906V4.8333C11.2014 4.35244 10.8115 3.96265 10.3307 3.96265H7.17538C6.69452 3.96265 6.30473 4.35244 6.30473 4.8333V11.9906C4.86275 12.8472 3.9585 14.4087 3.9585 16.1135V34.4418C3.9585 35.3217 4.67435 36.0375 5.55423 36.0375H11.9519C12.8318 36.0375 13.5477 35.3217 13.5477 34.4418V16.1135C13.5477 14.4087 12.6433 12.8471 11.2014 11.9906ZM12.3359 33.8432C12.3359 34.3955 11.8882 34.8432 11.3359 34.8432H6.17027C5.61798 34.8432 5.17027 34.3955 5.17027 33.8432V16.1135C5.17027 14.9024 5.88699 13.8047 6.99628 13.317C7.31242 13.1781 7.5165 12.8653 7.5165 12.52V6.19877C7.5165 5.64648 7.96421 5.19877 8.5165 5.19877H8.98961C9.5419 5.19877 9.98961 5.64648 9.98961 6.19877V12.52C9.98961 12.8653 10.1938 13.1781 10.5099 13.317C11.6192 13.8047 12.336 14.9024 12.336 16.1135L12.3359 33.8432Z" fill="#FF9522"/>
<path d="M22.4274 11.9906V4.8333C22.4274 4.35244 22.0375 3.96265 21.5568 3.96265H18.4015C17.9206 3.96265 17.5308 4.35244 17.5308 4.8333V11.9906C16.0888 12.8472 15.1846 14.4087 15.1846 16.1135V34.4418C15.1846 35.3217 15.9004 36.0375 16.7803 36.0375H23.178C24.0579 36.0375 24.7737 35.3217 24.7737 34.4418V16.1135C24.7737 14.4087 23.8694 12.8471 22.4274 11.9906ZM23.562 33.8432C23.562 34.3955 23.1143 34.8432 22.562 34.8432H17.3963C16.8441 34.8432 16.3963 34.3955 16.3963 33.8432V16.1135C16.3963 14.9024 17.1131 13.8047 18.2224 13.317C18.5385 13.1781 18.7426 12.8653 18.7426 12.52V6.19877C18.7426 5.64648 19.1903 5.19877 19.7426 5.19877H20.2157C20.768 5.19877 21.2157 5.64648 21.2157 6.19877V12.52C21.2157 12.8653 21.4199 13.1781 21.736 13.317C22.8453 13.8047 23.5621 14.9024 23.5621 16.1135L23.562 33.8432Z" fill="#FF9522"/>
<path d="M33.6537 11.9906V4.8333C33.6537 4.35244 33.2639 3.96265 32.7831 3.96265H29.6278C29.1469 3.96265 28.7571 4.35244 28.7571 4.8333V11.9906C27.3151 12.8472 26.4109 14.4087 26.4109 16.1135V34.4418C26.4109 35.3217 27.1267 36.0375 28.0066 36.0375H34.4043C35.2842 36.0375 36.0001 35.3217 36.0001 34.4418V16.1135C36.0001 14.4087 35.0957 12.8471 33.6537 11.9906ZM34.7883 33.8432C34.7883 34.3955 34.3406 34.8432 33.7883 34.8432H28.6227C28.0704 34.8432 27.6227 34.3955 27.6227 33.8432V16.1135C27.6227 14.9024 28.3394 13.8047 29.4487 13.317C29.7648 13.1781 29.9689 12.8653 29.9689 12.52V6.19877C29.9689 5.64648 30.4166 5.19877 30.9689 5.19877H31.442C31.9943 5.19877 32.442 5.64648 32.442 6.19877V12.52C32.442 12.8653 32.6462 13.1781 32.9623 13.317C34.0716 13.8047 34.7884 14.9024 34.7884 16.1135L34.7883 33.8432Z" fill="#FF9522"/>
</svg>
