<svg viewBox="0 0 16 16" xmlns="http://www.w3.org/2000/svg">
<g>
  <path d="M13.1381 2.86189L10.4714 0.195203C10.4713 0.195078 10.4712 0.195016 10.4711 0.194891C10.4557 0.179484 10.4395 0.164891 10.4226 0.151047C10.4149 0.144703 10.4068 0.139203 10.3988 0.133266C10.3893 0.126172 10.3801 0.118828 10.3702 0.112234C10.3607 0.105891 10.3508 0.100391 10.3411 0.0945781C10.3322 0.0892344 10.3234 0.0836406 10.3143 0.0787031C10.3043 0.0733906 10.2941 0.0688906 10.284 0.0641094C10.2744 0.0595781 10.2649 0.0547969 10.2551 0.0507031C10.2453 0.0466406 10.2352 0.0433281 10.2252 0.0397656C10.2147 0.0359844 10.2043 0.0319531 10.1936 0.0287031C10.1836 0.0256719 10.1734 0.0234531 10.1633 0.0209219C10.1523 0.0181406 10.1415 0.0150781 10.1303 0.0128594C10.1186 0.0105469 10.1068 0.00914062 10.095 0.00745312C10.0853 0.00607812 10.0757 0.00420312 10.0658 0.00323437C10.0221 -0.00107813 9.97801 -0.00107813 9.93426 0.00323437C9.92441 0.00420312 9.91485 0.00604687 9.9051 0.00745312C9.89332 0.00914062 9.88147 0.0105156 9.86979 0.0128594C9.8586 0.0150781 9.84779 0.0181406 9.83682 0.0209219C9.82669 0.0234531 9.81654 0.0256719 9.80654 0.0287031C9.79579 0.0319531 9.78538 0.0359844 9.77488 0.0397656C9.76488 0.0433594 9.75482 0.0466406 9.74498 0.0507031C9.73513 0.0547656 9.72573 0.0595781 9.71613 0.0641094C9.70601 0.0688906 9.69579 0.0733906 9.68585 0.0787031C9.67666 0.0836406 9.66794 0.0892344 9.65901 0.0945781C9.64926 0.100391 9.63941 0.105891 9.62991 0.112234C9.62004 0.118828 9.61079 0.126172 9.60129 0.133266C9.59335 0.139203 9.58523 0.144703 9.57751 0.151047C9.56063 0.164891 9.54441 0.179484 9.52901 0.194891C9.52888 0.195016 9.52876 0.195078 9.52866 0.195203L6.86201 2.86186C6.60166 3.1222 6.60166 3.54433 6.86201 3.80467C7.12235 4.06502 7.54447 4.06502 7.80482 3.80467L9.33341 2.27608V9.99995C9.33341 10.3681 9.63188 10.6666 10.0001 10.6666C10.3683 10.6666 10.6667 10.3681 10.6667 9.99995V2.27611L12.1953 3.8047C12.4557 4.06505 12.8778 4.06505 13.1381 3.8047C13.3984 3.54433 13.3984 3.12223 13.1381 2.86189Z"/>
  <path d="M8.19533 12.1952L6.66673 13.7238V5.99991C6.66673 5.63172 6.36826 5.33325 6.00008 5.33325C5.63189 5.33325 5.33342 5.63172 5.33342 5.99991V13.7238L3.80482 12.1952C3.54448 11.9348 3.12235 11.9348 2.86201 12.1952C2.60166 12.4555 2.60166 12.8776 2.86201 13.138L5.52867 15.8046C5.52879 15.8048 5.52892 15.8048 5.52904 15.805C5.54445 15.8203 5.56067 15.8349 5.57751 15.8488C5.58523 15.8551 5.59339 15.8606 5.60133 15.8666C5.61079 15.8737 5.62007 15.881 5.62992 15.8876C5.63942 15.894 5.64926 15.8995 5.65901 15.9053C5.66795 15.9106 5.67667 15.9162 5.68586 15.9211C5.69579 15.9264 5.70601 15.9309 5.71617 15.9357C5.72573 15.9403 5.73517 15.945 5.74498 15.9491C5.75483 15.9532 5.76489 15.9565 5.77489 15.96C5.78542 15.9638 5.79579 15.9678 5.80654 15.9711C5.81654 15.9741 5.8267 15.9763 5.83683 15.9789C5.84779 15.9817 5.85864 15.9847 5.86983 15.9869C5.88154 15.9893 5.89336 15.9906 5.90514 15.9923C5.91486 15.9937 5.92445 15.9956 5.93429 15.9965C5.97804 16.0008 6.02214 16.0008 6.06589 15.9965C6.07573 15.9956 6.08529 15.9937 6.09505 15.9923C6.10683 15.9906 6.11867 15.9893 6.13036 15.9869C6.14155 15.9847 6.15236 15.9816 6.16333 15.9788C6.17345 15.9763 6.18361 15.9741 6.19361 15.9711C6.20436 15.9678 6.21476 15.9638 6.22526 15.96C6.23526 15.9564 6.24533 15.9531 6.25517 15.9491C6.26498 15.945 6.27439 15.9402 6.28395 15.9357C6.29411 15.9309 6.30436 15.9264 6.3143 15.9211C6.32345 15.9162 6.33217 15.9106 6.34108 15.9053C6.35083 15.8994 6.3607 15.8939 6.3702 15.8876C6.38005 15.881 6.3893 15.8737 6.39873 15.8666C6.4067 15.8606 6.41486 15.8551 6.42261 15.8488C6.43933 15.835 6.45542 15.8205 6.47073 15.8053C6.47098 15.805 6.47123 15.8048 6.47145 15.8046L9.13811 13.1379C9.39846 12.8776 9.39846 12.4555 9.13811 12.1951C8.87777 11.9348 8.45571 11.9348 8.19533 12.1952Z"/>
</g>
</svg>
