<svg viewBox="0 0 40 41" xmlns="http://www.w3.org/2000/svg">
<path fill-rule="evenodd" clip-rule="evenodd" d="M25.362 37.2248C24.9792 37.2248 24.6689 36.9145 24.6689 36.5318C24.6689 36.149 24.9792 35.8388 25.3619 35.8388L26.652 35.8387C26.9266 35.8387 27.1435 35.7563 27.3135 35.6248C27.4738 35.5007 27.5923 35.3331 27.678 35.1497C27.812 34.8629 27.8656 34.5377 27.873 34.2812V31.7232C27.873 30.936 27.8111 30.2733 27.7056 29.7044C27.4159 28.1423 26.798 27.2876 26.2327 26.5057C26.1534 26.396 26.0751 26.2878 25.9989 26.1792C22.4345 21.0995 24.8695 15.0698 24.8695 15.0698H32.1235C32.1235 15.0698 34.5568 21.0995 30.9923 26.1792C30.9275 26.2716 30.8614 26.3638 30.7947 26.4569C30.2254 27.2514 29.6118 28.1079 29.3277 29.6994C29.2259 30.2694 29.1665 30.9337 29.1665 31.7232V34.2187C29.1665 34.239 29.1668 34.2599 29.1674 34.2812C29.1677 34.2935 29.1682 34.306 29.1688 34.3187C29.1802 34.5688 29.235 34.8765 29.3626 35.1494C29.4483 35.3329 29.567 35.5007 29.7274 35.6248C29.8974 35.7563 30.1145 35.8388 30.3891 35.8388H31.8159C32.1986 35.8388 32.5089 36.149 32.5089 36.5318C32.5089 36.9145 32.1986 37.2248 31.8159 37.2248H25.362ZM28.505 27.1007C28.17 26.4489 27.7883 25.9232 27.5004 25.5268C27.4302 25.4303 27.3657 25.3414 27.3087 25.2602C25.8084 23.1221 25.5471 20.755 25.6929 18.8411C25.7588 17.9772 25.9065 17.2277 26.0475 16.6698H30.9452C31.086 17.2277 31.2335 17.977 31.2992 18.8408C31.4446 20.7547 31.183 23.1219 29.6826 25.2601C29.6306 25.3343 29.5734 25.4138 29.5123 25.4986C29.2204 25.9042 28.8393 26.4338 28.505 27.1007ZM30.6391 15.6669C30.6383 15.6649 30.6377 15.6635 30.6377 15.6635L30.6383 15.665L30.6391 15.6669Z"/>
<path fill-rule="evenodd" clip-rule="evenodd" d="M17.5015 3.89924C17.5018 3.90473 17.5021 3.91051 17.5024 3.91654C17.5052 3.96822 17.5085 4.0402 17.5107 4.12239C17.5149 4.2763 17.5165 4.5049 17.4942 4.70445C17.471 4.91126 17.4092 5.08671 17.3815 5.16538C17.378 5.17538 17.375 5.18381 17.3727 5.19055C17.3716 5.1939 17.3706 5.19703 17.3696 5.19993C17.3706 5.20237 17.3717 5.20491 17.3728 5.20757C17.407 5.28828 17.4845 5.47144 17.4979 5.71349C17.5145 6.01338 17.4286 6.2418 17.388 6.34994C17.387 6.3527 17.3859 6.35539 17.385 6.35799C17.3773 6.37835 17.3717 6.39378 17.3677 6.40515C17.3713 6.41612 17.3764 6.4315 17.3837 6.45255C17.3854 6.45732 17.3872 6.4624 17.3891 6.46778C17.4236 6.56557 17.4937 6.7641 17.499 7.0199C17.5074 7.428 17.3541 7.72991 17.2766 7.88252C17.2736 7.88851 17.2706 7.89427 17.2678 7.8998C17.2258 7.98305 17.213 8.01036 17.2049 8.03353C17.2034 8.03794 17.2022 8.04206 17.2022 8.04206C17.2022 10.9954 17.2029 12.4654 17.6486 15.1979C17.8349 16.3403 18.2133 17.1649 18.6594 18.0486C18.7063 18.1414 18.7541 18.2353 18.8027 18.3304C19.2156 19.1406 19.6769 20.0456 20.0053 21.2341C20.0963 21.5635 20.1891 21.8722 20.2791 22.1715C20.6228 23.3145 20.9248 24.319 20.9248 25.8094V35.3785C20.9248 36.3808 20.1565 37.3431 19.0284 37.3431H11.0362C10.0457 37.3431 8.91025 36.6379 8.91036 35.3784C8.91047 33.9157 8.91038 32.6202 8.91029 31.3077C8.91016 29.6307 8.91004 27.926 8.91036 25.8093C8.91057 24.3921 9.24432 23.3901 9.59554 22.3357C9.71457 21.9784 9.83561 21.615 9.94635 21.2274C10.2784 20.0653 10.6878 19.1693 11.0625 18.3491C11.1049 18.2564 11.1468 18.1647 11.1881 18.0737C11.5945 17.1778 11.9551 16.3251 12.1928 15.1659C12.6178 13.0939 12.6489 11.7763 12.693 9.90207C12.7064 9.33661 12.7209 8.72048 12.7478 8.0177C12.7432 8.00497 12.7289 7.96957 12.6898 7.88928C12.6868 7.88318 12.6837 7.87675 12.6804 7.87003C12.6059 7.71819 12.4546 7.40955 12.4743 6.99805C12.487 6.73432 12.5702 6.53031 12.6086 6.43596C12.6112 6.42959 12.6136 6.42373 12.6158 6.41838C12.617 6.41519 12.6182 6.41215 12.6194 6.40927C12.618 6.40598 12.6165 6.40253 12.6149 6.39891C12.6135 6.39586 12.6121 6.39268 12.6107 6.38937C12.563 6.28134 12.4543 6.03485 12.475 5.70717C12.4899 5.47197 12.5685 5.29053 12.6144 5.19597C12.5805 5.11395 12.5078 4.93248 12.48 4.71827C12.4531 4.5101 12.4553 4.27425 12.4601 4.11929C12.4627 4.03573 12.4666 3.96259 12.4698 3.91006C12.4714 3.88367 12.4729 3.86215 12.474 3.84673L12.4754 3.82826L12.4758 3.82269L12.4761 3.81982C12.4761 3.81982 12.4761 3.81971 13.2734 3.88497L12.4761 3.81982L12.4769 3.8104L12.4778 3.80112C12.5185 3.41527 12.7359 3.13907 12.9516 2.96504C13.1601 2.79673 13.4043 2.69018 13.6249 2.61959C14.0691 2.4774 14.5993 2.42433 15.0842 2.43068C15.567 2.437 16.0864 2.50327 16.5058 2.65408C16.7104 2.72766 16.9556 2.84382 17.1537 3.03708C17.3526 3.23109 17.5235 3.52979 17.5015 3.89924ZM12.7498 8.02369L12.7493 8.02204L12.7498 8.02369ZM15.9106 4.1418C15.7121 4.08054 15.409 4.03507 15.0633 4.03054C14.6869 4.02562 14.341 4.07034 14.1125 4.14345C14.0928 4.14978 14.0751 4.15592 14.0595 4.16175C14.0595 4.16416 14.0594 4.16658 14.0593 4.16901C14.055 4.30843 14.0571 4.43772 14.0668 4.51254C14.0668 4.51254 14.0683 4.51853 14.0713 4.52728C14.0773 4.54488 14.0816 4.55552 14.0906 4.57774C14.0965 4.5922 14.1043 4.61155 14.1159 4.64089C14.1679 4.77247 14.251 5.00045 14.2317 5.3057C14.2176 5.52821 14.1464 5.70262 14.1 5.80082C14.147 5.90778 14.2333 6.1241 14.2333 6.39688C14.2333 6.68488 14.1462 6.90113 14.1033 7.00769C14.1023 7.01027 14.1012 7.0128 14.1002 7.01526C14.0887 7.04396 14.0813 7.0633 14.0766 7.07575C14.0837 7.09343 14.0985 7.12763 14.1282 7.18849C14.1314 7.19522 14.1349 7.20235 14.1386 7.20988C14.2122 7.35953 14.3625 7.66552 14.3469 8.07209C14.3217 8.72856 14.3079 9.31984 14.295 9.87473C14.2506 11.7853 14.2161 13.2644 13.7602 15.4874C13.486 16.8243 13.0661 17.8069 12.6451 18.7348C12.603 18.8276 12.561 18.9196 12.5192 19.0112C12.1433 19.8348 11.7822 20.6261 11.4848 21.667C11.3347 22.1921 11.1906 22.6253 11.0613 23.0138C10.74 23.9796 10.5105 24.6693 10.5104 25.8095C10.51 27.9264 10.5102 29.6305 10.5103 31.3071C10.5104 32.6195 10.5105 33.9151 10.5104 35.3785C10.5103 35.4577 10.5415 35.5332 10.6278 35.6054C10.7221 35.6841 10.8696 35.7431 11.0362 35.7431H19.0284C19.0995 35.7431 19.1653 35.7152 19.2221 35.6534C19.2822 35.5881 19.3248 35.4903 19.3248 35.3785V25.8094C19.3248 24.5718 19.0999 23.8198 18.7718 22.7228C18.6766 22.4044 18.5727 22.057 18.463 21.6602C18.1799 20.6356 17.7904 19.8698 17.3758 19.0548C17.3279 18.9606 17.2796 18.8657 17.2311 18.7697C16.7636 17.8435 16.2958 16.8435 16.0694 15.4555C15.6022 12.591 15.6022 11.0124 15.6022 8.05312V8.04143C15.6022 7.64431 15.7532 7.34807 15.8286 7.20023C15.8326 7.19242 15.8364 7.18502 15.8399 7.17804C15.8797 7.0993 15.8914 7.07314 15.8979 7.054C15.8946 7.04312 15.8876 7.02119 15.8735 6.9809C15.8724 6.97764 15.8712 6.97427 15.87 6.97079C15.8337 6.86744 15.7621 6.66342 15.7621 6.39689C15.7621 6.12324 15.844 5.90869 15.88 5.8142C15.8821 5.80873 15.884 5.80367 15.8858 5.79901C15.8504 5.7154 15.7764 5.53537 15.7633 5.29937C15.7479 5.01984 15.813 4.80859 15.8566 4.67929C15.8622 4.66262 15.8672 4.64805 15.8715 4.63528C15.9015 4.54637 15.902 4.54482 15.9041 4.52664C15.9135 4.44264 15.9151 4.30595 15.9113 4.16546C15.9111 4.15745 15.9109 4.14956 15.9106 4.1418Z"/>
</svg>
