<svg viewBox="0 0 41 40" xmlns="http://www.w3.org/2000/svg">
<path fill-rule="evenodd" clip-rule="evenodd" d="M18.6694 2.74319C18.6695 2.74319 18.6694 2.74319 18.6694 2.74319L22.5588 2.74319C22.9142 2.7432 23.2428 2.74321 23.5049 2.77127C23.7681 2.79945 24.1409 2.86938 24.4371 3.15455C24.7394 3.44566 24.8167 3.81971 24.8473 4.08446C24.877 4.34194 24.8769 4.663 24.8769 5.00277L24.8769 7.40509C24.8769 7.80979 24.6098 8.1521 24.2422 8.26534V9.55455C24.2966 9.62012 24.3732 9.70015 24.4851 9.80921C24.5071 9.83062 24.5304 9.85318 24.555 9.87687C24.722 10.0383 24.9431 10.2518 25.1464 10.5086C25.2814 10.679 25.4138 10.8429 25.5431 11.0028C26.5542 12.2534 27.3714 13.2643 27.6922 15.3258L27.7017 15.3869V34.0838C27.7017 34.4496 27.5902 34.8172 27.3658 35.1256C26.6874 36.0581 25.9619 36.8368 24.9969 37.0643C24.1419 37.266 23.2968 36.9947 22.4206 36.4764C21.771 36.8585 21.1381 37.1287 20.4754 37.144C19.7971 37.1596 19.2018 36.9102 18.6223 36.5002C17.7716 36.9722 16.8652 37.2779 15.9698 37.1635C14.8233 37.0169 13.95 36.2252 13.3347 34.9327C13.219 34.6897 13.1699 34.4327 13.1699 34.1887V15.4172L13.1724 15.3859C13.2665 14.1899 13.5111 13.275 13.9669 12.4722C14.4163 11.6807 15.0391 11.0569 15.7778 10.4051L15.8067 10.3796L17.1802 9.38496V8.25366C16.831 8.12997 16.5808 7.79674 16.5808 7.40505V5.04347C16.5808 5.03151 16.5808 5.01958 16.5807 5.00769C16.5807 4.66346 16.5807 4.34959 16.6045 4.1001C16.6277 3.85713 16.6842 3.50135 16.9349 3.20946C17.2077 2.89182 17.5696 2.80576 17.8218 2.77315C18.0553 2.74295 18.3424 2.74306 18.6284 2.74318C18.6421 2.74318 18.6558 2.74319 18.6694 2.74319ZM19.2149 34.9359C19.8163 35.442 20.1609 35.5508 20.4385 35.5444C20.7504 35.5372 21.1617 35.3848 21.8855 34.9283C22.1082 34.6487 22.2279 34.4508 22.3049 34.2716C22.3897 34.0744 22.442 33.8556 22.4877 33.4988C22.5439 33.0606 22.9447 32.7508 23.3829 32.807C23.8212 32.8632 24.1309 33.264 24.0747 33.7022C24.0204 34.1258 23.9437 34.5108 23.7749 34.9034C23.7185 35.0346 23.654 35.1616 23.581 35.2873C24.0887 35.5368 24.4036 35.5604 24.6296 35.5071C24.9788 35.4247 25.4065 35.099 26.072 34.1843C26.0883 34.1619 26.1017 34.1271 26.1017 34.0838V15.512C25.8448 13.9321 25.2844 13.2354 24.3004 12.0123C24.1716 11.8522 24.0356 11.6831 23.8921 11.5019C23.7593 11.3343 23.6193 11.1984 23.4489 11.0333C23.4228 11.0079 23.3959 10.9819 23.3683 10.9549C23.1812 10.7725 22.93 10.5231 22.7527 10.2005C22.6764 10.0615 22.6422 9.91186 22.6422 9.76898V7.60509C22.6422 7.2004 22.9094 6.85809 23.2769 6.74485V5.04347C23.2769 4.7174 23.276 4.50646 23.2657 4.35605C23.1028 4.3441 22.8743 4.34324 22.5191 4.34319C22.5191 4.34319 22.5191 4.34319 22.5191 4.34319H18.6693C18.4533 4.34316 18.3019 4.34377 18.1902 4.34797C18.1813 4.50578 18.1808 4.72206 18.1808 5.04347V6.75629C18.53 6.87998 18.7802 7.21321 18.7802 7.6049V9.74233C18.7802 10.0309 18.6418 10.302 18.4081 10.4713L16.8078 11.6302C16.1178 12.241 15.6681 12.7165 15.3583 13.2622C15.0537 13.7987 14.8531 14.4602 14.7699 15.4806V34.1887C14.7699 34.2205 14.7765 34.2389 14.7794 34.2449C15.2535 35.241 15.7502 35.5224 16.1726 35.5764C16.504 35.6187 16.916 35.5408 17.4182 35.3162C17.3533 35.2215 17.2935 35.1231 17.2399 35.0202C17.0119 34.5821 16.9272 34.1237 16.9281 33.5992C16.9288 33.1574 17.2876 32.7998 17.7294 32.8005C18.1712 32.8012 18.5288 33.16 18.5281 33.6018C18.5275 33.9408 18.5798 34.129 18.6592 34.2815C18.7474 34.451 18.9017 34.6401 19.2149 34.9359Z"/>
</svg>
