<svg viewBox="0 0 41 41" xmlns="http://www.w3.org/2000/svg">
<path fill-rule="evenodd" clip-rule="evenodd" d="M26.9701 34.4912L26.9661 34.4916C26.9664 34.5051 26.9666 34.5187 26.9666 34.5326C26.9666 34.5402 26.9666 34.5479 26.9665 34.5557C26.9641 34.8456 26.9054 35.2249 26.7368 35.5305C26.6801 35.6332 26.611 35.7276 26.5275 35.8074C26.3653 35.9625 26.1485 36.0627 25.8624 36.0627L24.3006 36.0628C23.9445 36.0628 23.6621 36.3637 23.67 36.7349C23.6779 37.1061 23.9729 37.407 24.329 37.407H30.9381C31.2942 37.407 31.5766 37.1061 31.5687 36.7349C31.5609 36.3637 31.2658 36.0628 30.9097 36.0628L29.3468 36.0627C29.0606 36.0627 28.8397 35.9625 28.6708 35.8074C28.6448 35.7835 28.62 35.7582 28.5964 35.7318C28.5412 35.6702 28.4926 35.6024 28.4499 35.5305C28.2635 35.2168 28.1896 34.8253 28.1778 34.5326L28.0821 30.0103C28.0619 29.0555 28.122 28.3806 28.257 27.8799C28.5243 26.8881 29.0852 26.5799 29.8967 26.1339C30.0289 26.0612 30.1677 25.9849 30.313 25.9014C33.2365 24.2829 31.97 18.8569 30.0366 15.9128H24.3241C22.5167 18.8501 21.48 24.2762 24.4721 25.9014C24.6153 25.9808 24.7522 26.0537 24.8828 26.1233C25.723 26.5707 26.3011 26.8785 26.6113 27.8788C26.7668 28.3803 26.8551 29.0558 26.8753 30.0103L26.9701 34.4912ZM27.3968 26.0261C27.9058 25.3819 28.5524 25.029 29.0132 24.7775C29.044 24.7607 29.074 24.7443 29.103 24.7283C29.2366 24.6549 29.3629 24.5855 29.4934 24.5105L29.5042 24.5043L29.5151 24.4982C30.1338 24.1557 30.5771 23.2619 30.4037 21.5301C30.2686 20.1796 29.7732 18.6995 29.1418 17.5124H25.2861C24.7061 18.6966 24.2738 20.1747 24.196 21.5248C24.0962 23.256 24.5769 24.154 25.2131 24.4996L25.2256 24.5063C25.3548 24.578 25.4799 24.6447 25.6118 24.715C25.6419 24.731 25.673 24.7474 25.705 24.7643C26.1833 25.0173 26.8551 25.3727 27.3968 26.0261Z"/>
<path fill-rule="evenodd" clip-rule="evenodd" d="M12.2384 3.17145C12.392 3.12108 12.5388 3.11034 12.6567 3.11035H15.1357C15.2486 3.11034 15.3975 3.11939 15.5535 3.17039C15.7313 3.22849 15.877 3.32699 15.9918 3.45111C16.0828 3.54958 16.1434 3.65463 16.1688 3.69853L16.1714 3.70307C16.1788 3.71589 16.1853 3.72714 16.1911 3.73729C16.2116 3.77297 16.2243 3.79513 16.2435 3.82464C16.4201 4.0953 16.5051 4.39337 16.4951 4.70338C16.4856 4.99623 16.3929 5.25279 16.2931 5.45824C16.2447 5.55776 16.2412 5.59799 16.2389 5.63445C16.2369 5.66741 16.237 5.70899 16.2393 5.78719C16.2397 5.79937 16.2401 5.81255 16.2406 5.8266C16.2428 5.89462 16.2456 5.98321 16.2456 6.07968V11.7611C16.2456 11.8623 16.2591 11.894 16.2603 11.8968C16.2603 11.8968 16.2627 11.9023 16.2684 11.9099C16.2748 11.9183 16.2892 11.9351 16.3184 11.9602C16.7795 12.3567 17.092 12.651 17.3609 12.9639C17.629 13.2759 17.8373 13.5877 18.0991 13.9893C18.4737 14.564 18.828 15.1136 18.8281 16.0376V35.5815C18.8281 36.5986 17.9886 37.3731 17.0153 37.3731H11.0251C10.0514 37.3731 9.2128 36.5979 9.21289 35.5814C9.21321 31.987 9.21312 28.0556 9.21301 23.7574C9.21295 21.3053 9.21288 18.7339 9.21289 16.0376C9.21289 15.2993 9.29242 14.7403 9.7149 14.0211C10.2671 13.081 10.6472 12.7221 11.4811 11.9721C11.5707 11.8915 11.5927 11.8531 11.5976 11.8435C11.5997 11.8394 11.6014 11.8352 11.6032 11.8272C11.6052 11.8182 11.6087 11.7979 11.6087 11.7611V6.07968C11.6087 5.86287 11.6051 5.7912 11.5943 5.73203C11.5867 5.6905 11.5698 5.62549 11.4911 5.47035C11.3836 5.25824 11.2894 4.99752 11.2812 4.70069C11.2725 4.38918 11.3601 4.09214 11.5347 3.82461C11.5545 3.7942 11.565 3.77686 11.5791 3.75337C11.5894 3.73618 11.6017 3.71569 11.6211 3.68436C11.6528 3.63323 11.7177 3.52975 11.8156 3.43158C11.9288 3.31811 12.069 3.22697 12.2384 3.17145ZM12.6489 4.71052L12.6514 4.71041L12.6489 4.71052ZM12.9009 4.71035C12.9056 4.72107 12.9113 4.73325 12.9183 4.74695C13.0382 4.98349 13.1233 5.19948 13.168 5.44329C13.2087 5.66514 13.2087 5.87913 13.2087 6.06863L13.2087 11.7611C13.2087 12.0443 13.1534 12.315 13.0224 12.5714C12.8961 12.8187 12.7218 13.0082 12.5511 13.1616C11.7596 13.8736 11.5227 14.1025 11.0945 14.8314C10.861 15.229 10.8129 15.4807 10.8129 16.0376C10.8129 18.7337 10.8129 21.305 10.813 23.757C10.8131 28.0553 10.8132 31.987 10.8129 35.5815C10.8129 35.6718 10.892 35.7731 11.0251 35.7731H17.0153C17.1491 35.7731 17.2281 35.6714 17.2281 35.5815V16.0376C17.2281 15.6189 17.1174 15.4133 16.7588 14.8631C16.4957 14.4596 16.3387 14.2293 16.1474 14.0067C15.9568 13.7849 15.7156 13.5521 15.2753 13.1735C15.0696 12.9966 14.8987 12.7847 14.7869 12.5207C14.6774 12.2619 14.6456 12.0023 14.6456 11.7611V6.07968C14.6456 6.03411 14.6435 5.98413 14.6413 5.92984C14.6296 5.64967 14.6131 5.25482 14.854 4.75906C14.863 4.74041 14.8702 4.72424 14.8759 4.71035H12.9009ZM15.1475 4.71065C15.1475 4.71065 15.1463 4.71064 15.1441 4.71046L15.1475 4.71065Z"/>
</svg>
