<svg version="1.1" xmlns="http://www.w3.org/2000/svg" viewBox="0 0 1024 1024">
<title></title>
<path d="M506.352 0c-211.042 0.020-357.276 0.722-432.339 74.023-73.297 75.046-74 228.148-74 432.325 226.715-6.842 330.39-12.518 413.078-93.264 80.742-82.688 86.419-186.361 93.261-413.085zM74 949.984c-73.297-75.046-74-228.147-74-432.323 226.715 6.842 330.39 12.518 413.078 93.261 80.742 82.688 86.419 186.362 93.261 413.069-211.042 0-357.276-0.685-432.34-74.006zM517.658 1023.99c6.842-226.707 12.522-330.381 93.261-413.069 82.688-80.742 186.365-86.419 413.078-93.261-0.019 204.176-0.723 357.277-74.019 432.323-75.062 73.322-221.277 74.006-432.32 74.006zM517.658 0c6.842 226.724 12.522 330.397 93.261 413.085 82.688 80.746 186.365 86.422 413.078 93.264-0.019-204.177-0.723-357.279-74.019-432.325-75.062-73.301-221.277-74.003-432.32-74.023z"></path>
<path d="M610.918 610.922c-80.739 82.688-86.419 186.362-93.261 413.069 211.043 0 357.258-0.685 432.32-74.006 73.296-75.046 74-228.147 74.019-432.323-226.714 6.842-330.39 12.518-413.078 93.261zM0 517.661c0 204.176 0.702 357.277 74 432.323 75.063 73.322 221.298 74.006 432.34 74.006-6.842-226.707-12.518-330.381-93.261-413.069-82.688-80.742-186.363-86.419-413.078-93.261zM506.352 0c-211.042 0.020-357.276 0.722-432.339 74.023-73.297 75.046-74 228.148-74 432.325 226.715-6.842 330.39-12.518 413.078-93.264 80.742-82.688 86.419-186.361 93.261-413.085zM610.918 413.085c-80.739-82.688-86.419-186.361-93.261-413.085 211.043 0.020 357.258 0.722 432.32 74.023 73.296 75.046 74 228.148 74.019 432.325-226.714-6.842-330.39-12.518-413.078-93.264z"></path>
</svg>
