<svg width="100" height="38" viewBox="0 0 100 38" fill="none" xmlns="http://www.w3.org/2000/svg">
<path d="M12.5502 36.6024C8.88688 36.6024 5.90771 33.7215 5.90771 30.1805C5.90771 26.6394 8.88688 23.7585 12.5502 23.7585C16.2135 23.7585 19.1927 26.6394 19.1927 30.1805C19.1927 33.7215 16.2135 36.6024 12.5502 36.6024ZM12.5502 25.0024C9.59402 25.0024 7.19179 27.3243 7.19179 30.1805C7.19179 33.0366 9.59657 35.3585 12.5502 35.3585C15.5038 35.3585 17.9086 33.0366 17.9086 30.1805C17.9086 27.3268 15.5064 25.0024 12.5502 25.0024Z" fill="white"/>
<path d="M0.640381 19.869C0.640381 26.2291 5.97582 31.3874 12.5596 31.3874C19.1408 31.3874 24.4788 26.2315 24.4788 19.869C24.4788 13.5089 19.1434 8.35059 12.5596 8.35059C5.97582 8.35306 0.640381 13.5089 0.640381 19.869Z" fill="url(#paint0_linear)"/>
<path d="M12.56 25.0022C5.63413 25.0022 0 19.557 0 12.8631C0 6.1692 5.63413 0.72406 12.56 0.72406C19.4858 0.72406 25.12 6.1692 25.12 12.8631C25.12 19.557 19.4858 25.0022 12.56 25.0022ZM12.56 1.96789C6.34126 1.96789 1.28408 6.85665 1.28408 12.8631C1.28408 18.8721 6.34382 23.7584 12.56 23.7584C18.7787 23.7584 23.8359 18.8696 23.8359 12.8631C23.8359 6.85665 18.7762 1.96789 12.56 1.96789Z" fill="white"/>
<path d="M38.5294 31.8032H39.0757V33.7814C39.3183 33.3981 39.7114 33.1855 40.1964 33.1855C41.0746 33.1855 41.7128 33.8952 41.7128 34.8942C41.7128 35.8932 41.0772 36.6029 40.1964 36.6029C39.691 36.6029 39.2748 36.3828 39.04 35.9797L38.9711 36.5238H38.5294V31.8032ZM40.0662 33.6207C39.4791 33.6207 39.0706 34.0435 39.0706 34.6321V35.1538C39.0706 35.7498 39.4791 36.1652 40.0662 36.1652C40.6968 36.1652 41.1537 35.6434 41.1537 34.8917C41.1512 34.1499 40.6942 33.6207 40.0662 33.6207Z" fill="white"/>
<path d="M43.8933 37.0128C43.6175 37.6904 43.2704 37.9995 42.7317 37.9995C42.599 37.9995 42.4279 37.9797 42.262 37.9401L42.3386 37.5098C42.4637 37.5445 42.5887 37.5642 42.6781 37.5642C43.0176 37.5642 43.2167 37.3763 43.398 36.9213L43.5716 36.4985L42.1803 33.2665H42.7547L43.8345 35.9074L44.8787 33.2665H45.4607L43.8933 37.0128Z" fill="white"/>
<path d="M49.3232 32.0173H49.8567L51.7739 36.5228H51.1919L50.6787 35.2889H48.4986L47.9855 36.5228H47.4034L49.3232 32.0173ZM48.6594 34.866H50.5154L49.5887 32.6479L48.6594 34.866Z" fill="white"/>
<path d="M53.0042 35.7714C53.0042 36.0138 53.1625 36.1671 53.4127 36.1671C53.5097 36.1671 53.6271 36.1473 53.7445 36.1201L53.8135 36.5429C53.6271 36.5825 53.4458 36.6023 53.2952 36.6023C52.777 36.6023 52.4579 36.3006 52.4579 35.8184V31.8026H53.0042V35.7714Z" fill="white"/>
<path d="M54.7068 31.9171C54.9213 31.9171 55.0744 32.0655 55.0744 32.2732C55.0744 32.4809 54.9213 32.6293 54.7068 32.6293C54.4847 32.6293 54.3341 32.4809 54.3341 32.2732C54.3341 32.0655 54.4847 31.9171 54.7068 31.9171ZM54.4311 33.2648H54.9774V36.524H54.4311V33.2648Z" fill="white"/>
<path d="M57.3646 34.545C57.5995 34.545 57.8573 34.5722 58.1203 34.639V34.3026C58.1203 33.8872 57.7884 33.593 57.2957 33.593C56.9358 33.593 56.5681 33.6746 56.1827 33.8353L56.0295 33.4471C56.4992 33.274 56.9281 33.1849 57.3595 33.1849C58.1203 33.1849 58.6462 33.6399 58.6462 34.3175V35.8927C58.6462 36.0732 58.7559 36.1869 58.9499 36.1869C59.0061 36.1869 59.0878 36.1746 59.1286 36.1672L59.1695 36.5702C59.0597 36.59 58.9346 36.6048 58.8095 36.6048C58.4419 36.6048 58.2071 36.3971 58.1662 36.0608C57.8956 36.4021 57.4591 36.6048 56.997 36.6048C56.3333 36.6048 55.8278 36.182 55.8278 35.6256C55.8278 34.9406 56.4099 34.545 57.3646 34.545ZM57.1298 36.2141C57.7118 36.2141 58.1203 35.8111 58.1203 35.2349V34.9604C57.8854 34.906 57.6557 34.8788 57.4284 34.8788C56.7647 34.8788 56.369 35.1459 56.369 35.5885C56.3665 35.9471 56.6932 36.2141 57.1298 36.2141Z" fill="white"/>
<path d="M59.7843 33.2641H60.2285L60.2974 33.86C60.5246 33.4298 60.9765 33.1825 61.5075 33.1825C62.2555 33.1825 62.789 33.6795 62.789 34.3967V36.5208H62.235V34.4758C62.235 33.9787 61.8674 33.6301 61.3492 33.6301C60.7671 33.6301 60.3306 34.0603 60.3306 34.6835V36.5208H59.7843V33.2641Z" fill="white"/>
<path d="M64.6986 33.2642H65.758V33.6871H64.6986V35.6035C64.6986 35.9398 64.9335 36.1673 65.2807 36.1673C65.4262 36.1673 65.5844 36.1401 65.758 36.1005L65.8346 36.516C65.5998 36.5753 65.3777 36.6025 65.1632 36.6025C64.5608 36.6025 64.1523 36.2143 64.1523 35.6505V33.6871H63.4528V33.2642H64.1523V32.2998H64.6986V33.2642Z" fill="white"/>
<path d="M67.8867 34.545C68.1216 34.545 68.3794 34.5722 68.6424 34.639V34.3026C68.6424 33.8872 68.3105 33.593 67.8178 33.593C67.4578 33.593 67.0902 33.6746 66.7022 33.8353L66.549 33.4471C67.0188 33.274 67.4476 33.1849 67.8791 33.1849C68.6398 33.1849 69.1657 33.6399 69.1657 34.3175V35.8927C69.1657 36.0732 69.2755 36.1869 69.4695 36.1869C69.5256 36.1869 69.6073 36.1746 69.6482 36.1672L69.689 36.5702C69.5792 36.59 69.4542 36.6048 69.3291 36.6048C68.9615 36.6048 68.7266 36.3971 68.6858 36.0608C68.4152 36.4021 67.9786 36.6048 67.5166 36.6048C66.8528 36.6048 66.3474 36.182 66.3474 35.6256C66.3525 34.9406 66.932 34.545 67.8867 34.545ZM67.6519 36.2141C68.2339 36.2141 68.6424 35.8111 68.6424 35.2349V34.9604C68.4075 34.906 68.1777 34.8788 67.9505 34.8788C67.2868 34.8788 66.8911 35.1459 66.8911 35.5885C66.8911 35.9471 67.2179 36.2141 67.6519 36.2141Z" fill="white"/>
<path d="M75.8108 36.2349C75.2772 36.4773 74.7233 36.6034 74.1642 36.6034C72.7525 36.6034 71.762 35.639 71.762 34.2715C71.762 32.904 72.732 31.9396 74.108 31.9396C74.6467 31.9396 75.1955 32.093 75.7342 32.3897L75.5197 32.773C75.0551 32.5257 74.6135 32.3773 74.1693 32.3773C73.0818 32.3773 72.3287 33.1612 72.3287 34.274C72.3287 35.3867 73.0971 36.1706 74.205 36.1706C74.5854 36.1706 74.9453 36.089 75.2772 35.9431V34.6029H74.108V34.1874H75.8108V36.2349Z" fill="white"/>
<path d="M76.8352 33.2645H77.2794L77.3483 33.8803C77.5143 33.4648 77.9099 33.2101 78.3924 33.2101C78.5175 33.2101 78.6681 33.2299 78.8137 33.2645L78.7524 33.6998C78.6196 33.6726 78.4818 33.6528 78.3516 33.6528C77.7772 33.6528 77.3815 34.1028 77.3815 34.7581V36.5213H76.8352V33.2645Z" fill="white"/>
<path d="M80.9604 33.1849C81.956 33.1849 82.6708 33.8897 82.6708 34.8937C82.6708 35.9001 81.9585 36.6024 80.9604 36.6024C79.9571 36.6024 79.2449 35.8976 79.2449 34.8937C79.2423 33.8872 79.9546 33.1849 80.9604 33.1849ZM80.9604 36.1746C81.6318 36.1746 82.1092 35.6528 82.1092 34.8937C82.1092 34.1419 81.6318 33.6127 80.9604 33.6127C80.2813 33.6127 79.8116 34.1419 79.8116 34.8937C79.8116 35.6503 80.2813 36.1746 80.9604 36.1746Z" fill="white"/>
<path d="M86.4658 36.5232H86.0216L85.9527 35.9272C85.7179 36.355 85.2686 36.6048 84.735 36.6048C83.987 36.6048 83.4612 36.1077 83.4612 35.3906V33.2665H84.0074V35.3189C84.0074 35.816 84.3802 36.1572 84.8933 36.1572C85.4753 36.1572 85.9119 35.7269 85.9119 35.1038V33.2665H86.4658V36.5232Z" fill="white"/>
<path d="M87.553 33.2641H87.9972L88.0661 33.8081C88.301 33.405 88.7171 33.1849 89.2225 33.1849C90.1007 33.1849 90.7389 33.8946 90.7389 34.8937C90.7389 35.8927 90.1033 36.6024 89.2225 36.6024C88.7375 36.6024 88.3444 36.3872 88.1018 36.0114V37.9154H87.5555V33.2641H87.553ZM89.0872 33.6201C88.5001 33.6201 88.0916 34.043 88.0916 34.6315V35.1533C88.0916 35.7492 88.5001 36.1647 89.0872 36.1647C89.7178 36.1647 90.1748 35.6429 90.1748 34.8912C90.1748 34.1493 89.7178 33.6201 89.0872 33.6201Z" fill="white"/>
<path d="M37.9335 0.724036L40.8616 7.91252L43.8561 0.207214L46.751 7.91252L49.7787 0.724036H51.6091L46.6514 12.1682L43.7565 4.54454L40.8284 12.1682L36.1031 0.724036H37.9335Z" fill="white"/>
<path d="M55.537 0.72406V11.4759H53.8419V0.72406H55.537Z" fill="white"/>
<path d="M59.0325 11.4764V0L67.0867 8.17267V0.727009H68.7843V12.1391L60.7301 3.9664V11.4764H59.0325Z" fill="white"/>
<path d="M78.4008 2.27204H73.9742V4.83389H78.2681V6.38187H73.9742V9.92789H78.4008V11.4759H72.2766V0.72406H78.4008V2.27204Z" fill="white"/>
<path d="M43.4935 16.8672H39.0669V19.429H43.3608V20.977H39.0669V24.523H43.4935V26.071H37.3693V15.3192H43.4935V16.8672Z" fill="white"/>
<path d="M48.8485 20.4602L45.7876 15.3192H47.6844L49.8466 18.9617L52.06 15.3192H53.9567L50.7631 20.4602L54.1073 26.0686H52.2106L49.7803 21.9587L47.2504 26.0686H45.3536L48.8485 20.4602Z" fill="white"/>
<path d="M58.8837 15.3192C59.5653 15.3192 60.515 15.3835 61.314 15.9003C62.2458 16.4963 62.6951 17.5274 62.6951 18.5116C62.6951 19.1397 62.5292 20.1066 61.6127 20.8657C60.732 21.5903 59.716 21.704 58.9016 21.704H58.1357V26.071H56.4381V15.3192H58.8837ZM58.1332 20.1857H58.899C60.3644 20.1857 61.0613 19.4933 61.0613 18.4943C61.0613 17.8984 60.8111 16.8351 58.8812 16.8351H58.1332V20.1857Z" fill="white"/>
<path d="M67.237 15.3192C68.5849 15.3192 69.4503 15.48 70.1651 15.9473C71.3803 16.7362 71.4798 18.0097 71.4798 18.477C71.4798 20.025 70.497 21.1526 69.0163 21.4741L72.478 26.0686H70.4306L67.2523 21.6694H66.9536V26.0686H65.256V15.3168H67.237V15.3192ZM66.9536 20.2501H67.4872C67.9543 20.2501 69.8511 20.2006 69.8511 18.4943C69.8511 16.9785 68.3704 16.8351 67.5382 16.8351H66.9562V20.2501H66.9536Z" fill="white"/>
<path d="M81.0952 16.8672H76.6685V19.429H80.9624V20.977H76.6685V24.523H81.0952V26.071H74.9709V15.3192H81.0952V16.8672Z" fill="white"/>
<path d="M88.9157 17.7052C88.8161 17.4629 88.6655 17.2378 88.4153 17.0276C88.0656 16.7532 87.7005 16.6419 87.218 16.6419C86.1867 16.6419 85.6531 17.2378 85.6531 17.9302C85.6531 18.2517 85.7706 18.8155 86.8504 19.2359L87.966 19.6711C90.0134 20.4772 90.5776 21.6048 90.5776 22.8289C90.5776 24.8764 89.0791 26.2784 87.001 26.2784C85.7195 26.2784 84.9537 25.8111 84.3895 25.1978C83.7896 24.5524 83.5241 23.8452 83.4577 23.1033L85.1375 22.7497C85.1375 23.2814 85.3366 23.7809 85.6046 24.1197C85.9212 24.5079 86.3858 24.7651 87.0521 24.7651C88.0835 24.7651 88.8825 24.0406 88.8825 22.9599C88.8825 21.8645 88.0171 21.4119 87.2844 21.1226L86.2199 20.6874C85.306 20.3165 83.958 19.5746 83.958 17.9624C83.958 16.5108 85.1222 15.126 87.2027 15.126C88.4 15.126 89.0842 15.5613 89.4313 15.8506C89.73 16.1077 90.0466 16.4787 90.2789 16.9312L88.9157 17.7052Z" fill="white"/>
<path d="M98.3356 17.7052C98.236 17.4629 98.0854 17.2378 97.8378 17.0276C97.488 16.7532 97.123 16.6419 96.6405 16.6419C95.6091 16.6419 95.0756 17.2378 95.0756 17.9302C95.0756 18.2517 95.193 18.8155 96.2729 19.2359L97.3885 19.6711C99.4358 20.4772 100 21.6048 100 22.8289C100 24.8764 98.5015 26.2784 96.4235 26.2784C95.1419 26.2784 94.3761 25.8111 93.8119 25.1978C93.212 24.5524 92.9465 23.8452 92.8801 23.1033L94.5599 22.7497C94.5599 23.2814 94.759 23.7809 95.0271 24.1197C95.3436 24.5079 95.8082 24.7651 96.4745 24.7651C97.5059 24.7651 98.3049 24.0406 98.3049 22.9599C98.3049 21.8645 97.4395 21.4119 96.7068 21.1226L95.6423 20.6874C94.7284 20.3165 93.3805 19.5746 93.3805 17.9624C93.3805 16.5108 94.5446 15.126 96.6252 15.126C97.8224 15.126 98.5066 15.5613 98.8538 15.8506C99.1525 16.1077 99.469 16.4787 99.7013 16.9312L98.3356 17.7052Z" fill="white"/>
<defs>
<linearGradient id="paint0_linear" x1="12.559" y1="9.60139" x2="12.559" y2="28.7684" gradientUnits="userSpaceOnUse">
<stop stop-color="#A10912"/>
<stop offset="1" stop-color="#E89515"/>
</linearGradient>
</defs>
</svg>
