<svg width="100" height="29" viewBox="0 0 100 29" fill="none" xmlns="http://www.w3.org/2000/svg">
<g clip-path="url(#clip0)">
<path d="M40.0577 22.9015H43.1789C43.2021 23.7775 42.9366 24.637 42.4232 25.3485C42.0848 25.7574 41.6559 26.0827 41.1702 26.2987C40.6846 26.5148 40.1553 26.6158 39.6239 26.5938C39.1168 26.6091 38.612 26.5212 38.1401 26.3357C37.6682 26.1502 37.2393 25.8708 36.8793 25.5146C36.5193 25.1584 36.2359 24.7329 36.0464 24.264C35.8569 23.7951 35.7652 23.2927 35.7769 22.7873C35.7698 22.2792 35.8655 21.775 36.0584 21.3047C36.2514 20.8344 36.5374 20.4076 36.8996 20.05C37.2618 19.6924 37.6926 19.4112 38.1663 19.2233C38.64 19.0354 39.1469 18.9446 39.6566 18.9563C40.5038 18.9418 41.329 19.2258 41.9866 19.7584C42.3287 20.013 42.6296 20.3184 42.8788 20.6638L42.4886 20.9738C42.2951 20.666 42.0538 20.3907 41.7738 20.1581C41.2815 19.7459 40.6802 19.484 40.0422 19.4041C39.4041 19.3241 38.7565 19.4295 38.1771 19.7074C37.5977 19.9853 37.1111 20.4241 36.7758 20.9709C36.4406 21.5177 36.2709 22.1494 36.2871 22.79C36.2753 23.2299 36.3528 23.6676 36.5152 24.0768C36.6775 24.4861 36.9212 24.8583 37.2317 25.1713C37.5421 25.4842 37.9129 25.7313 38.3216 25.8977C38.7304 26.0642 39.1687 26.1465 39.6102 26.1397C40.1113 26.1552 40.6086 26.049 41.0592 25.8301C41.5098 25.6113 41.9002 25.2864 42.1967 24.8836C42.483 24.4188 42.6515 23.8916 42.6878 23.3474H40.0549L40.0577 22.9015Z" fill="#1B1C20"/>
<path d="M49.1103 26.4633L46.7012 22.9558H46.4774V26.4633H45.9863V19.0324H47.0586C47.6094 18.9884 48.16 19.1208 48.6301 19.4104C48.8817 19.5908 49.0839 19.8311 49.2183 20.1094C49.3527 20.3877 49.415 20.6952 49.3995 21.0037C49.4217 21.3997 49.3109 21.7919 49.0846 22.1183C48.8583 22.4447 48.5295 22.6868 48.1499 22.8063C47.8552 22.9037 47.5464 22.9524 47.2359 22.9504L49.6669 26.4578L49.1103 26.4633ZM46.4774 22.5099H47.2005C48.2591 22.5099 48.8948 21.9662 48.8948 20.9982C48.9159 20.7434 48.8656 20.4877 48.7495 20.2597C48.6334 20.0317 48.456 19.8403 48.2372 19.7067C47.8793 19.5492 47.4907 19.473 47.0995 19.4838H46.4856L46.4774 22.5099Z" fill="#1B1C20"/>
<path d="M59.6065 22.7682C59.6097 23.5299 59.386 24.2755 58.9636 24.9103C58.5413 25.5452 57.9393 26.0409 57.234 26.3345C56.5287 26.6281 55.7518 26.7065 55.0018 26.5596C54.2517 26.4128 53.5623 26.0474 53.0209 25.5098C52.4794 24.9721 52.1103 24.2864 51.9603 23.5394C51.8103 22.7925 51.8862 22.018 52.1783 21.3141C52.4705 20.6102 52.9657 20.0086 53.6013 19.5855C54.2369 19.1623 54.9842 18.9367 55.7486 18.9372C56.2563 18.9292 56.7605 19.0227 57.2313 19.2122C57.7021 19.4017 58.13 19.6834 58.4897 20.0406C58.8493 20.3977 59.1335 20.8231 59.3253 21.2916C59.5172 21.7602 59.6128 22.2622 59.6065 22.7682ZM59.0936 22.7682C59.0866 22.1098 58.8842 21.4682 58.512 20.9242C58.1398 20.3802 57.6144 19.9581 57.002 19.7111C56.3895 19.4641 55.7174 19.4032 55.0703 19.5361C54.4232 19.669 53.83 19.9898 53.3655 20.458C52.9009 20.9262 52.5858 21.5209 52.4598 22.1673C52.3338 22.8136 52.4025 23.4826 52.6573 24.0901C52.9121 24.6976 53.3416 25.2164 53.8917 25.5811C54.4418 25.9458 55.0879 26.1402 55.7486 26.1397C56.1927 26.1453 56.6333 26.0616 57.0442 25.8937C57.4551 25.7258 57.8278 25.477 58.14 25.1623C58.4522 24.8476 58.6976 24.4734 58.8615 24.062C59.0253 23.6507 59.1042 23.2106 59.0936 22.7682Z" fill="#1B1C20"/>
<path d="M62.9081 19.0325V23.6791C62.9081 24.3806 62.9408 24.8374 63.2191 25.2833C63.6529 25.9847 64.4687 26.1397 64.9489 26.1397C65.4291 26.1397 66.2422 25.9847 66.676 25.2833C66.9488 24.8374 66.9897 24.3806 66.9897 23.6791V19.0325H67.4781V23.6791C67.4781 24.4948 67.4345 25.0386 67.0552 25.5823C66.8007 25.8948 66.4794 26.1467 66.1148 26.3198C65.7502 26.4928 65.3514 26.5826 64.9476 26.5826C64.5437 26.5826 64.1449 26.4928 63.7803 26.3198C63.4157 26.1467 63.0944 25.8948 62.8399 25.5823C62.4606 25.0386 62.417 24.4948 62.417 23.6791V19.0325H62.9081Z" fill="#1B1C20"/>
<path d="M71.1801 22.9341V26.4687H70.689V19.0325H72.1295C73.3437 19.0325 74.3122 19.7013 74.3122 20.9683C74.3122 22.2354 73.4337 22.9287 72.1514 22.9287L71.1801 22.9341ZM71.1801 22.4882H72.1623C73.1308 22.4882 73.7993 21.92 73.7993 20.9847C73.7993 20.0493 73.1772 19.4838 72.0941 19.4838H71.191L71.1801 22.4882Z" fill="#1B1C20"/>
<path d="M42.8354 10.6745H38.56L37.4441 13.0943H35.8071L40.7673 2.50415L45.5419 13.0943H43.9049L42.8354 10.6745ZM42.2215 9.26067L40.7427 5.87289L39.1876 9.26067H42.2215Z" fill="#1B1C20"/>
<path d="M49.6287 3.12939V11.6831H52.5672V13.0942H48.1172V3.12939H49.6287Z" fill="#1B1C20"/>
<path d="M56.8345 3.12939H55.3257V13.097H56.8345V3.12939Z" fill="#1B1C20"/>
<path d="M66.441 10.6745H62.1574L61.0442 13.0943H59.4072L64.3674 2.50415L69.142 13.0943H67.4887L66.441 10.6745ZM65.8243 9.26067L64.3401 5.87289L62.7877 9.26067H65.8243Z" fill="#1B1C20"/>
<path d="M71.7178 13.0942V2.45239L79.0107 10.0545V3.1294H80.5195V13.7033L73.2266 6.1175V13.0942H71.7178Z" fill="#1B1C20"/>
<path d="M87.0022 4.54323V13.0942H85.4934V4.54323H83.1934V3.12939H89.2967V4.54323H87.0022Z" fill="#1B1C20"/>
<path d="M97.3018 10.6745H93.0183L91.9051 13.0943H90.2681L95.22 2.50415L99.992 13.0943H98.3549L97.3018 10.6745ZM96.6852 9.26067L95.2009 5.87289L93.6485 9.26067H96.6852Z" fill="#1B1C20"/>
<path d="M12.8289 8.18657L11.8385 5.95705H17.2597L16.2721 8.18657H17.3416L18.7603 4.98096H10.3379L11.7594 8.18657H12.8289Z" fill="url(#paint0_linear)"/>
<path d="M16.2721 20.8132L17.2597 23.0427H11.8385L12.8289 20.8132H11.7594L10.3379 24.0161H18.7603L17.3416 20.8132H16.2721Z" fill="url(#paint1_linear)"/>
<path d="M4.99854 18.6953L8.21528 17.2815V16.2157L5.97802 17.1999V11.7974L8.21528 12.7844V11.7186L4.99854 10.302V18.6953Z" fill="url(#paint2_linear)"/>
<path d="M20.8857 12.7844L23.123 11.7974V17.1999L20.8857 16.2157V17.2815L24.0998 18.6953V10.302L20.8857 11.7186V12.7844Z" fill="url(#paint3_linear)"/>
<path d="M18.1055 10.2666L18.7985 10.9545L20.5746 9.18445C21.0112 8.75215 20.5392 7.84131 20.5392 7.84131L18.1055 10.2666Z" fill="url(#paint4_linear)"/>
<path d="M10.3021 10.9545L10.9924 10.2666L8.56142 7.84131C8.56142 7.84131 8.08941 8.75215 8.52322 9.18445L10.3021 10.9545Z" fill="url(#paint5_linear)"/>
<path d="M18.7985 18.0454L18.1055 18.7333L20.5392 21.1586C20.5392 21.1586 21.0112 20.2477 20.5746 19.8154L18.7985 18.0454Z" fill="url(#paint6_linear)"/>
<path d="M10.3021 18.0454L8.52322 19.8154C8.08941 20.2477 8.56142 21.1586 8.56142 21.1586L10.9924 18.7333L10.3021 18.0454Z" fill="url(#paint7_linear)"/>
<path d="M14.5504 0C11.6726 0 8.85942 0.85041 6.46662 2.44369C4.07383 4.03697 2.20887 6.30156 1.10759 8.95109C0.00630445 11.6006 -0.281841 14.5161 0.279588 17.3288C0.841017 20.1415 2.2268 22.7252 4.26171 24.753C6.29662 26.7809 8.88924 28.1619 11.7117 28.7214C14.5342 29.2809 17.4598 28.9937 20.1186 27.8963C22.7773 26.7988 25.0497 24.9403 26.6486 22.5558C28.2474 20.1713 29.1007 17.3678 29.1007 14.5C29.0964 10.6557 27.562 6.97006 24.8342 4.25172C22.1065 1.53338 18.408 0.00431784 14.5504 0V0ZM14.5504 28.0348C11.8641 28.0348 9.23825 27.241 7.00473 25.7538C4.77122 24.2665 3.0304 22.1527 2.00243 19.6795C0.974454 17.2064 0.70549 14.485 1.22955 11.8595C1.7536 9.234 3.04714 6.82234 4.94659 4.92946C6.84604 3.03659 9.26608 1.74753 11.9007 1.22528C14.5353 0.703041 17.2662 0.971075 19.7479 1.99549C22.2297 3.01991 24.3508 4.75469 25.8432 6.98048C27.3356 9.20626 28.1322 11.8231 28.1322 14.5C28.1286 18.0885 26.6965 21.5291 24.1502 24.0666C21.6039 26.604 18.1514 28.0312 14.5504 28.0348Z" fill="url(#paint8_linear)"/>
<path d="M17.0604 12.159L17.7671 11.4983C17.0658 10.7518 16.1251 10.2726 15.1073 10.1434C14.0894 10.0141 13.0582 10.2429 12.1915 10.7903C11.3248 11.3377 10.677 12.1694 10.3598 13.1419C10.0427 14.1143 10.076 15.1666 10.4541 16.1172C10.8322 17.0678 11.5313 17.8571 12.4309 18.3489C13.3305 18.8408 14.3742 19.0043 15.3818 18.8114C16.3895 18.6184 17.298 18.0811 17.9506 17.292C18.6032 16.503 18.959 15.5117 18.9567 14.4891V14.0187H16.3974L15.006 11.1068C15.793 11.2078 16.5198 11.58 17.0604 12.159ZM14.092 11.1068L11.6201 16.2727C11.3241 15.7874 11.154 15.2363 11.1252 14.6692C11.0964 14.102 11.2097 13.5366 11.455 13.024C11.7003 12.5114 12.0698 12.0677 12.5301 11.733C12.9905 11.3983 13.5273 11.1831 14.092 11.1068ZM12.3076 17.0884L13.3144 14.9812H15.7863L16.7931 17.0938C16.1702 17.6311 15.3741 17.9268 14.5503 17.9268C13.7266 17.9268 12.9304 17.6311 12.3076 17.0938V17.0884ZM17.9553 14.9785C17.8881 15.4417 17.7256 15.886 17.4779 16.2836L16.8558 14.9785H17.9553ZM13.7755 14.0187L14.5503 12.3874L15.3252 14.0187H13.7755Z" fill="url(#paint9_linear)"/>
</g>
<defs>
<linearGradient id="paint0_linear" x1="4.43644" y1="0.916169" x2="31.3603" y2="15.1178" gradientUnits="userSpaceOnUse">
<stop stop-color="#B22332"/>
<stop offset="1" stop-color="#6B172A"/>
</linearGradient>
<linearGradient id="paint1_linear" x1="-64.1166" y1="184.577" x2="300.811" y2="689.057" gradientUnits="userSpaceOnUse">
<stop stop-color="#B22332"/>
<stop offset="1" stop-color="#6B172A"/>
</linearGradient>
<linearGradient id="paint2_linear" x1="-6.77473" y1="356.778" x2="383.1" y2="435.313" gradientUnits="userSpaceOnUse">
<stop stop-color="#B22332"/>
<stop offset="1" stop-color="#6B172A"/>
</linearGradient>
<linearGradient id="paint3_linear" x1="56.5292" y1="121.261" x2="446.126" y2="199.689" gradientUnits="userSpaceOnUse">
<stop stop-color="#B22332"/>
<stop offset="1" stop-color="#6B172A"/>
</linearGradient>
<linearGradient id="paint4_linear" x1="59.2487" y1="22.8468" x2="338.037" y2="147.809" gradientUnits="userSpaceOnUse">
<stop stop-color="#B22332"/>
<stop offset="1" stop-color="#6B172A"/>
</linearGradient>
<linearGradient id="paint5_linear" x1="27.9157" y1="70.9762" x2="306.569" y2="195.767" gradientUnits="userSpaceOnUse">
<stop stop-color="#B22332"/>
<stop offset="1" stop-color="#6B172A"/>
</linearGradient>
<linearGradient id="paint6_linear" x1="18.2382" y1="124.578" x2="297.026" y2="249.54" gradientUnits="userSpaceOnUse">
<stop stop-color="#B22332"/>
<stop offset="1" stop-color="#6B172A"/>
</linearGradient>
<linearGradient id="paint7_linear" x1="-13.0928" y1="172.676" x2="265.591" y2="297.492" gradientUnits="userSpaceOnUse">
<stop stop-color="#B22332"/>
<stop offset="1" stop-color="#6B172A"/>
</linearGradient>
<linearGradient id="paint8_linear" x1="107.964" y1="790.25" x2="2979.66" y2="2305" gradientUnits="userSpaceOnUse">
<stop stop-color="#B22332"/>
<stop offset="1" stop-color="#6B172A"/>
</linearGradient>
<linearGradient id="paint9_linear" x1="42.8389" y1="249.421" x2="912.481" y2="708.136" gradientUnits="userSpaceOnUse">
<stop stop-color="#B22332"/>
<stop offset="1" stop-color="#6B172A"/>
</linearGradient>
<clipPath id="clip0">
<rect width="100" height="29" fill="white"/>
</clipPath>
</defs>
</svg>
