<svg width="24" height="24" viewBox="0 0 24 24" fill="none" xmlns="http://www.w3.org/2000/svg"><path d="M17.836 4.055V3.5a.5.5 0 00-.5-.5h-.055a.5.5 0 00-.5.5v.555H7.22V3.5a.5.5 0 00-.5-.5h-.055a.5.5 0 00-.5.5v.555H4.3a1.3 1.3 0 00-1.3 1.3V19.7A1.3 1.3 0 004.3 21h15.4a1.3 1.3 0 001.3-1.3V5.355a1.3 1.3 0 00-1.3-1.3h-1.864zM6.164 5.109v1.055H5.61a.5.5 0 00-.5.5v.055a.5.5 0 00.5.5h2.164a.5.5 0 00.5-.5v-.055a.5.5 0 00-.5-.5H7.22V5.11h9.562v1.055h-.554a.5.5 0 00-.5.5v.055a.5.5 0 00.5.5h2.164a.5.5 0 00.5-.5v-.055a.5.5 0 00-.5-.5h-.555V5.11h2.11v3.164H4.054V5.11h2.11zm-2.11 14.836V9.328h15.891v10.617H4.055z" fill="#FF9522"/><path d="M13.38 14.023c.3-.33.483-.77.483-1.25A1.865 1.865 0 0012 10.91a1.865 1.865 0 00-1.863 1.863c0 .48.182.92.482 1.25A2.389 2.389 0 0012 18.363a2.389 2.389 0 001.38-4.34zm-2.189-1.25a.81.81 0 011.618 0 .81.81 0 01-1.618 0zM12 17.31c-.737 0-1.336-.6-1.336-1.336A1.337 1.337 0 1112 17.31zm-6.363-3.2h2.11v1.054h-2.11V14.11zm.575 3.199l1.827-1.055.527.913-1.827 1.055-.527-.913zm0-5.345l.527-.914 1.827 1.055-.527.913-1.827-1.054zm10.042 2.146h2.11v1.054h-2.11V14.11zm-.819 3.058l.527-.913 1.827 1.054-.528.914-1.826-1.055zm0-5.063l1.826-1.054.528.913-1.827 1.055-.527-.914z" fill="#FF9522"/></svg>