<svg viewBox="0 0 40 40" xmlns="http://www.w3.org/2000/svg"><path d="M16.144 12.718V5a1 1 0 00-1-1h-3.636a1 1 0 00-1 1v7.718c0 2.765-1.205 4.216-2.601 5.898-1.423 1.712-3.034 3.653-3.034 7.095 0 .677.482 2.939 1.218 6.312.315 1.446.613 2.812.67 3.206a.939.939 0 00.929.806h11.272a.939.939 0 00.93-.806c.056-.394.354-1.76.67-3.206.735-3.373 1.218-5.635 1.218-6.312 0-3.441-1.612-5.383-3.035-7.095-1.396-1.682-2.601-3.134-2.601-5.898zm-3.757-4.964h2.147v4.964c0 1.274.221 2.343.572 3.27h-3.291c.35-.927.572-1.996.572-3.27V7.754zm2.147-2.197v2.197h-2.147V5.557h2.147zM8.46 34.477c-.095-.466-.628-3.29-.8-4.073h11.6c-.17.784-.725 3.607-.82 4.073H8.46zm10.8-4.073H7.661c-.419-1.933-.908-4.256-.91-4.693 0-2.765 1.206-4.216 2.601-5.897.543-.653 1.965-3.036 2.463-3.826h3.291c.498.79 1.92 3.173 2.463 3.826 1.395 1.681 2.6 3.133 2.6 5.897 0 .437-.49 2.76-.909 4.693zm5.517-5.492a1 1 0 00-.981 1.194l1.835 9.262a1 1 0 00.981.806h5.462a1 1 0 00.981-.806l1.836-9.262a1 1 0 00-.981-1.194h-9.133zm8.523 1.432l-.744 4.199H26.13l-.744-4.2H33.3zm-6.404 8.578l-.765-4.38h6.425l-.723 4.38h-4.937z" fill="#FF9522"/></svg>