<svg width="24" height="24" viewBox="0 0 24 24" fill="none" xmlns="http://www.w3.org/2000/svg"><path d="M9.128 15.2v-.01a10.392 10.392 0 00-.242-1.317 10.245 10.245 0 00-.933-2.37A9.444 9.444 0 016.8 7.066a1.396 1.396 0 000-2.525V3.2a.8.8 0 00-.8-.8H4.8a.8.8 0 00-.8.8v1.34a1.367 1.367 0 00-.8 1.26c0 .54.312 1.032.8 1.265a9.409 9.409 0 01-1.151 4.438 10.258 10.258 0 00-1.175 3.682l-.002.013v.005a9.96 9.96 0 00-.072 1.196v3.2a2.002 2.002 0 002 2h3.6a2.002 2.002 0 002-2v-3.2a10.17 10.17 0 00-.073-1.196v-.004zM2.4 16.4c0-.268.015-.535.04-.8h5.92c.022.266.04.533.04.8v2.4h-6v-2.4zM6 3.2v1.2H4.8V3.2H6zm-2.45 8.687A10.224 10.224 0 004.8 6.99v-.21a.4.4 0 00-.32-.392A.6.6 0 014.6 5.2h1.6a.6.6 0 01.12 1.188.4.4 0 00-.32.392v.212a10.25 10.25 0 001.248 4.896c.377.689.666 1.422.86 2.182.06.24.11.486.15.73H2.542a9.435 9.435 0 011.01-2.912zm3.65 8.912H3.6a1.2 1.2 0 01-1.2-1.2h6a1.2 1.2 0 01-1.2 1.2z" fill="#FF9522"/><path d="M22.4 0h-9.2a1.59 1.59 0 00-1.2.553A1.59 1.59 0 0010.8 0H1.6A1.6 1.6 0 000 1.6v20.8A1.6 1.6 0 001.6 24h9.2a1.59 1.59 0 001.2-.553c.3.35.739.552 1.2.553h9.2a1.6 1.6 0 001.6-1.6V1.6A1.6 1.6 0 0022.4 0zM10.8 23.2H1.6a.8.8 0 01-.8-.8V1.6a.8.8 0 01.8-.8h9.2a.8.8 0 01.8.8v1.632c-.912.15-1.6.795-1.6 1.568a.4.4 0 00.8 0c0-.34.34-.636.8-.75v1.582c-.912.15-1.6.795-1.6 1.568a.4.4 0 00.8 0c0-.34.34-.636.8-.75v1.582c-.912.15-1.6.795-1.6 1.568a.4.4 0 00.8 0c0-.34.34-.636.8-.75v1.582c-.912.15-1.6.795-1.6 1.568a.4.4 0 00.8 0c0-.34.34-.636.8-.75v1.582c-.912.15-1.6.795-1.6 1.568a.4.4 0 00.8 0c0-.34.34-.636.8-.75v1.582c-.912.15-1.6.795-1.6 1.568a.4.4 0 00.8 0c0-.34.34-.636.8-.75v1.582c-.912.15-1.6.795-1.6 1.568a.4.4 0 00.8 0c0-.34.34-.636.8-.75v3.95a.8.8 0 01-.8.8zm12.4-.8a.8.8 0 01-.8.8h-9.2a.8.8 0 01-.8-.8v-3.95c.46.114.8.41.8.75a.4.4 0 00.8 0c0-.773-.688-1.419-1.6-1.568v-1.581c.46.113.8.409.8.749a.4.4 0 00.8 0c0-.773-.688-1.419-1.6-1.568v-1.581c.46.113.8.409.8.749a.4.4 0 00.8 0c0-.773-.688-1.419-1.6-1.568v-1.581c.46.113.8.409.8.749a.4.4 0 00.8 0c0-.773-.688-1.419-1.6-1.568V8.851c.46.113.8.409.8.749a.4.4 0 00.8 0c0-.773-.688-1.419-1.6-1.568V6.451c.46.113.8.409.8.749a.4.4 0 00.8 0c0-.773-.688-1.419-1.6-1.568V4.051c.46.113.8.409.8.749a.4.4 0 00.8 0c0-.773-.688-1.419-1.6-1.568V1.6a.8.8 0 01.8-.8h9.2a.8.8 0 01.8.8v20.8z" fill="#FF9522"/><path d="M6 16.8H4.8a.4.4 0 000 .8H6a.4.4 0 000-.8zm14.4-9.2h-.8a.4.4 0 000 .8h.8a.4.4 0 000-.8zm-5.2.8H18a.4.4 0 000-.8h-2.8a.4.4 0 000 .8zm5.2 1.2h-.8a.4.4 0 000 .8h.8a.4.4 0 000-.8zm-5.2.8H18a.4.4 0 000-.8h-2.8a.4.4 0 000 .8zm5.2 1.2h-.8a.4.4 0 000 .8h.8a.4.4 0 000-.8zm-5.2.8H18a.4.4 0 000-.8h-2.8a.4.4 0 000 .8zm5.2 1.2h-.8a.4.4 0 000 .8h.8a.4.4 0 000-.8zm-5.2.8H18a.4.4 0 000-.8h-2.8a.4.4 0 000 .8zm5.2 1.2h-.8a.4.4 0 000 .8h.8a.4.4 0 000-.8zm-5.2.8H18a.4.4 0 000-.8h-2.8a.4.4 0 000 .8zm5.2 1.2h-.8a.4.4 0 000 .8h.8a.4.4 0 000-.8zm-2 .4a.4.4 0 00-.4-.4h-2.8a.4.4 0 000 .8H18a.4.4 0 00.4-.4zm0 2.8h-1.2a.4.4 0 000 .8h1.2a.4.4 0 000-.8zM16.8 3.6h2a.4.4 0 000-.8h-2a.4.4 0 000 .8zm-1.2 1.6H20a.4.4 0 000-.8h-4.4a.4.4 0 000 .8z" fill="#FF9522"/></svg>