<svg viewBox="0 0 26 25" xmlns="http://www.w3.org/2000/svg"><path fill-rule="evenodd" clip-rule="evenodd" d="M1.552.369a.8.8 0 000 1.6h2.257c.336 0 .498.136.574.361a143.647 143.647 0 01.725 2.224l.074.234.002.006 2.88 8.864c-.684 1.171-.595 2.262-.15 3.09.23.429.542.765.847 1 .153.117.315.217.476.29.147.067.354.14.583.14h11.306v-.8.8a.8.8 0 000-1.6H9.892a.934.934 0 01-.157-.1 1.55 1.55 0 01-.412-.486c-.17-.318-.28-.8.088-1.466l.83-.09 3.011-.328c2.397-.263 5.365-.594 7.646-.862.673-.08 1.315-.4 1.808-.786.48-.375.935-.903 1.1-1.495.53-1.895 1.226-5.229 1.361-5.882a.898.898 0 00-.869-1.08L6.532 3.755l-.093-.287c-.156-.486-.358-1.107-.54-1.647C5.576.853 4.733.369 3.81.369H1.552zm7.95 12.538l-2.45-7.544 16.374.228c-.27 1.274-.767 3.536-1.16 4.944-.038.136-.206.4-.544.665-.325.254-.698.42-1.01.457-2.275.267-5.238.597-7.633.86-1.198.132-2.253.247-3.009.329l-.566.06zm.415 3.682l.006.002H9.92l-.004-.002zm-1.269 7.868a2.5 2.5 0 100-5 2.5 2.5 0 000 5zm0-1.4a1.1 1.1 0 100-2.2 1.1 1.1 0 000 2.2zm10.592 1.4a2.5 2.5 0 100-5 2.5 2.5 0 000 5zm0-1.4a1.1 1.1 0 100-2.2 1.1 1.1 0 000 2.2z"/></svg>