<svg viewBox="0 0 40 40" xmlns="http://www.w3.org/2000/svg"><path d="M32.268 20.935a15.213 15.213 0 00-4.498-9.679 15.208 15.208 0 00-9.339-4.36 2.023 2.023 0 10-2.863 0 15.209 15.209 0 00-9.338 4.36 15.213 15.213 0 00-4.498 9.68H.015v1.607h3.467V24l4.74 2.363L19.95 28.18l.04.005c.004 0 .409.058.794.273.574.32.647.732.647 1.056v.47h-.763V36h10.83v-6.017H30.38v-5.44l-2.032-2h5.636v-1.608h-1.717zm-12.49 5.658L8.39 24.828l-3.3-1.645v-.64h20.768l2.916 2.871v4.57H23.51l-.472.001c0-2.372-2.12-3.253-3.26-3.392zm10.111 5.036v2.763h-7.613v-2.763h7.613zm-3.652-10.694H3.347C3.965 14.215 10.142 8.438 17 8.438c6.858 0 13.035 5.777 13.653 12.497h-4.416z" fill="#FF9522"/></svg>