<svg viewBox="0 0 24 24" xmlns="http://www.w3.org/2000/svg"><g fill-rule="evenodd" clip-rule="evenodd"><path d="M18.613 19.702l.004-.002-1.157-4.481c-.228-.884-.458-1.511-.708-1.965-.558-1.014-1.22-1.163-2.196-1.384-.146-.034-.3-.068-.461-.108-3.362-.792-3.618-6.543-2.517-10.008l5.683-1.61c2.622 2.418 5.169 7.52 2.644 9.972-.125.125-.245.24-.359.351-.727.703-1.222 1.18-1.218 2.342.001.523.104 1.185.333 2.07l1.167 4.522c.076.27.225.612.454.87.055.062.114.119.178.169a.964.964 0 00.894.171l1.555-.44c.354-.1.72.12.815.49.096.372-.114.754-.468.854l-6.575 1.863a.662.662 0 01-.815-.49c-.095-.372.114-.754.468-.855l1.554-.44c.252-.071.432-.207.556-.377.104-.142.169-.309.206-.483.072-.334.04-.696-.021-.967l-.006-.023a1.89 1.89 0 00-.01-.041zm-.23-10.315c-.41.394-.981.943-1.328 1.76-.7-.53-1.468-.702-2.019-.825l-.103-.023a25.291 25.291 0 01-.434-.102l-.014-.003c-.746-.176-1.444-.971-1.756-2.746-.246-1.399-.163-3.029.14-4.397l3.9-1.105c.923 1.024 1.78 2.39 2.24 3.728.586 1.699.365 2.75-.193 3.292l-.01.009-.008.009c-.113.112-.222.218-.338.33l-.076.073z"/><path d="M3.675 19.653h.004l.532-4.6c.105-.91.117-1.58.047-2.1-.155-1.159-.714-1.562-1.54-2.16a29.407 29.407 0 01-.39-.284C-.506 8.425 1.317 3.016 3.58.263l5.848.802c1.565 3.286 2.1 9.018-1.12 10.264-.161.065-.314.124-.46.18-.925.355-1.555.596-1.968 1.667-.186.484-.328 1.137-.433 2.046l-.538 4.643c-.027.28-.01.656.11.986.029.08.063.156.105.228a1.002 1.002 0 00.767.517l1.6.219c.364.05.624.4.58.78a.664.664 0 01-.74.6l-6.765-.928c-.365-.05-.625-.4-.58-.78a.664.664 0 01.74-.6l1.598.219a.966.966 0 00.65-.123c.147-.09.267-.217.364-.362a2.27 2.27 0 00.328-.903l.003-.023a2.23 2.23 0 00.006-.042zm3.48-9.607c-.52.198-1.247.474-1.86 1.086-.46-.769-1.11-1.237-1.576-1.572l-.088-.063c-.125-.09-.244-.176-.367-.268l-.011-.008c-.629-.463-.991-1.478-.645-3.243.273-1.389.934-2.86 1.706-4l4.011.55c.489 1.317.794 2.922.742 4.342-.066 1.804-.648 2.685-1.36 2.96l-.01.005-.012.005c-.145.058-.285.112-.432.168l-.097.038z"/></g></svg>