<svg width="14" height="14" viewBox="0 0 14 14" xmlns="http://www.w3.org/2000/svg"><g clip-path="url(#clip0)"><path d="M13.48 0H.574a.547.547 0 00-.547.547c0 1.523.653 2.977 1.791 3.989l2.395 2.128c.416.37.654.9.654 1.456v5.333c0 .435.487.697.85.454l3.227-2.15a.547.547 0 00.243-.455V8.12c0-.556.238-1.087.654-1.456l2.395-2.128a5.341 5.341 0 001.79-3.99A.547.547 0 0013.48 0zm-1.971 3.718L9.114 5.847a3.043 3.043 0 00-1.02 2.272v2.89L5.96 12.43V8.12c0-.868-.372-1.697-1.021-2.273L2.545 3.718a4.248 4.248 0 01-1.389-2.624h11.742a4.247 4.247 0 01-1.39 2.624z" fill="#fff"/></g><defs><clipPath id="clip0"><path fill="#fff" d="M0 0h14v14H0z"/></clipPath></defs></svg>