<svg viewBox="0 0 34 30" xmlns="http://www.w3.org/2000/svg"><path d="M25.522 19.551l-6.581-6.75a7.395 7.395 0 01-1.403-8.237l1.477-3.177A.975.975 0 0018.131 0H8.667a.976.976 0 00-.884 1.387L9.26 4.564A7.395 7.395 0 017.857 12.8l-6.581 6.75A3.84 3.84 0 00.18 22.246c0 1.394.754 2.683 1.97 3.366l3.345 1.88a16.17 16.17 0 007.904 2.068 16.17 16.17 0 007.904-2.068l3.346-1.88a3.865 3.865 0 001.97-3.366 3.84 3.84 0 00-1.097-2.695zM8.577 14.163a9.266 9.266 0 002.51-4.934 9.267 9.267 0 00-.735-5.488l-.8-2.354 7.665.009-.865 2.354a9.268 9.268 0 00-.736 5.488 9.267 9.267 0 002.511 4.934l5.072 5.202-19.694-.009 5.072-5.202zm15.7 9.757L20.93 25.8c-2.117 1.19-5.104 2.282-7.532 2.282-2.429 0-5.51-1.102-7.626-2.291l-3.346-1.88a1.911 1.911 0 01-.974-1.665c0-.33 1.894-2.599 2.052-2.88l19.694.008c.157.282 2.052 2.55 2.052 2.881 0 .69-.374 1.327-.974 1.665zm9.07-22.444a1.123 1.123 0 00-.874-.283l-1.255.138A8.964 8.964 0 0028.006.74h-.393c-1.103 0-2.183.2-3.212.592l-1.255-.138a1.122 1.122 0 00-.874.283 1.138 1.138 0 00-.374.844v2.202c0 .317.133.622.365.836.232.214.545.321.859.293L24.4 5.54c.742.272 1.51.443 2.293.513v3.092a.46.46 0 00.457.462.98.98 0 00-.078.376c0 .21.074.423.22.63.107.153.243.29.375.425.105.105.213.214.275.303.045.065.05.095.05.095a.26.26 0 01-.05.098c-.062.089-.17.198-.275.304-.132.133-.268.27-.376.424a1.096 1.096 0 00-.219.63c0 .211.074.424.22.63.107.154.243.292.375.425.104.105.213.214.275.303.045.065.05.096.05.096a.265.265 0 01-.05.098c-.062.089-.17.198-.275.304-.132.133-.268.27-.376.423-.145.207-.219.42-.219.63 0 .212.074.424.22.631a.459.459 0 00.64.112.465.465 0 00.111-.645c-.045-.065-.05-.096-.05-.096 0-.002.004-.033.05-.098.063-.089.17-.198.275-.304.132-.132.268-.27.376-.423.145-.207.219-.42.219-.63 0-.212-.074-.424-.22-.632a3.386 3.386 0 00-.375-.424c-.104-.105-.212-.214-.275-.303a.283.283 0 01-.05-.096c0-.002.004-.032.05-.098a2.74 2.74 0 01.276-.303c.131-.133.267-.27.375-.424.145-.207.219-.42.219-.63a1.09 1.09 0 00-.22-.631 3.385 3.385 0 00-.375-.424 2.76 2.76 0 01-.275-.304c-.045-.065-.05-.095-.05-.095a.26.26 0 01.05-.098c.058-.082.154-.18.25-.278h.171c.255 0 .46-.208.46-.463V6.04a8.963 8.963 0 002.293-.545l1.255.138c.318.035.636-.068.874-.283.238-.215.375-.522.375-.844V2.32c0-.321-.137-.63-.375-.844zm-5.733 7.205V6.087h.391v2.594h-.391zm5.184-4.432a.206.206 0 01-.228.206l-1.367-.15a.458.458 0 00-.219.03c-.812.322-1.66.603-2.528.651H27.15a.458.458 0 00-.052.004c-.816-.04-1.616-.297-2.387-.579l-.095-.035a.457.457 0 00-.197-.026l-1.381.122a.206.206 0 01-.224-.206l.007-1.764a.206.206 0 01.228-.206l1.367.15a.457.457 0 00.219-.029 8.056 8.056 0 012.981-.57h.394c1.025 0 2.028.192 2.981.57.07.028.145.038.22.03l1.366-.15a.206.206 0 01.228.206l-.007 1.746z" fill="#FF9522"/></svg>