<svg viewBox="0 0 34 34" xmlns="http://www.w3.org/2000/svg"><path d="M26.956 12.062c-2.883-3.184-4.596-5.987-5.526-7.777-1.007-1.94-1.337-3.142-1.34-3.152L19.792 0l-1.07.477c-.125.056-3.083 1.405-4.74 4.719-.831 1.664-.998 3.516-.99 4.777a1.54 1.54 0 01-2.626 1.094L8.371 9.073l-.686.946c-.07.098-1.747 2.41-2.052 2.872a13.554 13.554 0 00-2.247 7.598 13.532 13.532 0 004.016 9.568A13.537 13.537 0 0017 34c7.507 0 13.614-6.107 13.614-13.614 0-2.722-1.333-5.756-3.658-8.324zM17 32.006a11.555 11.555 0 01-8.193-3.365 11.55 11.55 0 01-3.427-8.167 11.565 11.565 0 011.917-6.484c.155-.235.778-1.104 1.318-1.853l.34.34a3.525 3.525 0 003.19.966 3.537 3.537 0 002.84-3.481c-.007-1.044.124-2.563.78-3.874.798-1.597 1.991-2.64 2.82-3.22.75 1.907 2.65 5.848 6.892 10.532.945 1.044 3.143 3.814 3.143 6.986 0 6.407-5.213 11.62-11.62 11.62z"/><path d="M19.02 16.916l-6.25 9.154h2.21l6.252-9.155h-2.21zm1.335 4.184c-1.387 0-2.433.93-2.433 2.551 0 1.635 1.046 2.55 2.433 2.55 1.386 0 2.433-.915 2.433-2.55 0-1.622-1.047-2.55-2.433-2.55zm0 3.689c-.288 0-.576-.262-.576-1.138 0-.876.288-1.138.576-1.138.287 0 .575.262.575 1.138 0 .876-.288 1.138-.575 1.138zm-4.277-5.454c0-1.622-1.046-2.55-2.433-2.55-1.386 0-2.432.928-2.432 2.55 0 1.635 1.046 2.55 2.432 2.55 1.387 0 2.433-.915 2.433-2.55zm-3.008 0c0-.876.288-1.138.575-1.138.288 0 .576.262.576 1.138 0 .877-.288 1.138-.576 1.138-.287 0-.575-.261-.575-1.138z"/></svg>