<svg viewBox="0 0 16 16" xmlns="http://www.w3.org/2000/svg"><path d="M14.26 0H6.608A1.74 1.74 0 004.87 1.74v4.173c0 .192.317.352.51.352.191 0 .488-.16.488-.352V2c0-.575.468-1.043 1.043-1.043H14c.575 0 1.043.468 1.043 1.043v12c0 .575-.468 1.043-1.043 1.043H6.91A1.045 1.045 0 015.867 14v-3.842c0-.192-.176-.416-.489-.416-.312 0-.509.224-.509.416v4.103c0 .958.78 1.739 1.74 1.739h7.651c.959 0 1.74-.78 1.74-1.74V1.74C16 .78 15.22 0 14.26 0z"/><path d="M11.478 7.54l-11.13.033C.156 7.573 0 7.808 0 8s.156.434.348.434h11.13c.192 0 .348-.242.348-.434s-.156-.46-.348-.46z"/><path d="M11.822 7.755L9.735 5.668c-.135-.136-.455-.136-.59 0a.348.348 0 000 .492L10.985 8l-1.84 1.841c-.136.136-.097.394.038.53.136.136.435.08.552-.037l2.087-2.087a.348.348 0 000-.492z"/></svg>