<svg width="24" height="24" viewBox="0 0 24 24" fill="none" xmlns="http://www.w3.org/2000/svg"><g clip-path="url(#clip0)"><path d="M5.862 19.456l.36 2.8c.132.997.98 1.742 1.986 1.744h7.584a2.008 2.008 0 001.985-1.745l.36-2.8c.17-.137.341-.285.52-.457a8.024 8.024 0 002.543-5.384.734.734 0 00-.205-.547.88.88 0 00-.64-.267h-1.36l.158-1.215A1.384 1.384 0 0020.4 10.2 1.4 1.4 0 0019 8.8h-1.572a9.32 9.32 0 01.543-1.952l.566-1.418a1.395 1.395 0 00.615-2.605l.454-1.131a.8.8 0 00-.445-1.04L17.676.058a.8.8 0 00-1.04.444l-.454 1.132a1.409 1.409 0 00-.88.066 1.4 1.4 0 00-.475 2.24l-.57 1.42c-.152.375-.327.74-.526 1.093A1.193 1.193 0 0012.8 6H9.6a1.2 1.2 0 00-1.2 1.2v1.6H5a1.396 1.396 0 00-.154 2.784l.157 1.216h-1.36a.88.88 0 00-.64.267.733.733 0 00-.203.546 8.021 8.021 0 002.539 5.383c.18.176.354.324.523.46zm4.153-.256h.098c.25 0 .498-.059.722-.17.23-.115.5-.115.73 0 .224.111.47.17.722.17h.098A1.617 1.617 0 0014 17.585V11.6h4.345l-.958 7.424a9.06 9.06 0 01-10.774 0L5.655 11.6H8.4v5.985a1.617 1.617 0 001.615 1.615zm6.968 2.952a1.205 1.205 0 01-1.191 1.048H8.208a1.205 1.205 0 01-1.191-1.047l-.266-2.059a9.904 9.904 0 0010.498 0l-.266 2.058zm3.373-8.552a.12.12 0 01.042.008 7.193 7.193 0 01-2.101 4.614l.596-4.622h1.463zm-.756-3.4a.597.597 0 01-.6.6h-5V9.6h5a.6.6 0 01.6.6zM17.378.8l1.485.596-.446 1.113-1.485-.597L17.378.8zM15 5.657l.52-1.293.37.148a.4.4 0 10.299-.742l-.64-.256c-.01-.007-.016-.017-.025-.024a.6.6 0 01.556-1.059l.175.07c.003 0 .005.005.009.007l2.226.892.185.074a.6.6 0 01-.333 1.147h-.031l-.64-.256a.4.4 0 00-.298.743l.37.148-.516 1.294a10.132 10.132 0 00-.607 2.25H14V7.542a10.14 10.14 0 001-1.885zM9.2 7.2a.4.4 0 01.4-.4h3.2c.22 0 .4.18.4.4v10.385c0 .45-.365.815-.815.815h-.098a.814.814 0 01-.365-.086 1.62 1.62 0 00-1.445 0 .815.815 0 01-.364.086h-.098a.816.816 0 01-.815-.815V7.2zm-4.8 3a.597.597 0 01.6-.6h3.4v1.2H5a.6.6 0 01-.6-.6zm-.756 3.4h1.462l.597 4.622A7.194 7.194 0 013.6 13.608a.104.104 0 01.044-.008z" fill="#FF9522"/></g><defs><clipPath id="clip0"><path fill="#fff" d="M0 0h24v24H0z"/></clipPath></defs></svg>