<svg width="24" height="24" viewBox="0 0 24 24" fill="none" xmlns="http://www.w3.org/2000/svg"><g clip-path="url(#clip0)" fill="#FF9522"><path d="M12.8 16.8h-1.6a.4.4 0 000 .8h1.6a.4.4 0 000-.8zm0 1.6h-1.6a.4.4 0 000 .8h1.6a.4.4 0 000-.8z"/><path d="M22 21.2v-4.4a.384.384 0 00-.015-.074 10.096 10.096 0 00-1.234-4.422A9.446 9.446 0 0119.6 7.792v-.326a1.397 1.397 0 00-.4-2.646V3.6a.8.8 0 00-.8-.8h-1.2a.8.8 0 00-.8.8v1.22a1.385 1.385 0 00-1.2 1.38c.001.54.312 1.033.8 1.266v.326a9.295 9.295 0 01-.622 3.361c-.073-.15-.146-.3-.227-.449A9.446 9.446 0 0114 6.192V4.666a1.397 1.397 0 00-.4-2.646V.8a.8.8 0 00-.8-.8h-1.6a.8.8 0 00-.8.8v1.22A1.384 1.384 0 009.2 3.4c.001.54.312 1.032.8 1.265v1.527c0 .786-.099 1.568-.292 2.33a9.436 9.436 0 01-.86 2.182 9.85 9.85 0 00-.224.445A9.473 9.473 0 018 7.792v-.326a1.397 1.397 0 00-.4-2.646V3.6a.8.8 0 00-.8-.8H5.6a.8.8 0 00-.8.8v1.22A1.385 1.385 0 003.6 6.2c.001.54.312 1.033.8 1.266v.326c0 .786-.099 1.568-.292 2.33a9.436 9.436 0 01-.86 2.182 10.25 10.25 0 00-1.233 4.422A.38.38 0 002 16.8V22a2.002 2.002 0 002 2h16a2.002 2.002 0 002-2v-.8zm-.8-.4h-4.8v-3.6h4.8v3.6zM2.8 17.2h4.8v3.6H2.8v-3.6zM8.4 16h7.2v4H8.4v-4zm8.8-12.4h1.2v1.2h-1.2V3.6zm-.716 6.718c.21-.826.315-1.674.316-2.526V7.6h.4a.4.4 0 000-.8h-.69a.285.285 0 00-.03-.012.6.6 0 01.12-1.188H19a.6.6 0 01.12 1.188c-.011.002-.02.009-.03.012h-.69a.4.4 0 000 .8h.4v.192c.001 1.71.43 3.393 1.249 4.896.376.688.665 1.421.86 2.182.124.502.209 1.014.251 1.53H16.4v-.8c0-.852-.107-1.7-.316-2.526a9.869 9.869 0 00-.278-.895c.286-.597.513-1.22.678-1.861zM11.2.8h1.6V2h-1.6V.8zm-.716 7.918c.21-.826.315-1.674.316-2.526V4.8h.4a.4.4 0 000-.8h-.69c-.01-.003-.02-.01-.03-.012A.6.6 0 0110.6 2.8h2.8a.6.6 0 01.12 1.188c-.011.002-.02.009-.03.012h-.69a.4.4 0 000 .8h.4v1.392a10.25 10.25 0 001.249 4.895c.376.69.665 1.422.86 2.183a9.58 9.58 0 01.28 1.93H8.412c.06-1.44.45-2.847 1.138-4.113.409-.748.722-1.544.933-2.37zM5.6 3.6h1.2v1.2H5.6V3.6zm-1.649 9.087A10.217 10.217 0 005.2 7.792V7.6h.4a.4.4 0 000-.8h-.69a.288.288 0 00-.03-.012A.6.6 0 015 5.6h2.4a.6.6 0 01.12 1.188c-.011.002-.02.009-.03.012H6.8a.4.4 0 000 .8h.4v.192c.004 1.518.344 3.017.995 4.388A10.24 10.24 0 007.6 15.6v.8H2.84a9.452 9.452 0 011.111-3.713zM2.8 22v-.4h4.8v.4c.001.434.146.856.41 1.2H4A1.2 1.2 0 012.8 22zm10.8 1.2h-4A1.2 1.2 0 018.4 22v-1.2h7.2V22a1.2 1.2 0 01-1.2 1.2h-.8zm6.4 0h-4.01a1.98 1.98 0 00.41-1.2v-.4h4.8v.4a1.2 1.2 0 01-1.2 1.2z"/><path d="M17.2 18.8h1.2a.4.4 0 000-.8h-1.2a.4.4 0 000 .8zm-11.6 0h1.2a.4.4 0 000-.8H5.6a.4.4 0 000 .8zm12.8.4h-1.2a.4.4 0 000 .8h1.2a.4.4 0 000-.8zm-11.6 0H5.6a.4.4 0 000 .8h1.2a.4.4 0 000-.8z"/></g><defs><clipPath id="clip0"><path fill="#fff" d="M0 0h24v24H0z"/></clipPath></defs></svg>