<svg viewBox="0 0 24 24" xmlns="http://www.w3.org/2000/svg"><path d="M23.977 9.354l-1.5-6a.75.75 0 00-.727-.569H2.25a.75.75 0 00-.728.569l-1.5 6A.734.734 0 000 9.535c0 1.257.596 2.366 1.5 3.047v10.453c0 .414.336.75.75.75h7.5a.75.75 0 00.75-.75v-5.25h3v5.25c0 .414.336.75.75.75h7.5a.75.75 0 00.75-.75V12.582A3.804 3.804 0 0024 9.535a.734.734 0 00-.023-.181zM21 22.285h-6v-5.25a.75.75 0 00-.75-.75h-4.5a.75.75 0 00-.75.75v5.25H3v-9.06c.184.032.37.06.563.06 1.142 0 2.16-.568 2.812-1.45.652.882 1.67 1.45 2.813 1.45 1.143 0 2.16-.568 2.812-1.45.652.882 1.67 1.45 2.813 1.45 1.143 0 2.16-.568 2.812-1.45.652.882 1.67 1.45 2.813 1.45.192 0 .378-.028.562-.06v9.06zm-.563-10.5c-1.137 0-2.062-1.01-2.062-2.25a.75.75 0 00-1.5 0c0 1.24-.925 2.25-2.063 2.25-1.136 0-2.062-1.01-2.062-2.25a.75.75 0 00-1.5 0c0 1.24-.925 2.25-2.063 2.25-1.136 0-2.062-1.01-2.062-2.25a.75.75 0 00-1.5 0c0 1.24-.926 2.25-2.063 2.25-1.11 0-2.018-.963-2.06-2.163l1.335-5.337h18.328L22.5 9.622c-.044 1.2-.953 2.163-2.063 2.163z"/></svg>