<svg width="24" height="24" viewBox="0 0 24 24" fill="none" xmlns="http://www.w3.org/2000/svg"><g clip-path="url(#clip0)" fill="#FF9522"><path d="M8.8 11.2H3.2a.4.4 0 00-.4.4v4a.4.4 0 00.4.4h5.6a.4.4 0 00.4-.4v-4a.4.4 0 00-.4-.4zm-.4 4H3.6V12h4.8v3.2z"/><path d="M6.8 14.4a.4.4 0 00.4-.4v-.8a.4.4 0 00-.8 0v.8c0 .22.18.4.4.4zm-1.6 0a.4.4 0 00.4-.4v-.8a.4.4 0 00-.8 0v.8c0 .22.179.4.4.4zm3.6-5.2a.4.4 0 00.4-.4v-.4a.4.4 0 00-.8 0v.4c0 .22.178.4.4.4zm-1.6 0a.4.4 0 00.4-.4v-.4a.4.4 0 00-.8 0v.4c0 .22.179.4.4.4z"/><path d="M23.043 2.104l-1.211.24a1.396 1.396 0 00-2.497.056h-.971a2.969 2.969 0 01-1.248-.28 2.878 2.878 0 01-1.008-.776A3.724 3.724 0 0013.236 0H6a2.002 2.002 0 00-2 2v2.8a2.002 2.002 0 00-2 2v2.8a2.002 2.002 0 00-2 2v4a2.002 2.002 0 002 2h7.24a3.726 3.726 0 002.87-1.344 2.923 2.923 0 011.87-1.028 1.98 1.98 0 01-.565 1.193 2.808 2.808 0 00-.545 3.165l-.465.4a1.6 1.6 0 000 2.43l1.4 1.2c.29.248.658.384 1.04.385H22.4a1.6 1.6 0 001.6-1.6V20a1.6 1.6 0 00-1.6-1.6h-7.556a1.6 1.6 0 00-1.04.385l-.296.254a2.007 2.007 0 01.472-2.052 2.779 2.779 0 00.81-1.787h.544c.218.462.671.768 1.181.798.376.02.744-.116 1.015-.377a1.49 1.49 0 00.28-.371l1.235.246a.795.795 0 00.955-.784v-2.224a.8.8 0 00-.957-.784l-1.211.242a1.395 1.395 0 00-2.497.054h-.973c-.239 0-.477-.03-.708-.09.164-.138.316-.29.454-.454a2.925 2.925 0 012.256-1.056h.97a1.408 1.408 0 001.186.8 1.36 1.36 0 001.014-.38c.111-.109.204-.233.276-.37l1.235.247A.795.795 0 0022 9.912V7.688a.8.8 0 00-.957-.784l-1.211.242a1.396 1.396 0 00-2.497.054h-.971a2.938 2.938 0 01-.709-.09c.164-.139.315-.29.453-.454A2.925 2.925 0 0118.364 5.6h.97a1.408 1.408 0 001.186.8 1.371 1.371 0 001.29-.75l1.235.247A.795.795 0 0024 5.112V2.888a.8.8 0 00-.957-.784zm-8.2 17.096H22.4a.8.8 0 01.8.8v2.4a.8.8 0 01-.8.8h-7.556a.802.802 0 01-.52-.192l-1.4-1.2a.8.8 0 010-1.216l.385-.33c.035.04.067.08.105.117l.307.307a1.18 1.18 0 00-.121.514 1.2 1.2 0 101.2-1.2 1.18 1.18 0 00-.514.12l-.307-.307c-.023-.023-.042-.048-.064-.071l.408-.35a.8.8 0 01.52-.192zm-.323 1.72l.003-.004a.403.403 0 11-.007.007l.004-.003zm-3.028-5.176A2.926 2.926 0 019.24 16.8H2a1.2 1.2 0 01-1.2-1.2v-4A1.2 1.2 0 012 10.4h7.24a2.926 2.926 0 012.254 1.056 3.726 3.726 0 001.148.919c.423.22.884.358 1.358.405v1.64a3.72 3.72 0 00-2.508 1.324zM10.4 9.787A3.736 3.736 0 009.24 9.6H5.6V7.2h4.8v2.587zm8.8 2.701v2.224l-1.2-.24v-1.744l1.2-.24zm-3.6.712a.4.4 0 00.4-.4v-.29a.28.28 0 00.012-.03.6.6 0 011.188.12v1.935c0 .19-.08.373-.218.503a.56.56 0 01-.419.16.598.598 0 01-.551-.48.262.262 0 00-.012-.028v-.29a.4.4 0 00-.8 0h-.4v-1.6h.4c0 .22.18.4.4.4zm5.6-5.512v2.224l-1.2-.24V7.928l1.2-.24zM17.2 8a.4.4 0 00.8 0v-.29a.284.284 0 00.012-.03.6.6 0 011.188.12v1.935c0 .19-.08.372-.217.502a.563.563 0 01-.418.163.6.6 0 01-.553-.48.268.268 0 00-.012-.03V9.6a.4.4 0 00-.8 0h-.836a3.724 3.724 0 00-2.872 1.344c-.197.237-.43.44-.692.604a2.93 2.93 0 01-.692-.604 3.74 3.74 0 00-.908-.787V6.8a.4.4 0 00-.4-.4H5.2a.4.4 0 00-.4.4v2.8h-2V6.8A1.2 1.2 0 014 5.6h7.236c.872-.002 1.7.385 2.256 1.056.3.36.666.658 1.078.88a.413.413 0 00.088.047c.04.02.08.045.12.064A3.769 3.769 0 0016.364 8h.836zm-4.8-3.013a3.746 3.746 0 00-1.164-.187H7.6V2.4h4.8v2.587zm8.165.613a.6.6 0 01-.553-.48.268.268 0 00-.012-.03V4.8a.4.4 0 00-.8 0h-.836a3.724 3.724 0 00-2.872 1.344c-.197.237-.43.44-.692.604a2.883 2.883 0 01-.692-.604 3.725 3.725 0 00-.908-.787V2a.4.4 0 00-.4-.4H7.2a.4.4 0 00-.4.4v2.8h-2V2A1.2 1.2 0 016 .8h7.236c.872-.002 1.7.385 2.256 1.056.35.422.789.76 1.286.99a3.769 3.769 0 001.586.354h.836a.4.4 0 00.8 0v-.29a.284.284 0 00.012-.03A.6.6 0 0121.2 3v1.936c0 .19-.08.371-.217.502a.56.56 0 01-.418.162zm2.635-.488l-1.2-.24V3.128l1.2-.24v2.224z"/><path d="M10.8 4.4a.4.4 0 00.4-.4v-.4a.4.4 0 00-.8 0V4c0 .221.18.4.4.4zm-1.6 0a.4.4 0 00.4-.4v-.4a.4.4 0 00-.8 0V4a.4.4 0 00.4.4zm8 16.4h4.4a.4.4 0 000-.8h-4.4a.4.4 0 000 .8zm0 1.6h2.4a.4.4 0 000-.8h-2.4a.4.4 0 000 .8z"/></g><defs><clipPath id="clip0"><path fill="#fff" d="M0 0h24v24H0z"/></clipPath></defs></svg>