<svg viewBox="0 0 40 40" xmlns="http://www.w3.org/2000/svg"><path d="M11.201 11.99V4.834a.87.87 0 00-.87-.87H7.175a.87.87 0 00-.87.87v7.158a4.798 4.798 0 00-2.346 4.122v18.329c0 .88.715 1.596 1.595 1.596h6.398c.88 0 1.596-.716 1.596-1.596v-18.33a4.798 4.798 0 00-2.347-4.122zm1.135 21.853a1 1 0 01-1 1H6.17a1 1 0 01-1-1v-17.73c0-1.21.717-2.308 1.826-2.796a.87.87 0 00.52-.797V6.199a1 1 0 011-1h.474a1 1 0 011 1v6.321a.87.87 0 00.52.797 3.056 3.056 0 011.826 2.796v17.73zM22.427 11.99V4.834a.87.87 0 00-.87-.87h-3.155a.87.87 0 00-.871.87v7.158a4.798 4.798 0 00-2.346 4.122v18.329c0 .88.715 1.596 1.595 1.596h6.398c.88 0 1.596-.716 1.596-1.596v-18.33a4.798 4.798 0 00-2.347-4.122zm1.135 21.853a1 1 0 01-1 1h-5.166a1 1 0 01-1-1v-17.73c0-1.21.717-2.308 1.826-2.796a.87.87 0 00.52-.797V6.199a1 1 0 011-1h.474a1 1 0 011 1v6.321a.87.87 0 00.52.797 3.056 3.056 0 011.826 2.796v17.73zM33.654 11.99V4.834a.87.87 0 00-.87-.87h-3.156a.87.87 0 00-.87.87v7.158a4.798 4.798 0 00-2.347 4.122v18.329c0 .88.716 1.596 1.596 1.596h6.397c.88 0 1.596-.716 1.596-1.596v-18.33a4.798 4.798 0 00-2.346-4.122zm1.134 21.853a1 1 0 01-1 1h-5.165a1 1 0 01-1-1v-17.73c0-1.21.716-2.308 1.826-2.796a.87.87 0 00.52-.797V6.199a1 1 0 011-1h.473a1 1 0 011 1v6.321a.87.87 0 00.52.797 3.056 3.056 0 011.826 2.796v17.73z" fill="#FF9522"/></svg>