<svg viewBox="0 0 16 16" xmlns="http://www.w3.org/2000/svg"><path d="M13.138 2.862L10.471.195a.658.658 0 00-.048-.044l-.024-.018-.029-.02-.029-.018-.027-.016-.03-.015-.029-.013-.03-.011-.031-.011-.03-.008-.034-.008-.035-.006c-.01 0-.02-.003-.03-.004a.67.67 0 00-.13 0l-.03.004-.035.006-.033.008-.03.008-.032.01-.03.012-.029.013-.03.015-.027.016a.228.228 0 00-.03.017l-.028.021-.023.018a.663.663 0 00-.049.044L6.862 2.862a.667.667 0 10.943.943l1.528-1.529V10a.667.667 0 001.334 0V2.276l1.528 1.529a.667.667 0 10.943-.943zm-4.943 9.333l-1.528 1.529V6a.667.667 0 10-1.334 0v7.724l-1.528-1.529a.667.667 0 10-.943.943l2.667 2.667c.015.015.032.03.049.044l.023.018.029.02.029.018.027.016.03.015.029.013.03.011a.24.24 0 00.032.011l.03.008.033.008.035.005a.673.673 0 00.16.004c.01 0 .02-.002.03-.004l.035-.005.033-.008.03-.008.032-.011.03-.01.029-.014.03-.015.027-.016.03-.017.028-.021.024-.018a.707.707 0 00.048-.044l2.667-2.667a.667.667 0 10-.943-.943z"/></svg>