<svg viewBox="0 0 40 41" xmlns="http://www.w3.org/2000/svg"><path fill-rule="evenodd" clip-rule="evenodd" d="M25.362 37.225a.693.693 0 010-1.386h1.29c.275 0 .491-.083.662-.214a1.28 1.28 0 00.364-.475 2.27 2.27 0 00.195-.869v-2.558c0-.787-.062-1.45-.167-2.019-.29-1.562-.908-2.416-1.473-3.198-.08-.11-.158-.218-.234-.327-3.564-5.08-1.13-11.11-1.13-11.11h7.255s2.433 6.03-1.132 11.11l-.197.278c-.57.794-1.183 1.65-1.467 3.242-.102.57-.162 1.235-.162 2.024v2.496a2.224 2.224 0 00.003.1c.011.25.066.557.194.83.085.184.204.352.364.476.17.131.387.214.662.214h1.427a.693.693 0 110 1.386h-6.454zM28.505 27.1c-.335-.652-.717-1.178-1.005-1.574l-.191-.267c-1.5-2.138-1.762-4.505-1.616-6.419a12.98 12.98 0 01.354-2.171h4.898c.141.558.288 1.307.354 2.17.146 1.915-.116 4.282-1.616 6.42l-.17.239c-.293.405-.674.935-1.008 1.602zm2.134-11.434l-.001-.003v.001l.001.002zM17.502 3.9v.017c.003.051.007.123.009.205.004.154.006.383-.017.582a2.037 2.037 0 01-.113.461l-.008.026-.003.009.003.008c.034.08.111.263.125.505.017.3-.07.529-.11.637l-.003.008-.017.047a2.883 2.883 0 00.021.063c.035.098.105.296.11.552.008.408-.145.71-.222.863l-.01.017a1.253 1.253 0 00-.065.142c0 2.953 0 4.423.447 7.156.186 1.142.564 1.967 1.01 2.85l.144.282c.413.81.874 1.716 1.202 2.904.091.33.184.638.274.938.344 1.142.646 2.147.646 3.637v9.57c0 1.002-.768 1.964-1.897 1.964h-7.992c-.99 0-2.126-.705-2.126-1.965v-9.569c0-1.417.334-2.419.686-3.473.119-.358.24-.721.35-1.109.332-1.162.742-2.058 1.117-2.878l.125-.275c.406-.896.767-1.749 1.005-2.908.425-2.072.456-3.39.5-5.264.013-.565.028-1.182.055-1.884a1.526 1.526 0 00-.058-.129l-.01-.019a1.732 1.732 0 01-.206-.872c.013-.264.096-.468.135-.562a7.311 7.311 0 01.01-.027.818.818 0 00-.008-.02 1.42 1.42 0 01-.136-.682c.015-.235.094-.416.14-.511a1.907 1.907 0 01-.135-.478 3.99 3.99 0 01-.02-.599 7.093 7.093 0 01.014-.272l.001-.019v-.005l.001-.003.797.065-.797-.065v-.01l.002-.009a1.24 1.24 0 01.474-.836 2.08 2.08 0 01.673-.345c.444-.143.974-.196 1.46-.19.482.007 1.001.073 1.42.224.205.074.45.19.649.383.199.194.37.493.348.862zM12.75 8.023v-.002.002zm3.16-3.882a3.195 3.195 0 00-.847-.111c-.376-.005-.722.04-.95.112l-.053.019v.007c-.005.14-.003.269.007.344l.004.014a6.16 6.16 0 01.045.114c.052.131.135.36.116.665a1.36 1.36 0 01-.132.495c.047.107.133.323.133.596 0 .288-.087.504-.13.61 0 .003-.002.006-.003.008a3.143 3.143 0 00-.023.06 1.815 1.815 0 00.062.135c.073.15.224.456.208.862-.025.657-.04 1.248-.052 1.803-.044 1.91-.079 3.39-.535 5.612-.274 1.337-.694 2.32-1.115 3.248l-.126.276c-.376.824-.737 1.615-1.034 2.656-.15.525-.294.958-.424 1.347-.321.966-.55 1.655-.55 2.796v9.57c0 .079.03.154.117.226a.649.649 0 00.408.138h7.992a.256.256 0 00.194-.09.408.408 0 00.103-.274v-9.57c0-1.237-.225-1.99-.553-3.086-.095-.319-.2-.666-.309-1.063-.283-1.024-.673-1.79-1.087-2.605l-.145-.285c-.467-.927-.935-1.927-1.162-3.314-.467-2.865-.467-4.444-.467-7.403v-.012a1.8 1.8 0 01.227-.84l.01-.023c.04-.079.052-.105.059-.124a1.926 1.926 0 00-.024-.073l-.004-.01a1.673 1.673 0 01-.108-.574c0-.274.082-.488.118-.583l.006-.015a1.468 1.468 0 01-.03-1.12l.015-.044c.03-.089.031-.09.033-.108a2.998 2.998 0 00.007-.385z"/></svg>