<svg viewBox="0 0 41 41" xmlns="http://www.w3.org/2000/svg"><path fill-rule="evenodd" clip-rule="evenodd" d="M26.97 34.491h-.004v.065c-.002.29-.06.669-.23.975a1.148 1.148 0 01-.209.276.926.926 0 01-.665.256h-1.561c-.356 0-.639.3-.631.672.008.371.303.672.659.672h6.61c.355 0 .638-.3.63-.672-.008-.371-.303-.672-.66-.672h-1.562a.965.965 0 01-.75-.331 1.281 1.281 0 01-.147-.201c-.186-.314-.26-.706-.272-.998l-.096-4.523c-.02-.955.04-1.63.175-2.13.267-.992.828-1.3 1.64-1.746.132-.073.27-.15.416-.233 2.924-1.618 1.657-7.044-.276-9.988h-5.713c-1.807 2.937-2.844 8.363.148 9.988.143.08.28.153.41.222.841.448 1.42.755 1.73 1.756.155.501.243 1.177.263 2.131l.095 4.481zm.427-8.465c.509-.644 1.155-.997 1.616-1.248a21.399 21.399 0 00.48-.267l.011-.007.011-.006c.619-.342 1.062-1.236.889-2.968-.135-1.35-.63-2.83-1.262-4.018h-3.856c-.58 1.185-1.012 2.663-1.09 4.013-.1 1.731.38 2.629 1.017 2.975l.013.006c.129.072.254.139.386.209l.093.05c.478.252 1.15.608 1.692 1.261zM12.238 3.171c.154-.05.3-.06.419-.06h2.479c.113 0 .262.008.418.06.177.057.323.156.438.28.09.099.151.204.177.248l.002.004.02.034c.02.036.033.058.053.088a1.5 1.5 0 01.251.878 1.87 1.87 0 01-.202.755.41.41 0 00-.054.176 1.769 1.769 0 000 .153l.002.04c.002.068.005.156.005.253v5.681c0 .101.013.133.014.136l.008.013a.35.35 0 00.05.05c.461.397.774.691 1.043 1.004.268.312.476.624.738 1.025.375.575.729 1.125.73 2.049V35.58c0 1.018-.84 1.792-1.814 1.792h-5.99c-.974 0-1.812-.775-1.812-1.792V16.037c0-.738.08-1.297.502-2.016.552-.94.932-1.299 1.766-2.049a.52.52 0 00.117-.128.063.063 0 00.005-.017.31.31 0 00.006-.066V6.08c0-.217-.004-.289-.015-.348a.951.951 0 00-.103-.262 1.814 1.814 0 01-.21-.77 1.508 1.508 0 01.254-.875 1.983 1.983 0 00.086-.14c.032-.052.097-.155.195-.253.113-.114.253-.205.422-.26zm.41 1.54h.003-.002zm.253 0l.017.036a2.5 2.5 0 01.25.696c.04.222.04.436.04.626v5.692c0 .283-.055.554-.186.81a2.04 2.04 0 01-.47.59c-.792.713-1.03.941-1.457 1.67-.234.398-.282.65-.282 1.207V35.58c0 .09.079.192.212.192h5.99c.134 0 .213-.102.213-.192V16.038c0-.42-.11-.625-.47-1.175-.262-.403-.42-.634-.61-.856-.191-.222-.432-.455-.873-.833a1.763 1.763 0 01-.488-.653 1.922 1.922 0 01-.141-.76V6.08c0-.046-.003-.096-.005-.15-.011-.28-.028-.675.213-1.17a.893.893 0 00.022-.05H12.9zm2.247 0h-.004.004z"/></svg>