<svg xmlns="http://www.w3.org/2000/svg" viewBox="0 0 1024 1024"><path d="M506.352 0C295.31.02 149.076.722 74.013 74.023c-73.297 75.046-74 228.148-74 432.325 226.715-6.842 330.39-12.518 413.078-93.264 80.742-82.688 86.419-186.361 93.261-413.085zM74 949.984C.703 874.938 0 721.837 0 517.661c226.715 6.842 330.39 12.518 413.078 93.261 80.742 82.688 86.419 186.362 93.261 413.069-211.042 0-357.276-.685-432.34-74.006zm443.658 74.006c6.842-226.707 12.522-330.381 93.261-413.069 82.688-80.742 186.365-86.419 413.078-93.261-.019 204.176-.723 357.277-74.019 432.323-75.062 73.322-221.277 74.006-432.32 74.006zm0-1023.99c6.842 226.724 12.522 330.397 93.261 413.085 82.688 80.746 186.365 86.422 413.078 93.264-.019-204.177-.723-357.279-74.019-432.325C874.916.723 728.701.021 517.658.001z"/><path d="M610.918 610.922c-80.739 82.688-86.419 186.362-93.261 413.069 211.043 0 357.258-.685 432.32-74.006 73.296-75.046 74-228.147 74.019-432.323-226.714 6.842-330.39 12.518-413.078 93.261zM0 517.661c0 204.176.702 357.277 74 432.323 75.063 73.322 221.298 74.006 432.34 74.006-6.842-226.707-12.518-330.381-93.261-413.069C330.391 530.179 226.716 524.502.001 517.66zM506.352 0C295.31.02 149.076.722 74.013 74.023c-73.297 75.046-74 228.148-74 432.325 226.715-6.842 330.39-12.518 413.078-93.264 80.742-82.688 86.419-186.361 93.261-413.085zm104.566 413.085C530.179 330.397 524.499 226.724 517.657 0 728.7.02 874.915.722 949.977 74.023c73.296 75.046 74 228.148 74.019 432.325-226.714-6.842-330.39-12.518-413.078-93.264z"/></svg>