<svg width="100" height="38" viewBox="0 0 100 38" fill="none" xmlns="http://www.w3.org/2000/svg"><path d="M12.55 36.602c-3.663 0-6.642-2.88-6.642-6.421 0-3.542 2.979-6.422 6.642-6.422 3.663 0 6.643 2.88 6.643 6.421 0 3.541-2.98 6.422-6.643 6.422zm0-11.6c-2.956 0-5.358 2.322-5.358 5.178 0 2.857 2.405 5.178 5.358 5.178 2.954 0 5.359-2.321 5.359-5.177 0-2.854-2.403-5.179-5.359-5.179z" fill="#fff"/><path d="M.64 19.869c0 6.36 5.336 11.518 11.92 11.518 6.58 0 11.919-5.155 11.919-11.518 0-6.36-5.336-11.518-11.92-11.518C5.977 8.353.64 13.509.64 19.869z" fill="url(#paint0_linear)"/><path d="M12.56 25.002C5.634 25.002 0 19.557 0 12.863 0 6.17 5.634.724 12.56.724s12.56 5.445 12.56 12.14c0 6.693-5.634 12.138-12.56 12.138zm0-23.034c-6.219 0-11.276 4.889-11.276 10.895 0 6.01 5.06 10.895 11.276 10.895 6.219 0 11.276-4.888 11.276-10.895 0-6.006-5.06-10.895-11.276-10.895zm25.97 29.835h.546v1.978c.242-.383.635-.596 1.12-.596.879 0 1.517.71 1.517 1.71 0 .998-.636 1.708-1.517 1.708-.505 0-.921-.22-1.156-.623l-.069.544h-.442v-4.72zm1.536 1.818c-.587 0-.995.422-.995 1.011v.522c0 .596.408 1.011.995 1.011.63 0 1.088-.522 1.088-1.273-.003-.742-.46-1.271-1.088-1.271zm3.827 3.392c-.276.677-.623.986-1.161.986-.133 0-.304-.02-.47-.059l.077-.43c.125.035.25.054.34.054.339 0 .538-.188.719-.643l.174-.422-1.392-3.233h.575l1.08 2.641 1.044-2.64h.582l-1.568 3.746zm5.43-4.996h.534l1.917 4.506h-.582l-.513-1.234h-2.18l-.514 1.234h-.582l1.92-4.506zm-.664 2.849h1.856l-.926-2.218-.93 2.218zm4.345.905c0 .243.159.396.409.396.097 0 .214-.02.332-.047l.069.423a2.57 2.57 0 01-.519.06c-.518 0-.837-.302-.837-.785v-4.015h.546v3.968zm1.703-3.854c.214 0 .367.148.367.356s-.153.356-.367.356c-.222 0-.373-.148-.373-.356s.15-.356.373-.356zm-.276 1.348h.546v3.259h-.546v-3.26zm2.934 1.28c.234 0 .492.027.755.094v-.336c0-.416-.332-.71-.824-.71-.36 0-.728.082-1.113.242l-.154-.388c.47-.173.9-.262 1.33-.262.761 0 1.287.455 1.287 1.133v1.575c0 .18.11.294.304.294.056 0 .138-.012.179-.02l.04.403c-.11.02-.234.035-.36.035-.367 0-.602-.208-.643-.544-.27.341-.707.544-1.169.544-.664 0-1.17-.423-1.17-.98 0-.684.583-1.08 1.538-1.08zm-.235 1.67c.582 0 .99-.404.99-.98v-.275a3.054 3.054 0 00-.692-.081c-.663 0-1.059.267-1.059.71-.002.358.324.625.76.625zm2.654-2.951h.444l.07.596c.227-.43.678-.678 1.21-.678.747 0 1.281.497 1.281 1.215v2.124h-.554v-2.045c0-.497-.368-.846-.886-.846-.582 0-1.018.43-1.018 1.053v1.838h-.547v-3.257zm4.915 0h1.059v.423h-1.06v1.916c0 .337.236.564.583.564.145 0 .303-.027.477-.067l.077.416c-.235.06-.457.087-.672.087-.602 0-1.01-.389-1.01-.953v-1.963h-.7v-.423h.7V32.3h.546v.964zm3.188 1.281c.235 0 .492.027.755.094v-.336c0-.416-.331-.71-.824-.71-.36 0-.728.082-1.116.242l-.153-.388c.47-.173.899-.262 1.33-.262.76 0 1.287.455 1.287 1.133v1.575c0 .18.11.294.303.294.057 0 .138-.012.18-.02l.04.403a2.06 2.06 0 01-.36.035c-.367 0-.602-.208-.643-.544-.27.341-.707.544-1.17.544-.663 0-1.169-.423-1.169-.98.006-.684.585-1.08 1.54-1.08zm-.235 1.67c.582 0 .99-.404.99-.98v-.275a3.055 3.055 0 00-.691-.081c-.664 0-1.06.267-1.06.71 0 .358.327.625.76.625zm8.158.02a3.964 3.964 0 01-1.646.368c-1.412 0-2.402-.964-2.402-2.331 0-1.368.97-2.332 2.346-2.332.539 0 1.087.153 1.626.45l-.214.383c-.465-.247-.906-.396-1.35-.396-1.088 0-1.841.784-1.841 1.897s.768 1.897 1.876 1.897c.38 0 .74-.082 1.072-.228v-1.34h-1.169v-.416h1.703v2.048zm1.025-2.971h.444l.07.616c.165-.415.56-.67 1.043-.67.126 0 .276.02.422.054l-.062.436a2.037 2.037 0 00-.4-.047c-.575 0-.97.45-.97 1.105v1.763h-.547v-3.257zm4.125-.079c.996 0 1.71.705 1.71 1.709 0 1.006-.712 1.708-1.71 1.708-1.003 0-1.715-.704-1.715-1.708-.003-1.007.71-1.71 1.715-1.71zm0 2.99c.672 0 1.15-.522 1.15-1.281 0-.752-.478-1.281-1.15-1.281-.679 0-1.148.529-1.148 1.28 0 .757.47 1.282 1.148 1.282zm5.506.348h-.444l-.07-.596c-.234.428-.683.678-1.217.678-.748 0-1.274-.497-1.274-1.214v-2.124h.546v2.052c0 .497.373.838.886.838.582 0 1.019-.43 1.019-1.053v-1.837h.554v3.256zm1.087-3.259h.444l.07.544c.234-.403.65-.623 1.156-.623.878 0 1.516.71 1.516 1.709 0 .999-.636 1.708-1.517 1.708-.484 0-.878-.215-1.12-.59v1.903h-.547v-4.65h-.002zm1.534.356c-.587 0-.995.423-.995 1.012v.521c0 .596.408 1.012.995 1.012.63 0 1.088-.522 1.088-1.274 0-.742-.457-1.27-1.088-1.27zM37.934.724l2.928 7.189L43.856.207l2.895 7.706L49.779.724h1.83l-4.958 11.444-2.895-7.623-2.928 7.623L36.103.724h1.83zm17.603 0v10.752h-1.695V.724h1.695zm3.495 10.752V0l8.055 8.173V.727h1.697v11.412L60.73 3.966v7.51h-1.697zM78.4 2.272h-4.426v2.562h4.294v1.548h-4.294v3.546h4.427v1.548h-6.124V.724H78.4v1.548zM43.493 16.867h-4.426v2.562h4.294v1.548h-4.294v3.546h4.426v1.548H37.37V15.319h6.124v1.548zm5.356 3.593l-3.061-5.14h1.896l2.163 3.642 2.213-3.643h1.897l-3.194 5.141 3.344 5.609h-1.896l-2.43-4.11-2.53 4.11h-1.897l3.495-5.609zm10.035-5.14c.681 0 1.631.063 2.43.58.932.596 1.381 1.627 1.381 2.612 0 .628-.166 1.595-1.082 2.354-.881.724-1.897.838-2.711.838h-.766v4.367h-1.698V15.319h2.446zm-.75 4.866h.765c1.465 0 2.162-.693 2.162-1.692 0-.596-.25-1.659-2.18-1.659h-.748v3.35zm9.103-4.866c1.348 0 2.213.16 2.928.627 1.215.79 1.315 2.063 1.315 2.53 0 1.548-.983 2.676-2.464 2.997l3.462 4.595h-2.047l-3.179-4.4h-.298v4.4h-1.698V15.317h1.981v.002zm-.283 4.93h.533c.467 0 2.364-.05 2.364-1.756 0-1.515-1.48-1.659-2.313-1.659h-.582v3.415h-.002zm14.141-3.383h-4.427v2.562h4.294v1.548h-4.294v3.546h4.427v1.548h-6.124V15.319h6.124v1.548zm7.821.838c-.1-.242-.25-.467-.5-.677-.35-.275-.715-.386-1.198-.386-1.031 0-1.565.596-1.565 1.288 0 .322.118.886 1.197 1.306l1.116.435c2.047.806 2.612 1.934 2.612 3.158 0 2.047-1.499 3.45-3.577 3.45-1.282 0-2.047-.468-2.612-1.081a3.42 3.42 0 01-.931-2.095l1.68-.353c0 .531.199 1.03.467 1.37.316.388.78.645 1.447.645 1.031 0 1.83-.724 1.83-1.805 0-1.096-.865-1.548-1.598-1.837l-1.064-.436c-.914-.37-2.262-1.112-2.262-2.725 0-1.451 1.164-2.836 3.245-2.836 1.197 0 1.881.435 2.228.725.299.257.616.628.848 1.08l-1.363.774zm9.42 0c-.1-.242-.25-.467-.498-.677-.35-.275-.715-.386-1.197-.386-1.032 0-1.565.596-1.565 1.288 0 .322.117.886 1.197 1.306l1.115.435c2.048.806 2.612 1.934 2.612 3.158 0 2.047-1.499 3.45-3.576 3.45-1.282 0-2.048-.468-2.612-1.081a3.42 3.42 0 01-.932-2.095l1.68-.353c0 .531.199 1.03.467 1.37.317.388.781.645 1.448.645 1.03 0 1.83-.724 1.83-1.805 0-1.096-.866-1.548-1.598-1.837l-1.065-.436c-.914-.37-2.261-1.112-2.261-2.725 0-1.451 1.164-2.836 3.244-2.836 1.197 0 1.882.435 2.229.725.299.257.615.628.847 1.08l-1.365.774z" fill="#fff"/><defs><linearGradient id="paint0_linear" x1="12.559" y1="9.601" x2="12.559" y2="28.768" gradientUnits="userSpaceOnUse"><stop stop-color="#A10912"/><stop offset="1" stop-color="#E89515"/></linearGradient></defs></svg>