<svg width="100" height="29" viewBox="0 0 100 29" fill="none" xmlns="http://www.w3.org/2000/svg"><g clip-path="url(#clip0)"><path d="M40.058 22.901h3.12a4 4 0 01-.755 2.448 3.442 3.442 0 01-2.8 1.245 3.747 3.747 0 01-2.744-1.08 3.72 3.72 0 01-1.102-2.727A3.768 3.768 0 0136.9 20.05a3.794 3.794 0 012.757-1.094 3.604 3.604 0 012.33.802c.342.255.643.56.892.906l-.39.31a3.442 3.442 0 00-.715-.816 3.345 3.345 0 00-4.998.813 3.32 3.32 0 00-.489 1.819 3.252 3.252 0 00.945 2.381 3.274 3.274 0 002.378.969 3.097 3.097 0 002.587-1.256c.286-.465.454-.992.49-1.537h-2.632l.003-.446zm9.052 3.562l-2.409-3.507h-.224v3.507h-.49v-7.43h1.072a2.602 2.602 0 011.571.377 1.85 1.85 0 01.77 1.594 1.781 1.781 0 01-1.25 1.802 2.854 2.854 0 01-.914.144l2.43 3.508-.556.005zm-2.633-3.953h.724c1.058 0 1.694-.544 1.694-1.512a1.377 1.377 0 00-.658-1.291 2.644 2.644 0 00-1.138-.223h-.613l-.009 3.026zm13.129.258a3.837 3.837 0 01-.642 2.142 3.872 3.872 0 01-5.943.6 3.843 3.843 0 01-.843-4.196 3.85 3.85 0 011.423-1.729 3.87 3.87 0 012.148-.648 3.81 3.81 0 012.74 1.104 3.783 3.783 0 011.117 2.727zm-.512 0a3.328 3.328 0 00-.582-1.844 3.346 3.346 0 00-3.442-1.388 3.351 3.351 0 00-1.705.922 3.332 3.332 0 00-.708 3.632 3.339 3.339 0 001.235 1.491 3.35 3.35 0 001.857.559 3.315 3.315 0 002.391-.978 3.293 3.293 0 00.954-2.394zm3.814-3.736v4.647c0 .702.033 1.158.311 1.604.434.702 1.25.857 1.73.857s1.293-.155 1.727-.857c.273-.446.314-.902.314-1.604v-4.646h.488v4.646c0 .816-.043 1.36-.423 1.903a2.713 2.713 0 01-2.107 1 2.723 2.723 0 01-2.108-1c-.38-.543-.423-1.087-.423-1.903v-4.646h.491zm8.272 3.902v3.535h-.491v-7.437h1.44c1.215 0 2.183.67 2.183 1.936 0 1.267-.878 1.96-2.16 1.96l-.972.006zm0-.446h.982c.969 0 1.637-.568 1.637-1.503 0-.936-.622-1.501-1.705-1.501h-.903l-.01 3.004zM42.835 10.675H38.56l-1.116 2.42h-1.637l4.96-10.59 4.775 10.59h-1.637l-1.07-2.42zm-.614-1.414l-1.478-3.388-1.555 3.388h3.033zm7.408-6.131v8.553h2.938v1.411h-4.45V3.13h1.512zm7.205 0h-1.508v9.967h1.508V3.129zm9.607 7.545h-4.284l-1.113 2.42h-1.637l4.96-10.59 4.775 10.59h-1.653l-1.048-2.42zm-.617-1.414L64.34 5.873 62.788 9.26h3.036zm5.894 3.833V2.452l7.293 7.603V3.129h1.508v10.574l-7.292-7.585v6.976h-1.51zm15.284-8.551v8.551h-1.509v-8.55h-2.3V3.128h6.104v1.414h-2.295zm10.3 6.132h-4.284l-1.113 2.42h-1.637l4.952-10.59 4.772 10.59h-1.637l-1.053-2.42zm-.617-1.414l-1.484-3.388-1.552 3.388h3.036z" fill="#1B1C20"/><path d="M12.829 8.187l-.99-2.23h5.42l-.987 2.23h1.07L18.76 4.98h-8.422l1.421 3.206h1.07z" fill="url(#paint0_linear)"/><path d="M16.272 20.813l.988 2.23h-5.422l.99-2.23H11.76l-1.421 3.203h8.422l-1.418-3.203h-1.07z" fill="url(#paint1_linear)"/><path d="M4.999 18.695l3.216-1.413v-1.066l-2.237.984v-5.403l2.237.987V11.72L5 10.302v8.393z" fill="url(#paint2_linear)"/><path d="M20.886 12.784l2.237-.987V17.2l-2.237-.984v1.066l3.214 1.413v-8.393l-3.214 1.417v1.065z" fill="url(#paint3_linear)"/><path d="M18.105 10.267l.694.688 1.776-1.77c.436-.433-.036-1.344-.036-1.344l-2.434 2.426z" fill="url(#paint4_linear)"/><path d="M10.302 10.954l.69-.687-2.43-2.426s-.473.911-.039 1.343l1.78 1.77z" fill="url(#paint5_linear)"/><path d="M18.799 18.045l-.694.688 2.434 2.426s.472-.911.036-1.344l-1.776-1.77z" fill="url(#paint6_linear)"/><path d="M10.302 18.045l-1.779 1.77c-.434.433.038 1.344.038 1.344l2.431-2.426-.69-.688z" fill="url(#paint7_linear)"/><path d="M14.55 0c-2.877 0-5.69.85-8.083 2.444a14.511 14.511 0 00-5.36 6.507A14.453 14.453 0 00.28 17.33a14.484 14.484 0 003.982 7.424 14.566 14.566 0 007.45 3.968 14.59 14.59 0 008.407-.825 14.54 14.54 0 006.53-5.34A14.464 14.464 0 0029.1 14.5a14.49 14.49 0 00-4.267-10.248A14.592 14.592 0 0014.55 0zm0 28.035c-2.686 0-5.312-.794-7.545-2.281a13.545 13.545 0 01-5.003-6.075 13.491 13.491 0 01-.772-7.82 13.52 13.52 0 013.717-6.93A13.597 13.597 0 0111.9 1.225a13.626 13.626 0 017.847.77 13.571 13.571 0 016.095 4.985 13.501 13.501 0 012.29 7.52 13.525 13.525 0 01-3.983 9.567 13.62 13.62 0 01-9.6 3.968z" fill="url(#paint8_linear)"/><path d="M17.06 12.159l.707-.66a4.418 4.418 0 00-5.576-.708 4.393 4.393 0 00-1.831 2.35 4.377 4.377 0 00.094 2.976 4.396 4.396 0 001.977 2.232 4.42 4.42 0 005.52-1.057 4.382 4.382 0 001.006-2.803v-.47h-2.56l-1.391-2.912a3.403 3.403 0 012.054 1.052zm-2.968-1.052l-2.472 5.166a3.412 3.412 0 01.91-4.54 3.44 3.44 0 011.562-.626zm-1.784 5.981l1.006-2.107h2.472l1.007 2.113a3.434 3.434 0 01-4.485 0v-.006zm5.647-2.11c-.067.464-.23.908-.477 1.306l-.622-1.305h1.1zm-4.18-.96l.775-1.63.775 1.63h-1.55z" fill="url(#paint9_linear)"/></g><defs><linearGradient id="paint0_linear" x1="4.436" y1=".916" x2="31.36" y2="15.118" gradientUnits="userSpaceOnUse"><stop stop-color="#B22332"/><stop offset="1" stop-color="#6B172A"/></linearGradient><linearGradient id="paint1_linear" x1="-64.117" y1="184.577" x2="300.811" y2="689.057" gradientUnits="userSpaceOnUse"><stop stop-color="#B22332"/><stop offset="1" stop-color="#6B172A"/></linearGradient><linearGradient id="paint2_linear" x1="-6.775" y1="356.778" x2="383.1" y2="435.313" gradientUnits="userSpaceOnUse"><stop stop-color="#B22332"/><stop offset="1" stop-color="#6B172A"/></linearGradient><linearGradient id="paint3_linear" x1="56.529" y1="121.261" x2="446.126" y2="199.689" gradientUnits="userSpaceOnUse"><stop stop-color="#B22332"/><stop offset="1" stop-color="#6B172A"/></linearGradient><linearGradient id="paint4_linear" x1="59.249" y1="22.847" x2="338.037" y2="147.809" gradientUnits="userSpaceOnUse"><stop stop-color="#B22332"/><stop offset="1" stop-color="#6B172A"/></linearGradient><linearGradient id="paint5_linear" x1="27.916" y1="70.976" x2="306.569" y2="195.767" gradientUnits="userSpaceOnUse"><stop stop-color="#B22332"/><stop offset="1" stop-color="#6B172A"/></linearGradient><linearGradient id="paint6_linear" x1="18.238" y1="124.578" x2="297.026" y2="249.54" gradientUnits="userSpaceOnUse"><stop stop-color="#B22332"/><stop offset="1" stop-color="#6B172A"/></linearGradient><linearGradient id="paint7_linear" x1="-13.093" y1="172.676" x2="265.591" y2="297.492" gradientUnits="userSpaceOnUse"><stop stop-color="#B22332"/><stop offset="1" stop-color="#6B172A"/></linearGradient><linearGradient id="paint8_linear" x1="107.964" y1="790.25" x2="2979.66" y2="2305" gradientUnits="userSpaceOnUse"><stop stop-color="#B22332"/><stop offset="1" stop-color="#6B172A"/></linearGradient><linearGradient id="paint9_linear" x1="42.839" y1="249.421" x2="912.481" y2="708.136" gradientUnits="userSpaceOnUse"><stop stop-color="#B22332"/><stop offset="1" stop-color="#6B172A"/></linearGradient><clipPath id="clip0"><path fill="#fff" d="M0 0h100v29H0z"/></clipPath></defs></svg>