<?xml version="1.0" encoding="UTF-8"?><!DOCTYPE svg PUBLIC "-//W3C//DTD SVG 1.1//EN" "http://www.w3.org/Graphics/SVG/1.1/DTD/svg11.dtd"><svg xmlns="http://www.w3.org/2000/svg" xmlns:xlink="http://www.w3.org/1999/xlink"><defs><clipPath id="a"><path fill="#fff" d="M0 0h14v14H0z"/></clipPath><style>.cls-1{fill:#2c2c38}</style><clipPath id="a"><path fill="#fff" d="M0 0h24v24H0z"/></clipPath><clipPath id="a"><path fill="#fff" d="M0 0h24v24H0z"/></clipPath><clipPath id="a"><path fill="#fff" d="M0 0h24v24H0z"/></clipPath></defs><symbol id="8marta"><path fill="#FF9522" d="M17.836 4.055V3.5a.5.5 0 0 0-.5-.5h-.055a.5.5 0 0 0-.5.5v.555H7.22V3.5a.5.5 0 0 0-.5-.5h-.055a.5.5 0 0 0-.5.5v.555H4.3a1.3 1.3 0 0 0-1.3 1.3V19.7A1.3 1.3 0 0 0 4.3 21h15.4a1.3 1.3 0 0 0 1.3-1.3V5.355a1.3 1.3 0 0 0-1.3-1.3h-1.864zM6.164 5.109v1.055H5.61a.5.5 0 0 0-.5.5v.055a.5.5 0 0 0 .5.5h2.164a.5.5 0 0 0 .5-.5v-.055a.5.5 0 0 0-.5-.5H7.22V5.11h9.562v1.055h-.554a.5.5 0 0 0-.5.5v.055a.5.5 0 0 0 .5.5h2.164a.5.5 0 0 0 .5-.5v-.055a.5.5 0 0 0-.5-.5h-.555V5.11h2.11v3.164H4.054V5.11h2.11zm-2.11 14.836V9.328h15.891v10.617H4.055z"/><path fill="#FF9522" d="M13.38 14.023c.3-.33.483-.77.483-1.25A1.865 1.865 0 0 0 12 10.91a1.865 1.865 0 0 0-1.863 1.863c0 .48.182.92.482 1.25A2.389 2.389 0 0 0 12 18.363a2.389 2.389 0 0 0 1.38-4.34zm-2.189-1.25a.81.81 0 0 1 1.618 0 .81.81 0 0 1-1.618 0zM12 17.31c-.737 0-1.336-.6-1.336-1.336 0-.737.6-1.336 1.336-1.336.737 0 1.336.599 1.336 1.336 0 .736-.6 1.336-1.336 1.336zM5.637 14.11h2.11v1.054h-2.11V14.11zM6.212 17.309l1.827-1.055.527.913-1.827 1.055-.527-.913zM6.212 11.964l.527-.914 1.827 1.055-.527.913-1.827-1.054zM16.254 14.11h2.11v1.054h-2.11V14.11zM15.435 17.168l.527-.913 1.827 1.054-.528.914-1.826-1.055zM15.435 12.105l1.826-1.054.528.913-1.827 1.055-.527-.914z"/></symbol><symbol id="alcohol" viewBox="0 0 40 40"><path fill="#FF9522" d="M16.144 12.718V5a1 1 0 0 0-1-1h-3.636a1 1 0 0 0-1 1v7.718c0 2.765-1.205 4.216-2.601 5.898-1.423 1.712-3.034 3.653-3.034 7.095 0 .677.482 2.939 1.218 6.312.315 1.446.613 2.812.67 3.206a.939.939 0 0 0 .929.806h11.272a.939.939 0 0 0 .93-.806c.056-.394.354-1.76.67-3.206.735-3.373 1.218-5.635 1.218-6.312 0-3.441-1.612-5.383-3.035-7.095-1.396-1.682-2.601-3.134-2.601-5.898zm-3.757-4.964h2.147v4.964c0 1.274.221 2.343.572 3.27h-3.291c.35-.927.572-1.996.572-3.27V7.754zm2.147-2.197v2.197h-2.147V5.557h2.147zM8.46 34.477c-.095-.466-.628-3.29-.8-4.073h11.6c-.17.784-.725 3.607-.82 4.073H8.46zm10.8-4.073H7.661c-.419-1.933-.908-4.256-.91-4.693 0-2.765 1.206-4.216 2.601-5.897.543-.653 1.965-3.036 2.463-3.826h3.291c.498.79 1.92 3.173 2.463 3.826 1.395 1.681 2.6 3.133 2.6 5.897 0 .437-.49 2.76-.909 4.693zM24.777 24.912a1 1 0 0 0-.981 1.194l1.835 9.262a1 1 0 0 0 .981.806h5.462a1 1 0 0 0 .981-.806l1.836-9.262a1 1 0 0 0-.981-1.194h-9.133zm8.523 1.432-.744 4.199H26.13l-.744-4.2H33.3zm-6.404 8.578-.765-4.38h6.425l-.723 4.38h-4.937z"/></symbol><symbol id="arrow-short" viewBox="0 0 16 16"><path d="m13 8 .53.53a.75.75 0 0 0 0-1.06L13 8zM6.53.47a.75.75 0 0 0-1.06 1.06L6.53.47zm-1.06 14a.75.75 0 1 0 1.06 1.06l-1.06-1.06zm8.06-7-7-7-1.06 1.06 7 7 1.06-1.06zm-1.06 0-7 7 1.06 1.06 7-7-1.06-1.06z"/></symbol><symbol id="arrow" viewBox="0 0 16 16"><path d="M1 8.916a.75.75 0 1 0 0 1.5v-1.5zm14 .75.525.535a.75.75 0 0 0 0-1.07L15 9.666zm-4.565-5.535A.75.75 0 1 0 9.384 5.2l1.05-1.07zm-1.051 10a.75.75 0 0 0 1.05 1.07l-1.05-1.07zM1 10.416h14v-1.5H1v1.5zm14.525-1.285-5.09-5L9.384 5.2l5.09 5 1.051-1.07zm-1.05 0-5.091 5 1.05 1.07 5.091-5-1.05-1.07z"/></symbol><symbol id="assortment"><path fill="#FF9522" d="M9.128 15.2v-.01a10.392 10.392 0 0 0-.242-1.317 10.245 10.245 0 0 0-.933-2.37A9.444 9.444 0 0 1 6.8 7.066a1.396 1.396 0 0 0 0-2.525V3.2a.8.8 0 0 0-.8-.8H4.8a.8.8 0 0 0-.8.8v1.34a1.367 1.367 0 0 0-.8 1.26c0 .54.312 1.032.8 1.265a9.409 9.409 0 0 1-1.151 4.438 10.258 10.258 0 0 0-1.175 3.682l-.002.013v.005c-.048.397-.072.796-.072 1.196v3.2a2.002 2.002 0 0 0 2 2h3.6a2.002 2.002 0 0 0 2-2v-3.2c-.001-.4-.025-.799-.073-1.196v-.004zM2.4 16.4c0-.268.015-.535.04-.8h5.92c.022.266.04.533.04.8v2.4h-6v-2.4zM6 3.2v1.2H4.8V3.2H6zm-2.45 8.687A10.224 10.224 0 0 0 4.8 6.99V6.78a.4.4 0 0 0-.32-.392A.6.6 0 0 1 4.6 5.2h1.6a.6.6 0 0 1 .12 1.188.4.4 0 0 0-.32.392v.212a10.25 10.25 0 0 0 1.248 4.896c.377.689.666 1.422.86 2.182.06.24.11.486.15.73H2.542a9.435 9.435 0 0 1 1.01-2.912zm3.65 8.912H3.6a1.2 1.2 0 0 1-1.2-1.2h6a1.2 1.2 0 0 1-1.2 1.2z"/><path fill="#FF9522" d="M22.4 0h-9.2a1.59 1.59 0 0 0-1.2.553A1.59 1.59 0 0 0 10.8 0H1.6A1.6 1.6 0 0 0 0 1.6v20.8A1.6 1.6 0 0 0 1.6 24h9.2a1.59 1.59 0 0 0 1.2-.553c.3.35.739.552 1.2.553h9.2a1.6 1.6 0 0 0 1.6-1.6V1.6A1.6 1.6 0 0 0 22.4 0zM10.8 23.2H1.6a.8.8 0 0 1-.8-.8V1.6a.8.8 0 0 1 .8-.8h9.2a.8.8 0 0 1 .8.8v1.632c-.912.15-1.6.795-1.6 1.568a.4.4 0 0 0 .8 0c0-.34.34-.636.8-.75v1.582c-.912.15-1.6.795-1.6 1.568a.4.4 0 0 0 .8 0c0-.34.34-.636.8-.75v1.582c-.912.15-1.6.795-1.6 1.568a.4.4 0 0 0 .8 0c0-.34.34-.636.8-.75v1.582c-.912.15-1.6.795-1.6 1.568a.4.4 0 0 0 .8 0c0-.34.34-.636.8-.75v1.582c-.912.15-1.6.795-1.6 1.568a.4.4 0 0 0 .8 0c0-.34.34-.636.8-.75v1.582c-.912.15-1.6.795-1.6 1.568a.4.4 0 0 0 .8 0c0-.34.34-.636.8-.75v1.582c-.912.15-1.6.795-1.6 1.568a.4.4 0 0 0 .8 0c0-.34.34-.636.8-.75v3.95a.8.8 0 0 1-.8.8zm12.4-.8a.8.8 0 0 1-.8.8h-9.2a.8.8 0 0 1-.8-.8v-3.95c.46.114.8.41.8.75a.4.4 0 0 0 .8 0c0-.773-.688-1.419-1.6-1.568v-1.581c.46.113.8.409.8.749a.4.4 0 0 0 .8 0c0-.773-.688-1.419-1.6-1.568v-1.581c.46.113.8.409.8.749a.4.4 0 0 0 .8 0c0-.773-.688-1.419-1.6-1.568v-1.581c.46.113.8.409.8.749a.4.4 0 0 0 .8 0c0-.773-.688-1.419-1.6-1.568V8.851c.46.113.8.409.8.749a.4.4 0 0 0 .8 0c0-.773-.688-1.419-1.6-1.568V6.451c.46.113.8.409.8.749a.4.4 0 0 0 .8 0c0-.773-.688-1.419-1.6-1.568V4.051c.46.113.8.409.8.749a.4.4 0 0 0 .8 0c0-.773-.688-1.419-1.6-1.568V1.6a.8.8 0 0 1 .8-.8h9.2a.8.8 0 0 1 .8.8v20.8z"/><path fill="#FF9522" d="M6 16.8H4.8a.4.4 0 0 0 0 .8H6a.4.4 0 0 0 0-.8zM20.4 7.6h-.8a.4.4 0 0 0 0 .8h.8a.4.4 0 0 0 0-.8zM15.2 8.4H18a.4.4 0 0 0 0-.8h-2.8a.4.4 0 0 0 0 .8zM20.4 9.6h-.8a.4.4 0 0 0 0 .8h.8a.4.4 0 0 0 0-.8zM15.2 10.4H18a.4.4 0 0 0 0-.8h-2.8a.4.4 0 0 0 0 .8zM20.4 11.6h-.8a.4.4 0 0 0 0 .8h.8a.4.4 0 0 0 0-.8zM15.2 12.4H18a.4.4 0 0 0 0-.8h-2.8a.4.4 0 0 0 0 .8zM20.4 13.6h-.8a.4.4 0 0 0 0 .8h.8a.4.4 0 0 0 0-.8zM15.2 14.4H18a.4.4 0 0 0 0-.8h-2.8a.4.4 0 0 0 0 .8zM20.4 15.6h-.8a.4.4 0 0 0 0 .8h.8a.4.4 0 0 0 0-.8zM15.2 16.4H18a.4.4 0 0 0 0-.8h-2.8a.4.4 0 0 0 0 .8zM20.4 17.6h-.8a.4.4 0 0 0 0 .8h.8a.4.4 0 0 0 0-.8zM18.4 18a.4.4 0 0 0-.4-.4h-2.8a.4.4 0 0 0 0 .8H18a.4.4 0 0 0 .4-.4zM18.4 20.8h-1.2a.4.4 0 0 0 0 .8h1.2a.4.4 0 0 0 0-.8zM16.8 3.6h2a.4.4 0 0 0 0-.8h-2a.4.4 0 0 0 0 .8zM15.6 5.2H20a.4.4 0 0 0 0-.8h-4.4a.4.4 0 0 0 0 .8z"/></symbol><symbol id="basket" viewBox="0 0 26 25"><path fill-rule="evenodd" d="M1.552.369a.8.8 0 0 0 0 1.6h2.257c.336 0 .498.136.574.361a143.647 143.647 0 0 1 .725 2.224l.074.234.002.006 2.88 8.864c-.684 1.171-.595 2.262-.15 3.09.23.429.542.765.847 1 .153.117.315.217.476.29.147.067.354.14.583.14h11.306v-.8.8a.8.8 0 0 0 0-1.6v.8-.8H9.892a.934.934 0 0 1-.157-.1 1.55 1.55 0 0 1-.412-.486c-.17-.318-.28-.8.088-1.466l.83-.09 3.011-.328c2.397-.263 5.365-.594 7.646-.862.673-.08 1.315-.4 1.808-.786.48-.375.935-.903 1.1-1.495.53-1.895 1.226-5.229 1.361-5.882a.898.898 0 0 0-.869-1.08L6.532 3.755l-.093-.287c-.156-.486-.358-1.107-.54-1.647C5.576.853 4.733.369 3.81.369H1.552zm7.95 12.538L7.052 5.363l16.374.228c-.27 1.274-.767 3.536-1.16 4.944-.038.136-.206.4-.544.665-.325.254-.698.42-1.01.457-2.275.267-5.238.597-7.633.86-1.198.132-2.253.247-3.009.329l-.566.06zm.415 3.682.006.002H9.92l-.004-.002zM8.648 24.457a2.5 2.5 0 1 0 0-5 2.5 2.5 0 0 0 0 5zm0-1.4a1.1 1.1 0 1 0 0-2.2 1.1 1.1 0 0 0 0 2.2zM19.24 24.457a2.5 2.5 0 1 0 0-5 2.5 2.5 0 0 0 0 5zm0-1.4a1.1 1.1 0 1 0 0-2.2 1.1 1.1 0 0 0 0 2.2z" clip-rule="evenodd"/></symbol><symbol id="close" viewBox="0 0 16 16"><path d="M3.163 1.151A1.2 1.2 0 0 0 1.466 2.85L3.163 1.15zm9.617 13.011a1.2 1.2 0 1 0 1.697-1.697l-1.697 1.697zM1.466 2.85 12.78 14.162l1.697-1.697L3.163 1.151 1.466 2.85z"/><path d="M14.163 2.849a1.2 1.2 0 0 0-1.697-1.698l1.697 1.698zm-13.01 9.616a1.2 1.2 0 1 0 1.696 1.697l-1.697-1.697zM12.465 1.151 1.152 12.465l1.697 1.697L14.163 2.85 12.466 1.15z"/></symbol><symbol id="delicacies" viewBox="0 0 40 40"><path fill="#FF9522" d="M32.268 20.935a15.213 15.213 0 0 0-4.498-9.679 15.208 15.208 0 0 0-9.339-4.36 2.023 2.023 0 1 0-2.863 0 15.209 15.209 0 0 0-9.338 4.36 15.213 15.213 0 0 0-4.498 9.68H.015v1.607h3.467V24l4.74 2.363 11.728 1.817.04.005c.004 0 .409.058.794.273.574.32.647.732.647 1.056v.47h-.763V36h10.83v-6.017H30.38v-5.44l-2.032-2h5.636v-1.608h-1.717zm-12.49 5.658L8.39 24.828l-3.3-1.645v-.64h20.768l2.916 2.871v4.57H23.51l-.472.001c0-2.372-2.12-3.253-3.26-3.392zm10.111 5.036v2.763h-7.613v-2.763h7.613zm-3.652-10.694H3.347C3.965 14.215 10.142 8.438 17 8.438c6.858 0 13.035 5.777 13.653 12.497h-4.416z"/></symbol><symbol id="event" viewBox="0 0 24 24"><g fill-rule="evenodd" clip-rule="evenodd"><path d="m18.613 19.702.004-.002-1.157-4.481c-.228-.884-.458-1.511-.708-1.965-.558-1.014-1.22-1.163-2.196-1.384-.146-.034-.3-.068-.461-.108-3.362-.792-3.618-6.543-2.517-10.008l5.683-1.61c2.622 2.418 5.169 7.52 2.644 9.972-.125.125-.245.24-.359.351-.727.703-1.222 1.18-1.218 2.342.001.523.104 1.185.333 2.07l1.167 4.522c.076.27.225.612.454.87.055.062.114.119.178.169a.964.964 0 0 0 .894.171l1.555-.44c.354-.1.72.12.815.49.096.372-.114.754-.468.854l-6.575 1.863a.662.662 0 0 1-.815-.49c-.095-.372.114-.754.468-.855l1.554-.44c.252-.071.432-.207.556-.377.104-.142.169-.309.206-.483.072-.334.04-.696-.021-.967l-.006-.023a1.89 1.89 0 0 0-.01-.041zm-.23-10.315c-.41.394-.981.943-1.328 1.76-.7-.53-1.468-.702-2.019-.825l-.103-.023a25.291 25.291 0 0 1-.434-.102l-.014-.003c-.746-.176-1.444-.971-1.756-2.746-.246-1.399-.163-3.029.14-4.397l3.9-1.105c.923 1.024 1.78 2.39 2.24 3.728.586 1.699.365 2.75-.193 3.292l-.01.009-.008.009c-.113.112-.222.218-.338.33l-.076.073z"/><path d="M3.675 19.653h.004l.532-4.6c.105-.91.117-1.58.047-2.1-.155-1.159-.714-1.562-1.54-2.16-.124-.089-.254-.183-.39-.284C-.506 8.425 1.317 3.016 3.58.263l5.848.802c1.565 3.286 2.1 9.018-1.12 10.264-.161.065-.314.124-.46.18-.925.355-1.555.596-1.968 1.667-.186.484-.328 1.137-.433 2.046l-.538 4.643c-.027.28-.01.656.11.986.029.08.063.156.105.228a1.002 1.002 0 0 0 .767.517l1.6.219c.364.05.624.4.58.78a.664.664 0 0 1-.74.6l-6.765-.928c-.365-.05-.625-.4-.58-.78a.664.664 0 0 1 .74-.6l1.598.219a.966.966 0 0 0 .65-.123c.147-.09.267-.217.364-.362.187-.28.288-.627.328-.903l.003-.023a2.23 2.23 0 0 0 .006-.042zm3.48-9.607c-.52.198-1.247.474-1.86 1.086-.46-.769-1.11-1.237-1.576-1.572l-.088-.063c-.125-.09-.244-.176-.367-.268l-.011-.008c-.629-.463-.991-1.478-.645-3.243.273-1.389.934-2.86 1.706-4l4.011.55c.489 1.317.794 2.922.742 4.342-.066 1.804-.648 2.685-1.36 2.96l-.01.005-.012.005c-.145.058-.285.112-.432.168l-.097.038z"/></g></symbol><symbol id="facebook" viewBox="0 0 31 31"><path d="M26.82 0H4.18A4.18 4.18 0 0 0 0 4.18v22.64A4.18 4.18 0 0 0 4.18 31h11.17V19.92h-2.86a.67.67 0 0 1-.68-.67v-3.58a.69.69 0 0 1 .68-.68h2.88v-3.45c0-4 2.44-6.18 6-6.18h2.93A.67.67 0 0 1 25 6v3a.68.68 0 0 1-.68.68H22.5c-1.95 0-2.32.92-2.32 2.28v3h4.27a.68.68 0 0 1 .67.76l-.42 3.57a.68.68 0 0 1-.68.6H20.2v11.08h6.64A4.18 4.18 0 0 0 31 26.82V4.18A4.18 4.18 0 0 0 26.82 0z"/></symbol><symbol id="favorites"><path stroke="#2C2C38" stroke-width="1.8" d="M23 9.204c0 6.149-11 12.935-11 12.935S1 15.353 1 9.204C1 .527 9.005.621 11.999 5.41 14.949.59 23 .5 23 9.204z"/></symbol><symbol id="filter"><g clip-path="url(#a)"><path fill="#fff" d="M13.48 0H.574a.547.547 0 0 0-.547.547c0 1.523.653 2.977 1.791 3.989l2.395 2.128c.416.37.654.9.654 1.456v5.333c0 .435.487.697.85.454l3.227-2.15a.547.547 0 0 0 .243-.455V8.12c0-.556.238-1.087.654-1.456l2.395-2.128a5.341 5.341 0 0 0 1.79-3.99A.547.547 0 0 0 13.48 0zm-1.971 3.718L9.114 5.847a3.043 3.043 0 0 0-1.02 2.272v2.89L5.96 12.43V8.12c0-.868-.372-1.697-1.021-2.273L2.545 3.718a4.248 4.248 0 0 1-1.389-2.624h11.742a4.247 4.247 0 0 1-1.39 2.624z"/></g></symbol><symbol id="gift" viewBox="0 0 16 16"><path d="M1 8.49v6c0 .552.449 1 1 1h5v-7H1zM15 4.49h-3.164c.227-.154.422-.308.558-.446a2.09 2.09 0 0 0 0-2.942c-.784-.79-2.15-.788-2.933 0-.434.435-1.584 2.206-1.425 3.389h-.072c.158-1.183-.992-2.954-1.425-3.39-.784-.787-2.15-.787-2.933 0a2.093 2.093 0 0 0-.001 2.943c.137.138.332.292.559.447H1c-.551 0-1 .449-1 1v1.5a.5.5 0 0 0 .5.5H7v-2h2v2h6.5a.5.5 0 0 0 .5-.5v-1.5c0-.551-.448-1-1-1zm-8.059-.032s-.042.033-.185.033c-.691 0-2.01-.718-2.441-1.152a1.09 1.09 0 0 1 0-1.532 1.062 1.062 0 0 1 1.515 0c.674.678 1.344 2.41 1.111 2.65zm2.302.033c-.142 0-.184-.032-.184-.033-.233-.241.437-1.973 1.111-2.651a1.09 1.09 0 0 1 1.515 0c.42.422.42 1.11 0 1.532-.431.434-1.75 1.152-2.442 1.152zM9 8.49v7h5a1 1 0 0 0 1-1v-6H9z"/></symbol><symbol id="glass" viewBox="0 0 34 30"><path fill="#FF9522" d="m25.522 19.551-6.581-6.75a7.395 7.395 0 0 1-1.403-8.237l1.477-3.177A.975.975 0 0 0 18.131 0H8.667a.976.976 0 0 0-.884 1.387L9.26 4.564A7.395 7.395 0 0 1 7.857 12.8l-6.581 6.75A3.84 3.84 0 0 0 .18 22.246c0 1.394.754 2.683 1.97 3.366l3.345 1.88a16.17 16.17 0 0 0 7.904 2.068 16.17 16.17 0 0 0 7.904-2.068l3.346-1.88a3.865 3.865 0 0 0 1.97-3.366 3.84 3.84 0 0 0-1.097-2.695zM8.577 14.163a9.266 9.266 0 0 0 2.51-4.934 9.267 9.267 0 0 0-.735-5.488l-.8-2.354 7.665.009-.865 2.354a9.268 9.268 0 0 0-.736 5.488 9.267 9.267 0 0 0 2.511 4.934l5.072 5.202-19.694-.009 5.072-5.202zm15.7 9.757L20.93 25.8c-2.117 1.19-5.104 2.282-7.532 2.282-2.429 0-5.51-1.102-7.626-2.291l-3.346-1.88a1.911 1.911 0 0 1-.974-1.665c0-.33 1.894-2.599 2.052-2.88l19.694.008c.157.282 2.052 2.55 2.052 2.881 0 .69-.374 1.327-.974 1.665zM33.347 1.476a1.123 1.123 0 0 0-.874-.283l-1.255.138A8.964 8.964 0 0 0 28.006.74h-.393c-1.103 0-2.183.2-3.212.592l-1.255-.138a1.122 1.122 0 0 0-.874.283 1.138 1.138 0 0 0-.374.844v2.202c0 .317.133.622.365.836.232.214.545.321.859.293L24.4 5.54c.742.272 1.51.443 2.293.513v3.092c0 .254.204.461.457.462a.98.98 0 0 0-.078.376c0 .21.074.423.22.63.107.153.243.29.375.425.105.105.213.214.275.303.045.065.05.095.05.095a.26.26 0 0 1-.05.098c-.062.089-.17.198-.275.304-.132.133-.268.27-.376.424-.145.207-.219.419-.219.63 0 .211.074.424.22.63.107.154.243.292.375.425.104.105.213.214.275.303.045.065.05.096.05.096a.265.265 0 0 1-.05.098c-.062.089-.17.198-.275.304-.132.133-.268.27-.376.423-.145.207-.219.42-.219.63 0 .212.074.424.22.631a.459.459 0 0 0 .64.112.465.465 0 0 0 .111-.645c-.045-.065-.05-.096-.05-.096 0-.002.004-.033.05-.098.063-.089.17-.198.275-.304.132-.132.268-.27.376-.423.145-.207.219-.42.219-.63 0-.212-.074-.424-.22-.632a3.386 3.386 0 0 0-.375-.424c-.104-.105-.212-.214-.275-.303a.283.283 0 0 1-.05-.096c0-.002.004-.032.05-.098.063-.088.17-.198.276-.303.131-.133.267-.27.375-.424.145-.207.219-.42.219-.63 0-.212-.074-.424-.22-.631a3.385 3.385 0 0 0-.375-.424 2.76 2.76 0 0 1-.275-.304c-.045-.065-.05-.095-.05-.095a.26.26 0 0 1 .05-.098c.058-.082.154-.18.25-.278h.171c.255 0 .46-.208.46-.463V6.04a8.963 8.963 0 0 0 2.293-.545l1.255.138c.318.035.636-.068.874-.283.238-.215.375-.522.375-.844V2.32c0-.321-.137-.63-.375-.844zm-5.733 7.205V6.087h.391v2.594h-.391zm5.184-4.432a.206.206 0 0 1-.228.206l-1.367-.15a.458.458 0 0 0-.219.03c-.812.322-1.66.603-2.528.651H27.15a.458.458 0 0 0-.052.004c-.816-.04-1.616-.297-2.387-.579l-.095-.035a.457.457 0 0 0-.197-.026l-1.381.122a.206.206 0 0 1-.224-.206l.007-1.764a.206.206 0 0 1 .228-.206l1.367.15a.457.457 0 0 0 .219-.029 8.056 8.056 0 0 1 2.981-.57h.394c1.025 0 2.028.192 2.981.57.07.028.145.038.22.03l1.366-.15a.206.206 0 0 1 .228.206l-.007 1.746z"/></symbol><symbol id="grid" viewBox="0 0 30 30"><path d="M7.86 6.52a1.34 1.34 0 0 1-1.34 1.34H1.34A1.34 1.34 0 0 1 0 6.52V1.34A1.34 1.34 0 0 1 1.34 0h5.18a1.34 1.34 0 0 1 1.34 1.34zm11.07-5.18A1.34 1.34 0 0 0 17.59 0h-5.18a1.34 1.34 0 0 0-1.34 1.34v5.18a1.34 1.34 0 0 0 1.34 1.34h5.18a1.34 1.34 0 0 0 1.34-1.34zm11.07 0A1.34 1.34 0 0 0 28.66 0h-5.18a1.34 1.34 0 0 0-1.34 1.34v5.18a1.34 1.34 0 0 0 1.34 1.34h5.18A1.34 1.34 0 0 0 30 6.52zM18.93 12.41a1.34 1.34 0 0 0-1.34-1.34h-5.18a1.34 1.34 0 0 0-1.34 1.34v5.18a1.34 1.34 0 0 0 1.34 1.34h5.18a1.34 1.34 0 0 0 1.34-1.34zm11.07 0a1.34 1.34 0 0 0-1.34-1.34h-5.18a1.34 1.34 0 0 0-1.34 1.34v5.18a1.34 1.34 0 0 0 1.34 1.34h5.18A1.34 1.34 0 0 0 30 17.59zm-22.14 0a1.34 1.34 0 0 0-1.34-1.34H1.34A1.34 1.34 0 0 0 0 12.41v5.18a1.34 1.34 0 0 0 1.34 1.34h5.18a1.34 1.34 0 0 0 1.34-1.34zm9.73 9.73h-5.18a1.34 1.34 0 0 0-1.34 1.34v5.18A1.34 1.34 0 0 0 12.41 30h5.18a1.34 1.34 0 0 0 1.34-1.34v-5.18a1.34 1.34 0 0 0-1.34-1.34zM23.48 30h5.18A1.34 1.34 0 0 0 30 28.66v-5.18a1.34 1.34 0 0 0-1.34-1.34h-5.18a1.34 1.34 0 0 0-1.34 1.34v5.18A1.34 1.34 0 0 0 23.48 30zm-17-7.86H1.34A1.34 1.34 0 0 0 0 23.48v5.18A1.34 1.34 0 0 0 1.34 30h5.18a1.34 1.34 0 0 0 1.34-1.34v-5.18a1.34 1.34 0 0 0-1.34-1.34z" class="cls-1"/></symbol><symbol id="hot-sale" viewBox="0 0 34 34"><path d="M26.956 12.062c-2.883-3.184-4.596-5.987-5.526-7.777-1.007-1.94-1.337-3.142-1.34-3.152L19.792 0l-1.07.477c-.125.056-3.083 1.405-4.74 4.719-.831 1.664-.998 3.516-.99 4.777a1.54 1.54 0 0 1-2.626 1.094L8.371 9.073l-.686.946c-.07.098-1.747 2.41-2.052 2.872a13.554 13.554 0 0 0-2.247 7.598 13.532 13.532 0 0 0 4.016 9.568A13.537 13.537 0 0 0 17 34c7.507 0 13.614-6.107 13.614-13.614 0-2.722-1.333-5.756-3.658-8.324zM17 32.006a11.555 11.555 0 0 1-8.193-3.365 11.55 11.55 0 0 1-3.427-8.167 11.565 11.565 0 0 1 1.917-6.484c.155-.235.778-1.104 1.318-1.853l.34.34a3.525 3.525 0 0 0 3.19.966 3.537 3.537 0 0 0 2.84-3.481c-.007-1.044.124-2.563.78-3.874.798-1.597 1.991-2.64 2.82-3.22.75 1.907 2.65 5.848 6.892 10.532.945 1.044 3.143 3.814 3.143 6.986 0 6.407-5.213 11.62-11.62 11.62z"/><path d="M19.02 16.916 12.77 26.07h2.21l6.252-9.155h-2.21zM20.355 21.1c-1.387 0-2.433.93-2.433 2.551 0 1.635 1.046 2.55 2.433 2.55 1.386 0 2.433-.915 2.433-2.55 0-1.622-1.047-2.55-2.433-2.55zm0 3.689c-.288 0-.576-.262-.576-1.138 0-.876.288-1.138.576-1.138.287 0 .575.262.575 1.138 0 .876-.288 1.138-.575 1.138zM16.078 19.335c0-1.622-1.046-2.55-2.433-2.55-1.386 0-2.432.928-2.432 2.55 0 1.635 1.046 2.55 2.432 2.55 1.387 0 2.433-.915 2.433-2.55zm-3.008 0c0-.876.288-1.138.575-1.138.288 0 .576.262.576 1.138 0 .877-.288 1.138-.576 1.138-.287 0-.575-.261-.575-1.138z"/></symbol><symbol id="instagram" viewBox="0 0 31 31"><path d="M21.765 0H9.235C4.143 0 0 4.143 0 9.235v12.53C0 26.857 4.143 31 9.235 31h12.53C26.857 31 31 26.857 31 21.765V9.235C31 4.143 26.857 0 21.765 0zm6.116 21.765a6.117 6.117 0 0 1-6.116 6.116H9.235a6.117 6.117 0 0 1-6.116-6.116V9.235A6.116 6.116 0 0 1 9.235 3.12h12.53a6.116 6.116 0 0 1 6.116 6.116v12.53z"/><path d="M15.5 7.482c-4.421 0-8.018 3.597-8.018 8.018 0 4.421 3.597 8.018 8.018 8.018 4.421 0 8.018-3.597 8.018-8.018 0-4.42-3.597-8.018-8.018-8.018zm0 12.917a4.9 4.9 0 1 1 0-9.798 4.9 4.9 0 0 1 0 9.798zM23.533 9.464a1.921 1.921 0 1 0 0-3.843 1.921 1.921 0 0 0 0 3.843z"/></symbol><symbol id="listing" viewBox="0 0 24 24"><path d="M22.12 0H1.88A1.88 1.88 0 0 0 0 1.88V3.8a1.88 1.88 0 0 0 1.88 1.88h20.24A1.88 1.88 0 0 0 24 3.8V1.88A1.88 1.88 0 0 0 22.12 0zM22.12 9.16H1.88A1.88 1.88 0 0 0 0 11v2a1.88 1.88 0 0 0 1.88 1.88h20.24A1.88 1.88 0 0 0 24 13v-2a1.88 1.88 0 0 0-1.88-1.84zM22.12 18.32H1.88A1.88 1.88 0 0 0 0 20.2v1.92A1.88 1.88 0 0 0 1.88 24h20.24A1.88 1.88 0 0 0 24 22.12V20.2a1.88 1.88 0 0 0-1.88-1.88z" class="cls-1"/></symbol><symbol id="login" viewBox="0 0 16 16"><path d="M14.26 0H6.608C5.65 0 4.87.78 4.87 1.74v4.173c0 .192.317.352.51.352.191 0 .488-.16.488-.352V2c0-.575.468-1.043 1.043-1.043H14c.575 0 1.043.468 1.043 1.043v12c0 .575-.468 1.043-1.043 1.043H6.91A1.045 1.045 0 0 1 5.867 14v-3.842c0-.192-.176-.416-.489-.416-.312 0-.509.224-.509.416v4.103c0 .958.78 1.739 1.74 1.739h7.651c.959 0 1.74-.78 1.74-1.74V1.74C16 .78 15.22 0 14.26 0z"/><path d="m11.478 7.54-11.13.033C.156 7.573 0 7.808 0 8s.156.434.348.434h11.13c.192 0 .348-.242.348-.434s-.156-.46-.348-.46z"/><path d="M11.822 7.755 9.735 5.668c-.135-.136-.455-.136-.59 0a.348.348 0 0 0 0 .492L10.985 8l-1.84 1.841c-.136.136-.097.394.038.53.136.136.435.08.552-.037l2.087-2.087a.348.348 0 0 0 0-.492z"/></symbol><symbol id="lux"><g clip-path="url(#a)"><path fill="#FF9522" d="m5.862 19.456.36 2.8c.132.997.98 1.742 1.986 1.744h7.584a2.008 2.008 0 0 0 1.985-1.745l.36-2.8c.17-.137.341-.285.52-.457a8.024 8.024 0 0 0 2.543-5.384.734.734 0 0 0-.205-.547.88.88 0 0 0-.64-.267h-1.36l.158-1.215A1.384 1.384 0 0 0 20.4 10.2 1.4 1.4 0 0 0 19 8.8h-1.572c.11-.668.291-1.323.543-1.952l.566-1.418a1.395 1.395 0 0 0 .615-2.605l.454-1.131a.8.8 0 0 0-.445-1.04L17.676.058a.8.8 0 0 0-1.04.444l-.454 1.132a1.409 1.409 0 0 0-.88.066 1.4 1.4 0 0 0-.475 2.24l-.57 1.42c-.152.375-.327.74-.526 1.093A1.193 1.193 0 0 0 12.8 6H9.6a1.2 1.2 0 0 0-1.2 1.2v1.6H5a1.396 1.396 0 0 0-.154 2.784l.157 1.216h-1.36a.88.88 0 0 0-.64.267.733.733 0 0 0-.203.546 8.021 8.021 0 0 0 2.539 5.383c.18.176.354.324.523.46zm4.153-.256h.098c.25 0 .498-.059.722-.17.23-.115.5-.115.73 0 .224.111.47.17.722.17h.098A1.617 1.617 0 0 0 14 17.585V11.6h4.345l-.958 7.424a9.06 9.06 0 0 1-10.774 0L5.655 11.6H8.4v5.985a1.617 1.617 0 0 0 1.615 1.615zm6.968 2.952a1.205 1.205 0 0 1-1.191 1.048H8.208a1.205 1.205 0 0 1-1.191-1.047l-.266-2.059a9.904 9.904 0 0 0 10.498 0l-.266 2.058zm3.373-8.552c.014 0 .029.003.042.008a7.193 7.193 0 0 1-2.101 4.614l.596-4.622h1.463zm-.756-3.4a.597.597 0 0 1-.6.6h-5V9.6h5a.6.6 0 0 1 .6.6zM17.378.8l1.485.596-.446 1.113-1.485-.597L17.378.8zM15 5.657l.52-1.293.37.148a.4.4 0 1 0 .299-.742l-.64-.256c-.01-.007-.016-.017-.025-.024a.6.6 0 0 1 .556-1.059l.175.07c.003 0 .005.005.009.007l2.226.892.185.074a.6.6 0 0 1-.333 1.147h-.031l-.64-.256a.4.4 0 0 0-.298.743l.37.148-.516 1.294c-.288.724-.492 1.479-.607 2.25H14V7.542a10.14 10.14 0 0 0 1-1.885zM9.2 7.2c0-.22.179-.4.4-.4h3.2c.22 0 .4.18.4.4v10.385c0 .45-.365.815-.815.815h-.098a.814.814 0 0 1-.365-.086 1.62 1.62 0 0 0-1.445 0 .815.815 0 0 1-.364.086h-.098a.816.816 0 0 1-.815-.815V7.2zm-4.8 3a.597.597 0 0 1 .6-.6h3.4v1.2H5a.6.6 0 0 1-.6-.6zm-.756 3.4h1.462l.597 4.622A7.194 7.194 0 0 1 3.6 13.608a.104.104 0 0 1 .044-.008z"/></g></symbol><symbol id="must"><g fill="#FF9522" clip-path="url(#a)"><path d="M12.8 16.8h-1.6a.4.4 0 0 0 0 .8h1.6a.4.4 0 0 0 0-.8zM12.8 18.4h-1.6a.4.4 0 0 0 0 .8h1.6a.4.4 0 0 0 0-.8z"/><path d="M22 21.2v-4.4a.384.384 0 0 0-.015-.074 10.096 10.096 0 0 0-1.234-4.422A9.446 9.446 0 0 1 19.6 7.792v-.326a1.397 1.397 0 0 0-.4-2.646V3.6a.8.8 0 0 0-.8-.8h-1.2a.8.8 0 0 0-.8.8v1.22a1.385 1.385 0 0 0-1.2 1.38c.001.54.312 1.033.8 1.266v.326c0 .786-.099 1.568-.292 2.33-.09.35-.2.694-.33 1.031-.073-.15-.146-.3-.227-.449A9.446 9.446 0 0 1 14 6.192V4.666a1.397 1.397 0 0 0-.4-2.646V.8a.8.8 0 0 0-.8-.8h-1.6a.8.8 0 0 0-.8.8v1.22A1.384 1.384 0 0 0 9.2 3.4c.001.54.312 1.032.8 1.265v1.527c0 .786-.099 1.568-.292 2.33a9.436 9.436 0 0 1-.86 2.182 9.85 9.85 0 0 0-.224.445A9.473 9.473 0 0 1 8 7.792v-.326a1.397 1.397 0 0 0-.4-2.646V3.6a.8.8 0 0 0-.8-.8H5.6a.8.8 0 0 0-.8.8v1.22A1.385 1.385 0 0 0 3.6 6.2c.001.54.312 1.033.8 1.266v.326c0 .786-.099 1.568-.292 2.33a9.436 9.436 0 0 1-.86 2.182 10.25 10.25 0 0 0-1.233 4.422A.38.38 0 0 0 2 16.8V22a2.002 2.002 0 0 0 2 2h16a2.002 2.002 0 0 0 2-2v-.8zm-.8-.4h-4.8v-3.6h4.8v3.6zM2.8 17.2h4.8v3.6H2.8v-3.6zM8.4 16h7.2v4H8.4v-4zm8.8-12.4h1.2v1.2h-1.2V3.6zm-.716 6.718c.21-.826.315-1.674.316-2.526V7.6h.4a.4.4 0 0 0 0-.8h-.69a.285.285 0 0 0-.03-.012.6.6 0 0 1 .12-1.188H19a.6.6 0 0 1 .12 1.188c-.011.002-.02.009-.03.012h-.69a.4.4 0 0 0 0 .8h.4v.192c.001 1.71.43 3.393 1.249 4.896.376.688.665 1.421.86 2.182.124.502.209 1.014.251 1.53H16.4v-.8c0-.852-.107-1.7-.316-2.526a9.869 9.869 0 0 0-.278-.895c.286-.597.513-1.22.678-1.861zM11.2.8h1.6V2h-1.6V.8zm-.716 7.918c.21-.826.315-1.674.316-2.526V4.8h.4a.4.4 0 0 0 0-.8h-.69c-.01-.003-.02-.01-.03-.012A.6.6 0 0 1 10.6 2.8h2.8a.6.6 0 0 1 .12 1.188c-.011.002-.02.009-.03.012h-.69a.4.4 0 0 0 0 .8h.4v1.392a10.25 10.25 0 0 0 1.249 4.895c.376.69.665 1.422.86 2.183a9.58 9.58 0 0 1 .28 1.93H8.412c.06-1.44.45-2.847 1.138-4.113.409-.748.722-1.544.933-2.37zM5.6 3.6h1.2v1.2H5.6V3.6zm-1.649 9.087A10.217 10.217 0 0 0 5.2 7.792V7.6h.4a.4.4 0 0 0 0-.8h-.69a.288.288 0 0 0-.03-.012A.6.6 0 0 1 5 5.6h2.4a.6.6 0 0 1 .12 1.188c-.011.002-.02.009-.03.012H6.8a.4.4 0 0 0 0 .8h.4v.192c.004 1.518.344 3.017.995 4.388A10.24 10.24 0 0 0 7.6 15.6v.8H2.84a9.452 9.452 0 0 1 1.111-3.713zM2.8 22v-.4h4.8v.4c.001.434.146.856.41 1.2H4A1.2 1.2 0 0 1 2.8 22zm10.8 1.2h-4A1.2 1.2 0 0 1 8.4 22v-1.2h7.2V22a1.2 1.2 0 0 1-1.2 1.2h-.8zm6.4 0h-4.01a1.98 1.98 0 0 0 .41-1.2v-.4h4.8v.4a1.2 1.2 0 0 1-1.2 1.2z"/><path d="M17.2 18.8h1.2a.4.4 0 0 0 0-.8h-1.2a.4.4 0 0 0 0 .8zM5.6 18.8h1.2a.4.4 0 0 0 0-.8H5.6a.4.4 0 0 0 0 .8zM18.4 19.2h-1.2a.4.4 0 0 0 0 .8h1.2a.4.4 0 0 0 0-.8zM6.8 19.2H5.6a.4.4 0 0 0 0 .8h1.2a.4.4 0 0 0 0-.8z"/></g></symbol><symbol id="ok" viewBox="0 0 24 24"><path d="M12 24C5.4 24 0 18.6 0 12S5.4 0 12 0s12 5.4 12 12-5.4 12-12 12zm0-23C5.9 1 1 5.9 1 12s4.9 11 11 11 11-4.9 11-11S18.1 1 12 1z"/><path d="m10.3 17.9-3.8-3.8c-.2-.2-.2-.5 0-.7s.5-.2.7 0l3 3 6.5-8.1c.2-.3.5-.3.8-.1.2.2.2.5.1.7l-7.3 9z"/></symbol><symbol id="pin-stores" viewBox="0 0 24 24"><path d="m23.977 9.354-1.5-6a.75.75 0 0 0-.727-.569H2.25a.75.75 0 0 0-.728.569l-1.5 6A.734.734 0 0 0 0 9.535c0 1.257.596 2.366 1.5 3.047v10.453c0 .414.336.75.75.75h7.5a.75.75 0 0 0 .75-.75v-5.25h3v5.25c0 .414.336.75.75.75h7.5a.75.75 0 0 0 .75-.75V12.582A3.804 3.804 0 0 0 24 9.535a.734.734 0 0 0-.023-.181zM21 22.285h-6v-5.25a.75.75 0 0 0-.75-.75h-4.5a.75.75 0 0 0-.75.75v5.25H3v-9.06c.184.032.37.06.563.06 1.142 0 2.16-.568 2.812-1.45.652.882 1.67 1.45 2.813 1.45 1.143 0 2.16-.568 2.812-1.45.652.882 1.67 1.45 2.813 1.45 1.143 0 2.16-.568 2.812-1.45.652.882 1.67 1.45 2.813 1.45.192 0 .378-.028.562-.06v9.06zm-.563-10.5c-1.137 0-2.062-1.01-2.062-2.25a.75.75 0 0 0-1.5 0c0 1.24-.925 2.25-2.063 2.25-1.136 0-2.062-1.01-2.062-2.25a.75.75 0 0 0-1.5 0c0 1.24-.925 2.25-2.063 2.25-1.136 0-2.062-1.01-2.062-2.25a.75.75 0 0 0-1.5 0c0 1.24-.926 2.25-2.063 2.25-1.11 0-2.018-.963-2.06-2.163l1.335-5.337h18.328L22.5 9.622c-.044 1.2-.953 2.163-2.063 2.163z"/></symbol><symbol id="quality"><g fill="#FF9522" clip-path="url(#a)"><path d="M8.8 11.2H3.2a.4.4 0 0 0-.4.4v4c0 .221.179.4.4.4h5.6a.4.4 0 0 0 .4-.4v-4a.4.4 0 0 0-.4-.4zm-.4 4H3.6V12h4.8v3.2z"/><path d="M6.8 14.4a.4.4 0 0 0 .4-.4v-.8a.4.4 0 0 0-.8 0v.8c0 .22.18.4.4.4zM5.2 14.4a.4.4 0 0 0 .4-.4v-.8a.4.4 0 0 0-.8 0v.8c0 .22.179.4.4.4zM8.8 9.2a.4.4 0 0 0 .4-.4v-.4a.4.4 0 0 0-.8 0v.4c0 .22.178.4.4.4zM7.2 9.2a.4.4 0 0 0 .4-.4v-.4a.4.4 0 0 0-.8 0v.4c0 .22.179.4.4.4z"/><path d="m23.043 2.104-1.211.24a1.396 1.396 0 0 0-2.497.056h-.971a2.969 2.969 0 0 1-1.248-.28 2.878 2.878 0 0 1-1.008-.776A3.724 3.724 0 0 0 13.236 0H6a2.002 2.002 0 0 0-2 2v2.8a2.002 2.002 0 0 0-2 2v2.8a2.002 2.002 0 0 0-2 2v4a2.002 2.002 0 0 0 2 2h7.24a3.726 3.726 0 0 0 2.87-1.344 2.923 2.923 0 0 1 1.87-1.028c-.046.45-.246.872-.565 1.193a2.808 2.808 0 0 0-.545 3.165l-.465.4a1.6 1.6 0 0 0 0 2.43l1.4 1.2c.29.248.658.384 1.04.385H22.4a1.6 1.6 0 0 0 1.6-1.6V20a1.6 1.6 0 0 0-1.6-1.6h-7.556a1.6 1.6 0 0 0-1.04.385l-.296.254a2.007 2.007 0 0 1 .472-2.052 2.779 2.779 0 0 0 .81-1.787h.544c.218.462.671.768 1.181.798.376.02.744-.116 1.015-.377a1.49 1.49 0 0 0 .28-.371l1.235.246a.795.795 0 0 0 .955-.784v-2.224a.8.8 0 0 0-.957-.784l-1.211.242a1.395 1.395 0 0 0-2.497.054h-.973c-.239 0-.477-.03-.708-.09.164-.138.316-.29.454-.454a2.925 2.925 0 0 1 2.256-1.056h.97a1.408 1.408 0 0 0 1.186.8 1.36 1.36 0 0 0 1.014-.38c.111-.109.204-.233.276-.37l1.235.247A.795.795 0 0 0 22 9.912V7.688a.8.8 0 0 0-.957-.784l-1.211.242a1.396 1.396 0 0 0-2.497.054h-.971a2.938 2.938 0 0 1-.709-.09c.164-.139.315-.29.453-.454A2.925 2.925 0 0 1 18.364 5.6h.97a1.408 1.408 0 0 0 1.186.8c.376.018.743-.12 1.014-.38.111-.109.204-.233.276-.37l1.235.247A.795.795 0 0 0 24 5.112V2.888a.8.8 0 0 0-.957-.784zm-8.2 17.096H22.4a.8.8 0 0 1 .8.8v2.4a.8.8 0 0 1-.8.8h-7.556a.802.802 0 0 1-.52-.192l-1.4-1.2a.8.8 0 0 1 0-1.216l.385-.33c.035.04.067.08.105.117l.307.307a1.18 1.18 0 0 0-.121.514 1.2 1.2 0 1 0 1.2-1.2 1.18 1.18 0 0 0-.514.12l-.307-.307c-.023-.023-.042-.048-.064-.071l.408-.35a.8.8 0 0 1 .52-.192zm-.323 1.72.003-.004a.403.403 0 1 1-.007.007l.004-.003zm-3.028-5.176A2.926 2.926 0 0 1 9.24 16.8H2a1.2 1.2 0 0 1-1.2-1.2v-4A1.2 1.2 0 0 1 2 10.4h7.24a2.926 2.926 0 0 1 2.254 1.056 3.726 3.726 0 0 0 1.148.919c.423.22.884.358 1.358.405v1.64a3.72 3.72 0 0 0-2.508 1.324zM10.4 9.787A3.736 3.736 0 0 0 9.24 9.6H5.6V7.2h4.8v2.587zm8.8 2.701v2.224l-1.2-.24v-1.744l1.2-.24zm-3.6.712a.4.4 0 0 0 .4-.4v-.29a.28.28 0 0 0 .012-.03.6.6 0 0 1 1.188.12v1.935c0 .19-.08.373-.218.503a.56.56 0 0 1-.419.16.598.598 0 0 1-.551-.48.262.262 0 0 0-.012-.028v-.29a.4.4 0 0 0-.8 0h-.4v-1.6h.4c0 .22.18.4.4.4zm5.6-5.512v2.224l-1.2-.24V7.928l1.2-.24zM17.2 8a.4.4 0 0 0 .8 0v-.29a.284.284 0 0 0 .012-.03.6.6 0 0 1 1.188.12v1.935c0 .19-.08.372-.217.502a.563.563 0 0 1-.418.163.6.6 0 0 1-.553-.48.268.268 0 0 0-.012-.03V9.6a.4.4 0 0 0-.8 0h-.836a3.724 3.724 0 0 0-2.872 1.344c-.197.237-.43.44-.692.604a2.93 2.93 0 0 1-.692-.604 3.74 3.74 0 0 0-.908-.787V6.8a.4.4 0 0 0-.4-.4H5.2a.4.4 0 0 0-.4.4v2.8h-2V6.8A1.2 1.2 0 0 1 4 5.6h7.236c.872-.002 1.7.385 2.256 1.056.3.36.666.658 1.078.88.027.019.057.035.088.047.04.02.08.045.12.064A3.769 3.769 0 0 0 16.364 8h.836zm-4.8-3.013a3.746 3.746 0 0 0-1.164-.187H7.6V2.4h4.8v2.587zm8.165.613a.6.6 0 0 1-.553-.48.268.268 0 0 0-.012-.03V4.8a.4.4 0 0 0-.8 0h-.836a3.724 3.724 0 0 0-2.872 1.344c-.197.237-.43.44-.692.604a2.883 2.883 0 0 1-.692-.604 3.725 3.725 0 0 0-.908-.787V2a.4.4 0 0 0-.4-.4H7.2a.4.4 0 0 0-.4.4v2.8h-2V2A1.2 1.2 0 0 1 6 .8h7.236c.872-.002 1.7.385 2.256 1.056.35.422.789.76 1.286.99a3.769 3.769 0 0 0 1.586.354h.836a.4.4 0 0 0 .8 0v-.29a.284.284 0 0 0 .012-.03A.6.6 0 0 1 21.2 3v1.936c0 .19-.08.371-.217.502a.56.56 0 0 1-.418.162zm2.635-.488-1.2-.24V3.128l1.2-.24v2.224z"/><path d="M10.8 4.4a.4.4 0 0 0 .4-.4v-.4a.4.4 0 0 0-.8 0V4c0 .221.18.4.4.4zM9.2 4.4a.4.4 0 0 0 .4-.4v-.4a.4.4 0 0 0-.8 0V4c0 .221.179.4.4.4zM17.2 20.8h4.4a.4.4 0 0 0 0-.8h-4.4a.4.4 0 0 0 0 .8zM17.2 22.4h2.4a.4.4 0 0 0 0-.8h-2.4a.4.4 0 0 0 0 .8z"/></g></symbol><symbol id="search" viewBox="0 0 16 16"><path d="m15.805 14.862-4.55-4.55a6.302 6.302 0 0 0 1.411-3.979A6.34 6.34 0 0 0 6.333 0 6.34 6.34 0 0 0 0 6.333a6.34 6.34 0 0 0 6.333 6.333c1.507 0 2.89-.53 3.979-1.412l4.55 4.55a.665.665 0 0 0 .943 0 .666.666 0 0 0 0-.942zm-9.472-3.529c-2.757 0-5-2.242-5-5 0-2.757 2.243-5 5-5 2.758 0 5 2.243 5 5 0 2.758-2.242 5-5 5z"/></symbol><symbol id="set" viewBox="0 0 40 40"><path fill="#FF9522" d="M11.201 11.99V4.834a.87.87 0 0 0-.87-.87H7.175a.87.87 0 0 0-.87.87v7.158a4.798 4.798 0 0 0-2.346 4.122v18.329c0 .88.715 1.596 1.595 1.596h6.398c.88 0 1.596-.716 1.596-1.596V16.113a4.798 4.798 0 0 0-2.347-4.122zm1.135 21.853a1 1 0 0 1-1 1H6.17a1 1 0 0 1-1-1v-17.73c0-1.21.717-2.308 1.826-2.796a.87.87 0 0 0 .52-.797V6.199a1 1 0 0 1 1-1h.474a1 1 0 0 1 1 1v6.321a.87.87 0 0 0 .52.797 3.056 3.056 0 0 1 1.826 2.796v17.73zM22.427 11.99V4.834a.87.87 0 0 0-.87-.87h-3.155a.87.87 0 0 0-.871.87v7.158a4.798 4.798 0 0 0-2.346 4.122v18.329c0 .88.715 1.596 1.595 1.596h6.398c.88 0 1.596-.716 1.596-1.596V16.113a4.798 4.798 0 0 0-2.347-4.122zm1.135 21.853a1 1 0 0 1-1 1h-5.166a1 1 0 0 1-1-1v-17.73c0-1.21.717-2.308 1.826-2.796a.87.87 0 0 0 .52-.797V6.199a1 1 0 0 1 1-1h.474a1 1 0 0 1 1 1v6.321a.87.87 0 0 0 .52.797 3.056 3.056 0 0 1 1.826 2.796v17.73zM33.654 11.99V4.834a.87.87 0 0 0-.87-.87h-3.156a.87.87 0 0 0-.87.87v7.158a4.798 4.798 0 0 0-2.347 4.122v18.329c0 .88.716 1.596 1.596 1.596h6.397c.88 0 1.596-.716 1.596-1.596V16.113a4.798 4.798 0 0 0-2.346-4.122zm1.134 21.853a1 1 0 0 1-1 1h-5.165a1 1 0 0 1-1-1v-17.73c0-1.21.716-2.308 1.826-2.796a.87.87 0 0 0 .52-.797V6.199a1 1 0 0 1 1-1h.473a1 1 0 0 1 1 1v6.321a.87.87 0 0 0 .52.797 3.056 3.056 0 0 1 1.826 2.796v17.73z"/></symbol><symbol id="sort" viewBox="0 0 16 16"><path d="M13.138 2.862 10.471.195a.658.658 0 0 0-.048-.044l-.024-.018-.029-.02-.029-.018-.027-.016-.03-.015-.029-.013-.03-.011-.031-.011-.03-.008-.034-.008-.035-.006c-.01 0-.02-.003-.03-.004a.67.67 0 0 0-.13 0l-.03.004-.035.006-.033.008-.03.008-.032.01-.03.012-.029.013-.03.015-.027.016c-.01.005-.02.01-.03.017l-.028.021-.023.018a.663.663 0 0 0-.049.044L6.862 2.862a.667.667 0 1 0 .943.943l1.528-1.529V10a.667.667 0 0 0 1.334 0V2.276l1.528 1.529a.667.667 0 1 0 .943-.943zM8.195 12.195l-1.528 1.529V6a.667.667 0 1 0-1.334 0v7.724l-1.528-1.529a.667.667 0 1 0-.943.943l2.667 2.667c.015.015.032.03.049.044l.023.018.029.02.029.018.027.016.03.015.029.013.03.011c.01.004.02.008.032.011l.03.008.033.008.035.005a.673.673 0 0 0 .16.004c.01 0 .02-.002.03-.004l.035-.005.033-.008.03-.008.032-.011.03-.01.029-.014.03-.015.027-.016.03-.017.028-.021.024-.018a.707.707 0 0 0 .048-.044l2.667-2.667a.667.667 0 1 0-.943-.943z"/></symbol><symbol id="sparkling-wine" viewBox="0 0 40 41"><path fill-rule="evenodd" d="M25.362 37.225a.693.693 0 0 1 0-1.386h1.29c.275 0 .491-.083.662-.214.16-.124.278-.292.364-.475.134-.287.188-.612.195-.869v-2.558c0-.787-.062-1.45-.167-2.019-.29-1.562-.908-2.416-1.473-3.198-.08-.11-.158-.218-.234-.327-3.564-5.08-1.13-11.11-1.13-11.11h7.255s2.433 6.03-1.132 11.11l-.197.278c-.57.794-1.183 1.65-1.467 3.242-.102.57-.162 1.235-.162 2.024v2.496a2.224 2.224 0 0 0 .003.1c.011.25.066.557.194.83.085.184.204.352.364.476.17.131.387.214.662.214h1.427a.693.693 0 1 1 0 1.386h-6.454zM28.505 27.1c-.335-.652-.717-1.178-1.005-1.574l-.191-.267c-1.5-2.138-1.762-4.505-1.616-6.419.066-.864.213-1.613.354-2.171h4.898c.141.558.288 1.307.354 2.17.146 1.915-.116 4.282-1.616 6.42l-.17.239c-.293.405-.674.935-1.008 1.602zm2.134-11.434-.001-.003v.001l.001.002zM17.502 3.9v.017c.003.051.007.123.009.205.004.154.006.383-.017.582-.023.207-.085.383-.113.461l-.008.026-.003.009.003.008c.034.08.111.263.125.505.017.3-.07.529-.11.637l-.003.008-.017.047a2.883 2.883 0 0 0 .021.063c.035.098.105.296.11.552.008.408-.145.71-.222.863l-.01.017a1.253 1.253 0 0 0-.065.142c0 2.953 0 4.423.447 7.156.186 1.142.564 1.967 1.01 2.85l.144.282c.413.81.874 1.716 1.202 2.904.091.33.184.638.274.938.344 1.142.646 2.147.646 3.637v9.57c0 1.002-.768 1.964-1.897 1.964h-7.992c-.99 0-2.126-.705-2.126-1.965V25.81c0-1.417.334-2.419.686-3.473.119-.358.24-.721.35-1.109.332-1.162.742-2.058 1.117-2.878l.125-.275c.406-.896.767-1.749 1.005-2.908.425-2.072.456-3.39.5-5.264.013-.565.028-1.182.055-1.884a1.526 1.526 0 0 0-.058-.129l-.01-.019a1.732 1.732 0 0 1-.206-.872c.013-.264.096-.468.135-.562a7.311 7.311 0 0 1 .01-.027.818.818 0 0 0-.008-.02 1.42 1.42 0 0 1-.136-.682c.015-.235.094-.416.14-.511a1.907 1.907 0 0 1-.135-.478 3.99 3.99 0 0 1-.02-.599 7.093 7.093 0 0 1 .014-.272l.001-.019v-.005l.001-.003.797.065-.797-.065v-.01l.002-.009a1.24 1.24 0 0 1 .474-.836 2.08 2.08 0 0 1 .673-.345c.444-.143.974-.196 1.46-.19.482.007 1.001.073 1.42.224.205.074.45.19.649.383.199.194.37.493.348.862zM12.75 8.023v-.002.002zm3.16-3.882a3.195 3.195 0 0 0-.847-.111c-.376-.005-.722.04-.95.112l-.053.019v.007c-.005.14-.003.269.007.344l.004.014a6.16 6.16 0 0 1 .045.114c.052.131.135.36.116.665a1.36 1.36 0 0 1-.132.495c.047.107.133.323.133.596 0 .288-.087.504-.13.61 0 .003-.002.006-.003.008a3.143 3.143 0 0 0-.023.06 1.815 1.815 0 0 0 .062.135c.073.15.224.456.208.862-.025.657-.04 1.248-.052 1.803-.044 1.91-.079 3.39-.535 5.612-.274 1.337-.694 2.32-1.115 3.248l-.126.276c-.376.824-.737 1.615-1.034 2.656-.15.525-.294.958-.424 1.347-.321.966-.55 1.655-.55 2.796V35.379c0 .079.03.154.117.226a.649.649 0 0 0 .408.138h7.992a.256.256 0 0 0 .194-.09.408.408 0 0 0 .103-.274v-9.57c0-1.237-.225-1.99-.553-3.086-.095-.319-.2-.666-.309-1.063-.283-1.024-.673-1.79-1.087-2.605l-.145-.285c-.467-.927-.935-1.927-1.162-3.314-.467-2.865-.467-4.444-.467-7.403v-.012a1.8 1.8 0 0 1 .227-.84l.01-.023c.04-.079.052-.105.059-.124a1.926 1.926 0 0 0-.024-.073l-.004-.01a1.673 1.673 0 0 1-.108-.574c0-.274.082-.488.118-.583l.006-.015a1.468 1.468 0 0 1-.03-1.12l.015-.044c.03-.089.031-.09.033-.108a2.998 2.998 0 0 0 .007-.385z" clip-rule="evenodd"/></symbol><symbol id="telephone"><path fill="#707090" d="M4.89 15.954c2.367 2.83 5.217 5.057 8.47 6.634 1.238.586 2.893 1.283 4.739 1.402.114.005.223.01.338.01 1.238 0 2.233-.428 3.043-1.308.005-.005.015-.015.02-.025.288-.348.617-.661.96-.994.234-.224.472-.458.701-.697 1.06-1.104 1.06-2.506-.01-3.575l-2.989-2.99c-.507-.526-1.114-.805-1.75-.805-.637 0-1.248.279-1.77.801l-1.781 1.78c-.164-.094-.333-.179-.492-.258a6.118 6.118 0 0 1-.547-.299c-1.622-1.03-3.094-2.372-4.5-4.098-.712-.9-1.19-1.655-1.523-2.426a29.93 29.93 0 0 0 1.328-1.298c.15-.154.303-.309.458-.463.537-.537.825-1.159.825-1.79 0-.632-.283-1.253-.825-1.79L8.103 2.283c-.174-.174-.339-.344-.508-.518a27.27 27.27 0 0 0-1.01-1C6.075.265 5.473 0 4.836 0c-.631 0-1.238.264-1.77.77l-1.86 1.86A3.821 3.821 0 0 0 .066 5.078c-.094 1.19.125 2.452.691 3.979.87 2.362 2.184 4.555 4.133 6.898zM1.28 5.182a2.63 2.63 0 0 1 .79-1.69l1.85-1.85c.289-.28.607-.424.915-.424.304 0 .612.145.895.433.334.308.647.632.985.975.17.174.343.348.517.527l1.482 1.482c.309.308.468.622.468.93 0 .308-.16.621-.468.93-.154.154-.308.313-.462.467-.463.468-.895.91-1.373 1.333l-.025.025c-.412.413-.348.806-.248 1.104l.015.04c.383.92.915 1.795 1.745 2.84 1.492 1.84 3.064 3.267 4.794 4.366.214.139.443.248.657.358.199.1.383.194.547.298l.054.03c.165.084.324.124.483.124.398 0 .656-.253.74-.338l1.86-1.86c.29-.288.602-.442.91-.442.379 0 .687.233.881.442l2.999 2.994c.597.597.592 1.243-.015 1.875-.209.224-.428.438-.662.661-.348.338-.71.687-1.039 1.08-.572.616-1.253.905-2.133.905-.085 0-.174-.006-.259-.01-1.631-.105-3.148-.741-4.287-1.284-3.093-1.496-5.808-3.62-8.061-6.315-1.855-2.233-3.103-4.312-3.929-6.54-.512-1.367-.706-2.466-.626-3.466z"/></symbol><symbol id="water" viewBox="0 0 41 40"><path fill-rule="evenodd" d="M18.67 2.743h3.889c.355 0 .684 0 .946.028.263.028.636.098.932.384.302.29.38.665.41.93.03.257.03.578.03.918v2.402a.9.9 0 0 1-.635.86v1.29a3.482 3.482 0 0 0 .313.322c.167.161.388.375.591.632.135.17.268.334.397.494 1.011 1.25 1.828 2.261 2.15 4.323l.009.06v18.698c0 .366-.112.733-.336 1.042-.679.932-1.404 1.71-2.37 1.938-.854.202-1.7-.07-2.575-.588-.65.383-1.283.653-1.946.668-.678.016-1.273-.234-1.853-.644-.85.472-1.757.778-2.652.663-1.147-.146-2.02-.938-2.635-2.23a1.73 1.73 0 0 1-.165-.744V15.417l.002-.031c.095-1.196.34-2.111.795-2.914.45-.791 1.072-1.415 1.81-2.067l.03-.025 1.373-.995V8.254a.9.9 0 0 1-.6-.849V5.008c0-.345 0-.658.025-.908.023-.243.08-.599.33-.89.273-.318.635-.404.887-.437.233-.03.52-.03.806-.03h.041zm.545 32.193c.601.506.946.615 1.224.608.311-.007.723-.16 1.447-.616.222-.28.342-.477.419-.656.085-.198.137-.416.183-.773a.8.8 0 0 1 1.587.203c-.055.424-.131.809-.3 1.201-.056.132-.121.259-.194.384.508.25.823.273 1.049.22.349-.082.777-.408 1.442-1.323a.172.172 0 0 0 .03-.1V15.512c-.257-1.58-.818-2.277-1.802-3.5l-.408-.51a4.778 4.778 0 0 0-.443-.469l-.08-.078c-.188-.182-.439-.432-.616-.755a.897.897 0 0 1-.11-.431V7.605a.9.9 0 0 1 .634-.86V5.043c0-.326-.001-.537-.011-.687a11.768 11.768 0 0 0-.747-.013h-3.85c-.216 0-.367 0-.479.005-.009.158-.01.374-.01.695v1.713a.9.9 0 0 1 .6.849v2.137a.9.9 0 0 1-.372.73l-1.6 1.158c-.69.611-1.14 1.086-1.45 1.632-.304.537-.505 1.198-.588 2.219v18.708c0 .032.007.05.01.056.474.996.97 1.277 1.393 1.331.331.043.743-.035 1.245-.26a2.864 2.864 0 0 1-.178-.296c-.228-.438-.313-.896-.312-1.42a.8.8 0 0 1 1.6.002c0 .339.052.527.131.68.088.169.243.358.556.654z" clip-rule="evenodd"/></symbol><symbol id="wine" viewBox="0 0 41 41"><path fill-rule="evenodd" d="M26.97 34.491h-.004v.065c-.002.29-.06.669-.23.975a1.148 1.148 0 0 1-.209.276.926.926 0 0 1-.665.256h-1.561c-.356 0-.639.3-.631.672.008.371.303.672.659.672h6.61c.355 0 .638-.3.63-.672-.008-.371-.303-.672-.66-.672h-1.562a.965.965 0 0 1-.75-.331 1.281 1.281 0 0 1-.147-.201c-.186-.314-.26-.706-.272-.998l-.096-4.523c-.02-.955.04-1.63.175-2.13.267-.992.828-1.3 1.64-1.746.132-.073.27-.15.416-.233 2.924-1.618 1.657-7.044-.276-9.988h-5.713c-1.807 2.937-2.844 8.363.148 9.988.143.08.28.153.41.222.841.448 1.42.755 1.73 1.756.155.501.243 1.177.263 2.131l.095 4.481zm.427-8.465c.509-.644 1.155-.997 1.616-1.248a21.399 21.399 0 0 0 .48-.267l.011-.007.011-.006c.619-.342 1.062-1.236.889-2.968-.135-1.35-.63-2.83-1.262-4.018h-3.856c-.58 1.185-1.012 2.663-1.09 4.013-.1 1.731.38 2.629 1.017 2.975l.013.006c.129.072.254.139.386.209l.093.05c.478.252 1.15.608 1.692 1.261zM12.238 3.171c.154-.05.3-.06.419-.06h2.479c.113 0 .262.008.418.06.177.057.323.156.438.28.09.099.151.204.177.248l.002.004.02.034c.02.036.033.058.053.088a1.5 1.5 0 0 1 .251.878c-.01.293-.102.55-.202.755a.41.41 0 0 0-.054.176 1.769 1.769 0 0 0 0 .153l.002.04c.002.068.005.156.005.253v5.681c0 .101.013.133.014.136l.008.013a.35.35 0 0 0 .05.05c.461.397.774.691 1.043 1.004.268.312.476.624.738 1.025.375.575.729 1.125.73 2.049V35.58c0 1.018-.84 1.792-1.814 1.792h-5.99c-.974 0-1.812-.775-1.812-1.792V16.037c0-.738.08-1.297.502-2.016.552-.94.932-1.299 1.766-2.049a.52.52 0 0 0 .117-.128.063.063 0 0 0 .005-.017.31.31 0 0 0 .006-.066V6.08c0-.217-.004-.289-.015-.348a.951.951 0 0 0-.103-.262 1.814 1.814 0 0 1-.21-.77 1.508 1.508 0 0 1 .254-.875 1.983 1.983 0 0 0 .086-.14c.032-.052.097-.155.195-.253.113-.114.253-.205.422-.26zm.41 1.54h.003-.002zm.253 0 .017.036c.12.236.205.452.25.696.04.222.04.436.04.626v5.692c0 .283-.055.554-.186.81-.126.248-.3.437-.47.59-.792.713-1.03.941-1.457 1.67-.234.398-.282.65-.282 1.207V35.58c0 .09.079.192.212.192h5.99c.134 0 .213-.102.213-.192V16.038c0-.42-.11-.625-.47-1.175-.262-.403-.42-.634-.61-.856-.191-.222-.432-.455-.873-.833a1.763 1.763 0 0 1-.488-.653 1.922 1.922 0 0 1-.141-.76V6.08c0-.046-.003-.096-.005-.15-.011-.28-.028-.675.213-1.17a.893.893 0 0 0 .022-.05H12.9zm2.247 0h-.004.004z" clip-rule="evenodd"/></symbol><symbol id="zen" viewBox="0 0 1024 1024"><path d="M506.352 0C295.31.02 149.076.722 74.013 74.023c-73.297 75.046-74 228.148-74 432.325 226.715-6.842 330.39-12.518 413.078-93.264 80.742-82.688 86.419-186.361 93.261-413.085zM74 949.984C.703 874.938 0 721.837 0 517.661c226.715 6.842 330.39 12.518 413.078 93.261 80.742 82.688 86.419 186.362 93.261 413.069-211.042 0-357.276-.685-432.34-74.006zm443.658 74.006c6.842-226.707 12.522-330.381 93.261-413.069 82.688-80.742 186.365-86.419 413.078-93.261-.019 204.176-.723 357.277-74.019 432.323-75.062 73.322-221.277 74.006-432.32 74.006zm0-1023.99c6.842 226.724 12.522 330.397 93.261 413.085 82.688 80.746 186.365 86.422 413.078 93.264-.019-204.177-.723-357.279-74.019-432.325C874.916.723 728.701.021 517.658.001z"/><path d="M610.918 610.922c-80.739 82.688-86.419 186.362-93.261 413.069 211.043 0 357.258-.685 432.32-74.006 73.296-75.046 74-228.147 74.019-432.323-226.714 6.842-330.39 12.518-413.078 93.261zM0 517.661c0 204.176.702 357.277 74 432.323 75.063 73.322 221.298 74.006 432.34 74.006-6.842-226.707-12.518-330.381-93.261-413.069C330.391 530.179 226.716 524.502.001 517.66zM506.352 0C295.31.02 149.076.722 74.013 74.023c-73.297 75.046-74 228.148-74 432.325 226.715-6.842 330.39-12.518 413.078-93.264 80.742-82.688 86.419-186.361 93.261-413.085zm104.566 413.085C530.179 330.397 524.499 226.724 517.657 0 728.7.02 874.915.722 949.977 74.023c73.296 75.046 74 228.148 74.019 432.325-226.714-6.842-330.39-12.518-413.078-93.264z"/></symbol></svg>