<svg width="228" height="141" viewBox="0 0 228 141" fill="none" xmlns="http://www.w3.org/2000/svg"><path d="M72.752 137c-4.75-3.806-8.52-13.796-9.55-21.013-.839-5.895 4.95-15.74 10.595-18.158 2.403-1.03 5.351-1.296 7.018-3.254 2.1-2.468 1.002-6.125-.2-9.098-2.123-5.23-4.27-10.528-5.009-16.095-.74-5.566.04-11.536 3.38-16.14 3.173-4.377 8.402-7.128 13.848-8.137 3.085-.572 6.498-.572 9.11 1.112 2.7 1.739 3.962 4.86 5.588 7.566 3.868 6.444 11.831 11.436 19.214 9.206 4.461-1.344 7.707-4.929 11.052-8.074 6.65-6.267 14.981-11.465 24.26-12.163 9.278-.698 19.408 4.186 22.262 12.709 2.209 6.613.134 14.74 4.852 20.014 2.677 2.991 6.941 4.22 9.941 6.917 6.082 5.472 7.84 16.869 2.092 22.504-7.135 6.98-7.367 23.561-.571 32.381-42.354.196-85.222-1.152-127.882-.277z" fill="#F5F5F7"/><path d="M136.5 141c35.622 0 64.5-1.567 64.5-3.5s-28.878-3.5-64.5-3.5-64.5 1.567-64.5 3.5 28.878 3.5 64.5 3.5z" fill="#EFEFF3"/><path d="M164.883 50.492c1.493-.646 3.391.26 4.019 1.764a3.635 3.635 0 01-.329-1.164c-.816-1.143-2.403-1.735-3.69-1.18-1.053.457-1.656 1.695-1.533 2.804a2.733 2.733 0 011.533-2.224zm24.317 6.19a16.133 16.133 0 013.194-1.05c1.184-.257 2.569-.334 3.471.47.469.432.749 1.032.782 1.67a2.642 2.642 0 00-.782-2.25c-.911-.804-2.284-.727-3.471-.47-1.098.24-2.168.59-3.194 1.05a4.083 4.083 0 00-.779.437 6.94 6.94 0 01-.431 1.006 2.869 2.869 0 011.21-.863zM173.605 45.31c.782-.202 1.63-.314 2.389-.034a3.707 3.707 0 011.624 1.359 7.726 7.726 0 011.464 4.311 7.796 7.796 0 00-1.464-4.892 3.714 3.714 0 00-1.624-1.355c-.759-.286-1.607-.169-2.389.031-1.55.398-3.054 1.17-4.038 2.43a4.734 4.734 0 00-1.008 3.186 4.838 4.838 0 011.008-2.605c.984-1.26 2.488-2.033 4.038-2.43zm12.456 8.579c.553-.132 1.164-.192 1.666.077a1.757 1.757 0 01.857 1.375v-.072c.068-.726-.212-1.538-.857-1.884-.502-.268-1.113-.206-1.666-.077-1.442.34-2.569.84-3.477 1.79a2.35 2.35 0 01-.182.778c.941-1.075 2.112-1.624 3.659-1.987zm-4.567-.941a2.175 2.175 0 011.062 1.698c.102-.886-.266-1.85-1.062-2.287-.796-.438-1.901-.183-2.569.457a7.118 7.118 0 01-.217.812c.651-.792 1.87-1.18 2.786-.68zm-21.235.646a2.906 2.906 0 013.425.666c-.17-.27-.28-.575-.322-.892a2.922 2.922 0 00-3.1-.354 3.077 3.077 0 00-1.555 2.996 3.032 3.032 0 011.552-2.416z" fill="#fff"/><path d="M188.426 56.539c.072-.224.12-.455.146-.689a2.28 2.28 0 000-.509 4.941 4.941 0 01-.571 1.624c.118-.164.261-.308.425-.426zm7.527 3.285h-35.391a5.663 5.663 0 01-1.607.235c-1.661-.017-4.281.217-6.099.343h43.097c.506-.78.751-1.702.699-2.63a4.549 4.549 0 01-.699 2.052zm-32.272-6.144a2.239 2.239 0 01-.331-.964 2.843 2.843 0 000 .652c.119.095.23.199.331.312zm18.895 1.407a3.1 3.1 0 000-.452 2.43 2.43 0 01-.174.649c.051-.057.111-.123.174-.197zm-3.651-2.259c.128-.619.181-1.25.157-1.882a7.787 7.787 0 01-.374 2.113c.069-.08.14-.157.217-.231zm-20.115 3.719a2.661 2.661 0 01-.106-.537c-.039.376-.003.756.106 1.118a3.264 3.264 0 001.997 2.044c.374-.114.748-.248 1.142-.386a3.288 3.288 0 01-3.139-2.239zm9.749-6.201c-.018.249-.013.498.014.746.132.177.242.369.329.572a3.66 3.66 0 01-.343-1.318zm-15.692 10.056h-2.095c.009.117.879.086 2.095 0zm35.129-3.437a1.358 1.358 0 00-.18.349l.18-.35zm0 .58a1.247 1.247 0 00-.18.35l.18-.35zm-24.315-3.285c.065.101.139.197.22.286a2.278 2.278 0 00-.22-.286zm18.712 1.616c-.209.241-.4.498-.571.769.251-.205.447-.47.571-.77zm-18.712-2.196c.065.101.139.197.22.286-.066-.1-.14-.196-.22-.286zm15.027-.62a2.002 2.002 0 00-.451 1.089c.181-.35.332-.715.451-1.09zm3.685 2.235a6.61 6.61 0 00-.571.77c.252-.205.448-.47.571-.77zm-3.685-1.655a2.014 2.014 0 00-.451 1.086c.182-.348.333-.712.451-1.086zM19.613 62.3c2.078-.895 4.716.36 5.589 2.45a5.03 5.03 0 01-.46-1.615c-1.141-1.584-3.336-2.413-5.137-1.638-1.464.632-2.3 2.353-2.13 3.897.146-1.298.925-2.568 2.138-3.094zm33.807 8.604a22.624 22.624 0 014.442-1.459c1.646-.357 3.559-.463 4.823.652a3.39 3.39 0 011.085 2.322c.094-1.19-.203-2.347-1.085-3.125-1.264-1.118-3.177-1.012-4.823-.655-1.527.332-3.015.82-4.441 1.458a6.11 6.11 0 00-1.085.606c-.16.483-.36.952-.596 1.401.388-.549 1.047-.915 1.68-1.2zM31.738 55.1c1.087-.285 2.263-.437 3.32-.045.933.346 1.669 1.084 2.26 1.884a10.746 10.746 0 012.032 6.005 10.844 10.844 0 00-2.032-6.8c-.591-.8-1.327-1.538-2.26-1.884-1.057-.391-2.233-.234-3.32.046-2.155.552-4.244 1.624-5.614 3.38a6.584 6.584 0 00-1.399 4.423 6.735 6.735 0 011.399-3.62c1.37-1.764 3.459-2.83 5.614-3.388zm17.299 11.92c.77-.18 1.621-.262 2.317.11a2.45 2.45 0 011.17 1.912c0-.031 0-.066.015-.1.097-1.01-.285-2.138-1.185-2.619-.696-.371-1.547-.286-2.317-.106-1.998.472-3.556 1.164-4.83 2.485a3.219 3.219 0 01-.256 1.08c1.321-1.5 2.948-2.255 5.086-2.761zm-6.317-1.303a3.005 3.005 0 011.473 2.359c.143-1.233-.37-2.574-1.472-3.165-1.162-.627-2.643-.252-3.588.637-.08.382-.18.759-.3 1.13.902-1.118 2.595-1.659 3.888-.961zm-29.534.895a4.043 4.043 0 014.767.926 3.063 3.063 0 01-.446-1.24 4.066 4.066 0 00-4.312-.492 4.285 4.285 0 00-2.16 4.166 4.239 4.239 0 012.151-3.36z" fill="#fff"/><path d="M52.336 70.703a4.3 4.3 0 00.203-.955 3.084 3.084 0 00-.015-.706 6.849 6.849 0 01-.785 2.259 2.63 2.63 0 01.597-.598zM62.8 75.27H13.622a7.905 7.905 0 01-2.235.331c-2.309-.025-5.94.3-8.48.475H62.8a6.089 6.089 0 00.97-3.657 6.314 6.314 0 01-.97 2.85zm-44.848-8.538a3.11 3.11 0 01-.46-1.338c-.033.3-.028.604.015.903.16.133.31.278.445.435zm26.258 1.97a3.83 3.83 0 00-.014-.626 3.21 3.21 0 01-.242.9c.082-.094.165-.185.257-.274zm-5.077-3.154c.176-.86.25-1.738.217-2.616a10.85 10.85 0 01-.517 2.94c.092-.116.192-.224.3-.324zm-27.962 5.17a3.923 3.923 0 01-.146-.746 4.078 4.078 0 00.146 1.552 4.54 4.54 0 002.786 2.842c.52-.16 1.039-.346 1.572-.535a4.561 4.561 0 01-4.358-3.113zm13.554-8.621a5.73 5.73 0 00.017 1.038c.184.253.339.526.46.815a5.093 5.093 0 01-.477-1.853zM2.914 76.076H0c.014.168 1.224.117 2.914 0zm48.826-4.775a1.75 1.75 0 00-.252.48c.086-.157.169-.32.252-.48zm0 .803c-.108.147-.193.31-.252.484.086-.16.169-.32.252-.484zm-33.787-4.566c.087.148.187.286.3.415a3.324 3.324 0 00-.3-.415zm25.997 2.245a9.142 9.142 0 00-.804 1.07 2.67 2.67 0 00.805-1.07zm-25.997-3.051c.089.146.192.283.308.409a3.326 3.326 0 00-.308-.409zm20.88-.861a2.741 2.741 0 00-.616 1.51c.245-.486.45-.991.616-1.51zm5.117 3.105a9.397 9.397 0 00-.804 1.07 2.67 2.67 0 00.805-1.07zm-5.117-2.298a2.734 2.734 0 00-.628 1.51c.249-.487.459-.991.628-1.51z" fill="#fff"/><path d="M111.448 15.21l.448-1.116.448 1.115a2.641 2.641 0 001.464 1.467l1.113.449-1.113.449a2.64 2.64 0 00-1.464 1.467l-.448 1.115-.448-1.115a2.645 2.645 0 00-1.464-1.467l-1.116-.449 1.116-.449a2.645 2.645 0 001.464-1.467zm32.725-7.95l.449-1.117.448 1.118a2.65 2.65 0 001.464 1.467l1.113.448-1.113.45a2.631 2.631 0 00-1.464 1.463l-.448 1.11-.449-1.118a2.637 2.637 0 00-1.464-1.456l-1.113-.449 1.113-.448a2.65 2.65 0 001.464-1.467z" fill="#FED1A1"/><path d="M149.399 49.92l-.228.572-.225-.572a1.339 1.339 0 00-.74-.74l-.571-.227.571-.225a1.324 1.324 0 00.74-.74l.225-.573.228.572a1.337 1.337 0 00.74.74l.57.227-.57.225a1.334 1.334 0 00-.74.74z" fill="#F7F6EB"/><path d="M122.699 47.106l-.228.572-.226-.572a1.336 1.336 0 00-.739-.74l-.571-.226.571-.226a1.329 1.329 0 00.739-.74l.226-.572.228.572a1.348 1.348 0 00.736.74l.571.226-.571.226a1.343 1.343 0 00-.736.74zm4.304-37.006l-.228.572-.226-.572a1.335 1.335 0 00-.739-.74l-.571-.226.571-.226a1.329 1.329 0 00.739-.74l.226-.573.228.572a1.335 1.335 0 00.739.74l.571.227-.571.225a1.329 1.329 0 00-.739.741z" fill="#FED1A1"/><path d="M160.345 24.98l-.134.337-.123-.338a.797.797 0 00-.442-.443l-.337-.137.337-.134a.808.808 0 00.442-.444l.134-.337.134.337a.816.816 0 00.443.444l.336.134-.336.137a.801.801 0 00-.454.443zm-56.56 7.725l-.134.337-.137-.337a.799.799 0 00-.443-.444l-.337-.137.337-.134a.786.786 0 00.443-.443l.137-.338.134.338a.781.781 0 00.442.443l.337.134-.337.137a.784.784 0 00-.442.444z" fill="#F7F6EB"/><path d="M135.001 5.831l-.137.338-.135-.338a.82.82 0 00-.442-.443l-.337-.134.337-.138a.798.798 0 00.442-.443l.135-.337.137.337a.78.78 0 00.442.443l.337.138-.337.134a.798.798 0 00-.442.443z" fill="#FED1A1"/><path d="M160.725 51.118l-.137.337-.134-.337a.797.797 0 00-.443-.443l-.337-.137.337-.135a.784.784 0 00.443-.443l.134-.337.137.337a.781.781 0 00.442.443l.337.135-.337.137a.785.785 0 00-.442.443zm-26.473-5.942l-.134.338-.134-.338a.797.797 0 00-.442-.443l-.337-.137.337-.134a.82.82 0 00.442-.444l.134-.337.134.338c.083.2.242.36.443.443l.336.134-.336.137a.798.798 0 00-.443.444z" fill="#F7F6EB"/><path d="M123.338 27.1l-.134.338-.137-.337a.797.797 0 00-.442-.443l-.337-.135.337-.137a.785.785 0 00.442-.443l.137-.338.134.338a.798.798 0 00.443.443l.336.137-.336.135a.818.818 0 00-.443.443z" fill="#FED1A1"/><path d="M130.725 61.986l.448-1.115.448 1.115a2.64 2.64 0 001.461 1.467l1.116.448-1.116.45a2.644 2.644 0 00-1.461 1.466l-.448 1.115-.448-1.115a2.657 2.657 0 00-1.462-1.467l-1.116-.449 1.116-.449a2.638 2.638 0 001.462-1.466zm21.82-5.184l.448-1.115.448 1.115a2.639 2.639 0 001.461 1.467l1.116.449-1.116.449a2.648 2.648 0 00-1.461 1.466l-.448 1.118-.448-1.118a2.661 2.661 0 00-1.464-1.466l-1.116-.45 1.116-.448a2.645 2.645 0 001.464-1.467z" fill="#F7F6EB"/><path d="M133.642 23.893l.336-.858.34.858a2.008 2.008 0 001.107 1.106l.857.34-.857.34a1.992 1.992 0 00-1.107 1.102l-.34.857-.336-.858a1.995 1.995 0 00-1.108-1.106l-.842-.323.842-.34a1.989 1.989 0 001.108-1.118z" fill="#FED1A1"/><path d="M120.107 50.071l.34-.857.34.857a1.994 1.994 0 001.104 1.11l.842.337-.842.34a2 2 0 00-1.104 1.11l-.34.843-.34-.843a1.996 1.996 0 00-1.104-1.11l-.842-.34.842-.337a2 2 0 001.104-1.11z" fill="#F7F6EB"/><path d="M164.038 32.473l.337-.858.34.858a2.004 2.004 0 001.104 1.107l.834.348-.842.338a1.995 1.995 0 00-1.105 1.11l-.337.84-.337-.858a1.998 1.998 0 00-1.107-1.11l-.839-.32.842-.34a1.997 1.997 0 001.11-1.115z" fill="#FED1A1"/><path d="M174.644 36.353a3.197 3.197 0 00-1.182 1.29 2.025 2.025 0 00-.031 1.715c.391.798 1.356 1.164 2.243 1.158a5.242 5.242 0 003.308-1.387c.365-.285.652-.659.834-1.086 1.107-3.08-3.771-2.605-5.172-1.69zm39.921 14.059a3.175 3.175 0 00-1.733.24 2.028 2.028 0 00-1.113 1.307c-.205.857.306 1.764.996 2.324a5.227 5.227 0 003.425 1.035c.464.013.924-.092 1.336-.306 2.834-1.67-1.239-4.409-2.911-4.6z" fill="#fff"/><path d="M100.22 46.346c.639.36 1.398.606 2.109.417.905-.24 1.51-1.163 1.613-2.095.102-.932-.214-1.862-.64-2.7a5.751 5.751 0 00-1.712-2.141 3.035 3.035 0 00-2.629-.492c-3.713 1.218-.79 5.859 1.259 7.011zM48.603 60.233c.642.36 1.398.61 2.11.42.904-.243 1.512-1.163 1.612-2.095.1-.932-.214-1.865-.64-2.7a5.718 5.718 0 00-1.712-2.141 3.03 3.03 0 00-2.626-.495c-3.707 1.221-.79 5.867 1.256 7.011z" stroke="#fff" stroke-miterlimit="10"/><path d="M73.197 47.621c.194-.196.305-.459.311-.735a.89.89 0 00-.64-.743 1.79 1.79 0 00-1.024.029 2.119 2.119 0 00-.905.463 1.144 1.144 0 00-.376.918c.162 1.438 2.063.726 2.634.068zm131.356 13.781c.26-.09.477-.275.605-.52a.887.887 0 00-.24-.95 1.792 1.792 0 00-.93-.434 2.11 2.11 0 00-1.017 0 1.114 1.114 0 00-.744.652c-.497 1.37 1.529 1.584 2.326 1.252zm-76.717-3.119a1.08 1.08 0 00.605-.52.881.881 0 00-.239-.95 1.805 1.805 0 00-.928-.434 2.154 2.154 0 00-1.019 0 1.118 1.118 0 00-.745.652c-.496 1.37 1.521 1.584 2.326 1.252z" stroke="#fff" stroke-width=".71" stroke-miterlimit="10"/><path d="M190.183 80.662c1.761-1.027 3.673-1.97 5.723-1.987 2.049-.017 4.222 1.144 4.764 3.113.484 1.743-.424 3.626-1.786 4.824-1.363 1.197-3.082 1.853-4.754 2.535-8.586 3.497-19.006 8.917-26.307 14.629 1.375-1.079 3.094-6.191 6.051-9.064 1.362-1.325 2.435-2.272 3.717-3.673 3.684-4.04 7.859-7.612 12.592-10.377z" fill="#7584E7"/><path d="M197.521 82.208c-9.82 4.23-21.496 11.61-29.355 20.963" stroke="#E8E8E8" stroke-width=".71" stroke-linecap="round" stroke-linejoin="round"/><path d="M132.293 58.068c.922-1.822 2.016-3.654 3.72-4.777 1.704-1.123 4.165-1.336 5.688.021 1.348 1.202 1.603 3.283 1.113 5.022-.489 1.739-1.583 3.235-2.617 4.717-5.314 7.608-11.128 17.821-14.161 26.594.573-1.654-.756-6.881.17-10.903.424-1.853.812-3.231 1.13-5.106.911-5.402 2.479-10.674 4.957-15.568z" fill="#7584E7"/><path d="M139.292 55.374c-5.954 8.894-11.757 21.445-13.283 33.568" stroke="#E8E8E8" stroke-width=".71" stroke-linecap="round" stroke-linejoin="round"/><path d="M68.472 77.184c2.378 2.217 6.292 1.752 8.942 3.637a19.856 19.856 0 00-4.706-.914c-.666-.048-1.356-.057-1.978.186-.623.244-1.163.797-1.201 1.464-.052.753.55 1.433 1.257 1.701.707.269 1.487.21 2.239.102 1.357-.19 2.694-.516 4.058-.647 1.364-.13 2.787-.054 4.026.53a16.416 16.416 0 00-5.74.636c-.53.157-1.067.352-1.465.745-.397.392-.59 1.032-.321 1.517.183.294.468.51.8.603 1.324.432 2.67-.415 3.95-.975a10.002 10.002 0 015.548-.714l-3.154.823c-.853.223-1.742.46-2.401 1.044-.434.377-.754 1.03-.453 1.522.2.325.607.458.988.487 1.088.077 2.096-.51 3.078-.992 1.833-.897 3.355-1.556 5.85-1.688.247-.094.407-.612.096-.874-.31-.261-.87-.58-1.192-.827-1.046-.801-1.919-2.641-2.056-4.149-.138-1.507-.05-2.458-.004-3.97.013-.39.004-.796-.18-1.14-.184-.343-.599-.591-.966-.464a1.019 1.019 0 00-.525.537c-.402.79-.351 1.724-.306 2.61l.173 2.971c.013.229-.014.52-.231.59-1.099-2.382-.576-5.262-1.615-7.671-.164-.374-.396-.762-.783-.893-.676-.23-1.347.521-1.365 1.236-.019.716.37 1.366.666 2.018a8.448 8.448 0 01.717 4.205c-.272.17-.556-.2-.66-.504-.453-1.33-.806-2.698-1.405-3.968-.598-1.27-1.48-2.46-2.723-3.11-.33-.197-.71-.29-1.093-.269-.38.046-.752.318-.807.696-.016.181.01.364.074.534.761 2.405 3.351 3.772 4.466 6.036-1.037-.968-2.415-2.112-3.715-2.881a15.357 15.357 0 00-2.175-.967c-1.118-.4-1.865-.65-3.012-.561-.836.066-1.473 1.024-.696 1.748z" fill="#3B496C"/><path d="M91.865 56.873c4.193 2.935 6.928 7.631 8.439 12.533 1.511 4.9 1.93 10.068 2.338 15.186" stroke="#3D4868" stroke-width="1.46" stroke-miterlimit="10"/><path d="M90.018 56.367c.372.33.87.467 1.35.6l1.055.281a5.813 5.813 0 00-.83-1.673c-.302-.378-1.11-1.035-1.65-.8-.65.288-.318 1.246.075 1.592z" fill="#3B4A6A"/><path d="M92.34 58.416a2.06 2.06 0 00-1.595.85c-.28.428-.314 1.064.063 1.409.376.344.984.266 1.458.065a3.817 3.817 0 001.643-1.349c.307-.446.272-.637-.223-.79a3.663 3.663 0 00-1.346-.185zm3.057-.071c.093-.538.331-1.04.689-1.453a1.29 1.29 0 01.728-.44.673.673 0 01.725.34.84.84 0 01.054.397c-.054.94-.723 1.722-1.419 2.368-.13.132-.28.243-.443.33-.238.11-.346.135-.38-.132a4.5 4.5 0 01.046-1.41zm7.466 15.642a2.993 2.993 0 011.581-.288c.292.017.57.133.787.329a.679.679 0 01.148.79.84.84 0 01-.29.276c-.794.507-1.819.417-2.739.227a1.757 1.757 0 01-.526-.17c-.228-.126-.312-.2-.116-.382.341-.32.731-.584 1.155-.782zm-.659-2.727a3 3 0 011.542-.445c.289-.011.574.075.809.245a.68.68 0 01.226.77.838.838 0 01-.26.305c-.74.582-1.769.597-2.7.503a1.847 1.847 0 01-.54-.115c-.239-.105-.331-.168-.153-.37a4.42 4.42 0 011.076-.892zm-2.815-.166a3.006 3.006 0 01-1.532.481 1.285 1.285 0 01-.816-.229.68.68 0 01-.245-.764.874.874 0 01.256-.31c.726-.6 1.754-.636 2.69-.56.186.005.368.04.542.102.244.099.336.16.163.367a4.51 4.51 0 01-1.058.913z" fill="#3D4868"/><path d="M101.322 68.576a2.989 2.989 0 011.343-.88c.274-.096.572-.097.847-.002a.683.683 0 01.442.67.873.873 0 01-.162.366c-.537.775-1.52 1.099-2.438 1.274-.179.044-.365.06-.549.048-.261-.028-.365-.064-.256-.31a4.45 4.45 0 01.773-1.166zm-2.567-4.809c.092-.538.33-1.041.686-1.454.186-.225.443-.38.728-.441a.677.677 0 01.726.34c.05.125.069.262.054.398-.053.941-.724 1.722-1.42 2.368a1.81 1.81 0 01-.442.327c-.237.111-.345.139-.38-.128a4.504 4.504 0 01.048-1.41zm4.666 13.186a2.99 2.99 0 011.571-.328c.289.01.567.118.788.305a.68.68 0 01.168.785.855.855 0 01-.284.284c-.775.527-1.804.457-2.733.296a1.869 1.869 0 01-.529-.155c-.228-.126-.318-.193-.126-.382a4.49 4.49 0 011.145-.805zM97.46 65.046a2.98 2.98 0 00-1.605.055c-.279.079-.523.25-.694.485a.68.68 0 00.024.804.848.848 0 00.343.207c.882.324 1.865.019 2.725-.364a1.87 1.87 0 00.475-.277c.198-.175.265-.264.033-.402a4.493 4.493 0 00-1.301-.508zm3.363 13.588a2.989 2.989 0 00-1.604.055 1.28 1.28 0 00-.692.486.68.68 0 00.022.803.85.85 0 00.343.207c.884.325 1.866.02 2.725-.364a1.78 1.78 0 00.477-.277c.196-.175.262-.264.033-.401a4.51 4.51 0 00-1.304-.509zm-4.434-14.525c-.466.283-1 .434-1.545.437a1.29 1.29 0 01-.81-.25.677.677 0 01-.22-.77.847.847 0 01.262-.304c.743-.578 1.776-.585 2.706-.487.184.012.365.052.537.118.242.107.333.17.154.371a4.42 4.42 0 01-1.084.885zm4.329 12.329a2.552 2.552 0 01-1.336.371 1.111 1.111 0 01-.695-.215.584.584 0 01-.19-.663.75.75 0 01.226-.26c.638-.499 1.524-.506 2.324-.412.159.01.315.043.463.101.207.09.285.146.133.317a3.87 3.87 0 01-.925.761zm-7.325-15.663c-.25.14-.461.34-.615.581a.83.83 0 00-.032.817.79.79 0 00.402.325 1.287 1.287 0 001.06-.124 3.18 3.18 0 00.822-.722c.288-.325.954-1.245.177-1.335a2.863 2.863 0 00-1.814.458zm5.499 11.658c-.25.138-.462.338-.614.581a.828.828 0 00-.032.817c.094.15.236.264.403.323a1.29 1.29 0 001.058-.122c.314-.191.592-.435.822-.722.289-.325.952-1.246.178-1.335a2.863 2.863 0 00-1.815.458zm-.025-11.36c.099-.27.13-.56.09-.843a.833.833 0 00-.509-.641.777.777 0 00-.516.017 1.294 1.294 0 00-.722.782 3.19 3.19 0 00-.156 1.086c-.003.444.083 1.564.73 1.131a2.875 2.875 0 001.082-1.532zm5.513 19.995a1.7 1.7 0 00.811-.245.834.834 0 00.395-.715.78.78 0 00-.224-.473 1.273 1.273 0 00-1.007-.369c-.366.03-.724.123-1.058.275-.412.168-1.406.677-.758 1.114a2.86 2.86 0 001.841.413zm-4.1.121c-.282.05-.547.17-.771.349a.85.85 0 00-.298.762.78.78 0 00.277.437 1.27 1.27 0 001.038.23 3.229 3.229 0 001.013-.408c.385-.22 1.308-.865.606-1.203a2.86 2.86 0 00-1.865-.167zm-2.736-14.006a1.718 1.718 0 00-.781.324.85.85 0 00-.32.754c.035.174.128.33.263.445a1.285 1.285 0 001.033.261 3.22 3.22 0 001.024-.381c.391-.208 1.332-.825.64-1.184a2.854 2.854 0 00-1.859-.22zm-3.959-11.635a.826.826 0 01.498-.56.646.646 0 01.701.423c.094.285.106.59.036.882a7.818 7.818 0 01-.592 1.924.58.58 0 01-.17.242c-.37.263-.556-.99-.592-1.213a3.31 3.31 0 01.119-1.698zm6.823 10.006c.255-.454.601-.85 1.016-1.165a2.215 2.215 0 011.453-.437 1.039 1.039 0 01.881.532c.157.351.006.765-.198 1.104a4.05 4.05 0 01-2.47 1.785c-.313.07-1.28.294-1.382-.038-.06-.205.19-.703.259-.907.122-.303.269-.596.441-.874z" fill="#3D4868"/><path d="M75.872 83.851c-2.022-.262-4.148-.386-6.035.39-1.888.777-3.439 2.701-3.183 4.723.232 1.794 1.806 3.174 3.518 3.75 1.711.575 3.56.51 5.365.486 9.268-.12 20.972.813 29.912 3.24-1.688-.454-5.252-4.498-9.09-5.995-1.771-.692-3.126-1.148-4.843-1.94-4.978-2.284-10.21-3.95-15.644-4.654z" fill="#7584E7"/><path d="M69.71 88.13c10.689.076 24.31 2.332 35.176 7.892" stroke="#E8E8E8" stroke-width=".71" stroke-linecap="round" stroke-linejoin="round"/><path d="M197.711 76.61c-5.115-.312-10.15 1.663-14.386 4.568-4.235 2.905-7.757 6.687-11.25 10.444" stroke="#3D4868" stroke-width="1.46" stroke-miterlimit="10"/><path d="M199.471 77.37c-.497.026-.973-.174-1.43-.371l-1.011-.437a5.782 5.782 0 011.688-.797c.471-.108 1.519-.122 1.79.4.342.639-.514 1.178-1.037 1.205z" fill="#3B4A6A"/><path d="M196.389 77.53a2.079 2.079 0 01.72 1.66c-.044.508-.414 1.023-.924 1.064-.51.04-.934-.403-1.181-.857a3.824 3.824 0 01-.443-2.087c.037-.54.183-.667.665-.48.427.16.821.397 1.163.7zm-2.359-1.963c.26-.48.385-1.021.363-1.567a1.305 1.305 0 00-.29-.799.68.68 0 00-.784-.195.85.85 0 00-.289.278c-.54.77-.501 1.8-.355 2.73.021.185.069.364.143.534.117.235.185.322.379.135.333-.327.614-.703.833-1.116zm-15.553 7.613a3 3 0 00-1.057-1.222 1.289 1.289 0 00-.813-.23.679.679 0 00-.606.526.847.847 0 00.058.398c.308.89 1.166 1.457 2.004 1.882.158.092.33.159.508.198.261.042.371.038.332-.228a4.539 4.539 0 00-.426-1.324zm2.202-1.726a3.002 3.002 0 00-.932-1.31 1.292 1.292 0 00-.786-.31.678.678 0 00-.656.461.87.87 0 00.017.403c.218.915 1.016 1.567 1.807 2.074.152.106.318.188.494.245.245.07.365.075.352-.195a4.457 4.457 0 00-.296-1.368zm2.315 1.622c.175.518.487.978.903 1.332.214.193.486.309.773.33a.676.676 0 00.667-.448.9.9 0 00-.008-.403c-.198-.92-.981-1.59-1.76-2.112a1.842 1.842 0 00-.488-.256c-.247-.075-.363-.082-.357.186.019.468.111.93.27 1.371z" fill="#3D4868"/><path d="M183.038 79.901a3.001 3.001 0 00-.507-1.527 1.305 1.305 0 00-.66-.529.68.68 0 00-.765.245.835.835 0 00-.099.388c-.061.94.51 1.796 1.12 2.515.113.146.248.273.399.378.226.151.326.18.394-.081a4.51 4.51 0 00.118-1.389zm4.997-2.171c.261-.48.387-1.022.363-1.568a1.3 1.3 0 00-.288-.8.682.682 0 00-.78-.184.854.854 0 00-.289.28c-.54.767-.501 1.798-.356 2.728.021.184.07.364.144.533.118.237.185.324.379.135a4.39 4.39 0 00.827-1.125zm-11.831 7.428a3 3 0 00-1.027-1.231 1.287 1.287 0 00-.808-.252.675.675 0 00-.618.51.862.862 0 00.047.399c.286.898 1.128 1.487 1.952 1.934.159.095.331.165.511.209.258.049.369.047.337-.222a4.56 4.56 0 00-.394-1.347zm12.058-5.622c.494.23.917.591 1.223 1.044.169.236.254.523.244.813a.68.68 0 01-.518.611.83.83 0 01-.398-.05c-.894-.296-1.478-1.145-1.909-1.981a1.826 1.826 0 01-.202-.513c-.045-.26-.042-.37.223-.335.464.067.915.206 1.337.41zm-11.067 8.554c.494.23.917.59 1.222 1.043.171.235.257.522.244.813a.684.684 0 01-.517.612.833.833 0 01-.399-.051c-.891-.295-1.478-1.145-1.909-1.98a1.979 1.979 0 01-.202-.514c-.045-.26-.042-.37.225-.335.464.067.915.206 1.336.413zm12.483-8.62c.189.512.514.963.939 1.304.221.188.498.296.788.308a.676.676 0 00.653-.465.854.854 0 00-.02-.402c-.22-.915-1.021-1.564-1.816-2.067a1.959 1.959 0 00-.495-.243c-.245-.068-.366-.07-.351.198.029.468.131.93.302 1.367zm-11.04 6.964c.16.441.438.83.804 1.125.19.161.429.254.678.264a.577.577 0 00.561-.402.734.734 0 00-.014-.346c-.191-.788-.875-1.347-1.564-1.777a1.577 1.577 0 00-.427-.21c-.218-.056-.313-.061-.302.169.026.404.115.801.264 1.177zm15.456-7.713c.108.266.149.555.119.84a.838.838 0 01-.481.66.787.787 0 01-.518.003 1.315 1.315 0 01-.753-.755 3.216 3.216 0 01-.194-1.077c-.022-.439.025-1.568.687-1.158a2.87 2.87 0 011.14 1.487zm-11.541 5.722c.109.266.151.554.121.84a.828.828 0 01-.484.658.78.78 0 01-.516.003 1.291 1.291 0 01-.752-.754 3.225 3.225 0 01-.197-1.078c-.022-.439.025-1.568.688-1.156a2.87 2.87 0 011.14 1.487zm7.065-8.894a1.74 1.74 0 01.453-.716.84.84 0 01.796-.188.804.804 0 01.394.335 1.3 1.3 0 01.081 1.064 3.214 3.214 0 01-.554.949c-.271.35-1.038 1.175-1.273.43a2.877 2.877 0 01.103-1.874zm-16.721 12.237a1.712 1.712 0 01-.483-.697.836.836 0 01.134-.808.791.791 0 01.462-.232 1.286 1.286 0 011.014.344c.266.253.489.549.657.875.219.387.674 1.416-.097 1.344a2.868 2.868 0 01-1.687-.826zm3.137 2.644c.191.215.324.474.388.754a.826.826 0 01-.239.781.771.771 0 01-.488.172 1.292 1.292 0 01-.958-.465 3.235 3.235 0 01-.534-.943c-.167-.412-.489-1.49.271-1.32a2.856 2.856 0 011.56 1.021zm10.832-9.27c.195.208.336.463.409.74a.841.841 0 01-.215.789.787.787 0 01-.484.186 1.282 1.282 0 01-.97-.439 3.135 3.135 0 01-.564-.934c-.179-.406-.534-1.476.233-1.327a2.86 2.86 0 011.591.984zm10.318-6.654a.819.819 0 00-.044-.746.645.645 0 00-.811-.108 1.627 1.627 0 00-.574.67 7.776 7.776 0 00-.736 1.878.583.583 0 00-.019.296c.138.433 1.051-.43 1.218-.581a3.3 3.3 0 00.966-1.409zm-11.552 3.602a3.742 3.742 0 00-.071-1.537 2.223 2.223 0 00-.873-1.25 1.038 1.038 0 00-1.021-.13c-.341.178-.476.598-.529.978a4.074 4.074 0 00.826 2.946c.201.259.819 1.026 1.109.824.182-.125.287-.67.351-.873.097-.312.167-.633.208-.958z" fill="#3D4868"/><path d="M117.903 56.214c-.373.095-.6.586-.653 1.012a6.514 6.514 0 00-3.582-5.096c-.901-.424-2.119-.602-2.677.47-.252.482-.297 1.637-.161 2.165a7.68 7.68 0 002.052 3.67 2.206 2.206 0 00-.513-.164 1.24 1.24 0 00-1.563.78c-.07.206-.085.425-.044.638.068.71.372 1.375.863 1.89.45.472.958.883 1.513 1.225h-.197a1.984 1.984 0 00-.227.023.83.83 0 00-.635.23 1.47 1.47 0 00-.439.384 1.89 1.89 0 00-.311.773c-.044.278-.024.563.056.832.17.539.46 1.032.848 1.442a9.345 9.345 0 003.442 2.401c.259.109.522.213.787.3a5.095 5.095 0 00-.649-.024 1.693 1.693 0 00-.992.274 1.326 1.326 0 00-.409 1.323 4.21 4.21 0 00.719 1.514c1.333 1.66 5.298 4.195 8.662 5.56a62.97 62.97 0 00-5.299-21.635 1.442 1.442 0 00-.591.013zm.848 13.607l-.06-.027.06.027z" fill="#D98784"/><path d="M125.529 67.297c-.212-.703-.617-1.425-1.242-1.811-.625-.387-1.643-.172-1.8.545.039-1.656-.046-3.335-.54-4.917-.494-1.582-1.168-3.24-2.378-4.37a2.06 2.06 0 00-1.079-.545 62.97 62.97 0 015.299 21.636c.18.072.36.144.536.212a.536.536 0 00.748-.374c.35-1.957 1.223-7.835.456-10.376z" fill="#C47A77"/><path d="M113.155 53.447c4.807 7.692 8.13 16.205 11.424 24.66M118.751 57.9c.641 1.951.677 4.052.101 6.025" stroke="#E8C79A" stroke-width=".62" stroke-linecap="round" stroke-linejoin="round"/><path d="M117.771 61.98c.032-.072-.063-.13-.139-.15a12.931 12.931 0 01-4.606-2.287m7.333 8.096a18.05 18.05 0 01-6.299-3.162m9.737 2.368a24.1 24.1 0 01.187 3.681 7.993 7.993 0 01-.939 3.538m-.365-.824a24.55 24.55 0 01-6.7-2.73" stroke="#E8C79A" stroke-width=".62" stroke-linecap="round" stroke-linejoin="round"/><path d="M114.168 62.173a.71.71 0 01-.521-.282.494.494 0 01-.131-.471c.133-.36.684-.298.888-.047.231.276.241.8-.236.8zm-.28-4.148a.43.43 0 01-.309-.168.29.29 0 01-.079-.28c.081-.213.407-.174.528-.028.121.147.14.476-.14.476zm-1.329-2.525a.625.625 0 01-.436.297.44.44 0 01-.424-.087c-.229-.25.044-.662.324-.722.318-.066.727.134.536.512zm3.784.563a.588.588 0 01-.397.271.398.398 0 01-.385-.08c-.212-.227.04-.603.294-.656.289-.062.662.12.488.465zm-2.109 10.342a.43.43 0 01-.297.202.298.298 0 01-.288-.06c-.155-.17.031-.45.212-.49.18-.04.504.091.373.348zm1.702-2.391a.424.424 0 01-.354-.053.307.307 0 01-.118-.097.306.306 0 01-.054-.143c0-.23.329-.308.494-.212.165.096.303.408.032.505zm-2.97.376a.417.417 0 01-.267.24.305.305 0 01-.294-.023c-.174-.151-.026-.45.157-.514.182-.064.502.027.404.297z" fill="#E0A95D"/><path d="M80.284 66.489c-.294.248-.284.787-.146 1.195a6.505 6.505 0 00-5.439-3.02c-.996 0-2.163.379-2.204 1.589-.019.546.443 1.603.795 2.021a7.644 7.644 0 003.45 2.412c-.18.005-.358.03-.531.077a1.414 1.414 0 00-.995.785 1.448 1.448 0 00.162 1.194 3.18 3.18 0 001.6 1.316c.606.23 1.24.381 1.884.45a1.633 1.633 0 00-.373.206.848.848 0 00-.475.482 1.546 1.546 0 00-.227.537 1.873 1.873 0 00.471 1.557c.384.411.857.73 1.382.932a9.294 9.294 0 004.14.66c.281-.015.56-.04.847-.074a5.114 5.114 0 00-.596.263c-.321.14-.59.378-.771.68a1.325 1.325 0 00.212 1.369 4.2 4.2 0 001.305 1.049c1.923.913 6.6 1.463 10.216 1.227a62.9 62.9 0 00-14.183-17.169c-.19.05-.369.14-.524.262z" fill="#D98784"/><path d="M91.967 73.14c-.498-.54-1.176-1.014-1.907-1.09-.732-.077-1.554.562-1.382 1.273-.687-1.507-1.484-2.983-2.624-4.19-1.14-1.21-2.461-2.41-4.04-2.9a2.06 2.06 0 00-1.208-.018 62.9 62.9 0 0114.17 17.166c.194-.013.387-.027.573-.044a.532.532 0 00.514-.423.535.535 0 00-.003-.238c-.53-1.91-2.3-7.584-4.093-9.535z" fill="#C47A77"/><path d="M74.807 66.068C82.48 70.897 89.17 77.11 95.81 83.286M81.78 67.635a10.171 10.171 0 012.71 5.387" stroke="#E8C79A" stroke-width=".62" stroke-linecap="round" stroke-linejoin="round"/><path d="M82.675 71.735c0-.08-.114-.089-.193-.074-1.7.327-3.447.31-5.14-.051m10.119 4.094a18.08 18.08 0 01-7.043-.1m9.792-2.117a23.787 23.787 0 011.768 3.234 7.981 7.981 0 01.693 3.592m-.685-.582a24.47 24.47 0 01-7.219.465" stroke="#E8C79A" stroke-width=".62" stroke-linecap="round" stroke-linejoin="round"/><path d="M79.508 73.474a.708.708 0 01-.593-.027.5.5 0 01-.322-.368c-.036-.38.49-.565.78-.424.335.155.566.611.135.82zm-2.051-3.605a.423.423 0 01-.352-.017.293.293 0 01-.19-.213c-.022-.227.29-.335.461-.254.172.08.335.36.08.484zm-2.293-1.692a.64.64 0 01-.263.456.437.437 0 01-.424.106c-.316-.125-.248-.613-.021-.79.227-.176.716-.197.708.228zm3.65-1.145a.575.575 0 01-.238.425.406.406 0 01-.383.095c-.287-.114-.225-.56-.02-.72.206-.159.649-.18.64.2zm2.589 10.236a.425.425 0 01-.178.313.303.303 0 01-.286.072c-.212-.087-.167-.425-.015-.538.153-.112.492-.14.48.153zm.503-2.9a.435.435 0 01-.344.108.303.303 0 01-.258-.142c-.098-.212.16-.425.354-.404.193.022.447.232.248.438zm-2.512 1.627a.426.426 0 01-.137.33.3.3 0 01-.274.107c-.222-.058-.212-.393-.082-.531.129-.138.464-.185.493.094z" fill="#E0A95D"/><path d="M168.532 58.083A63.013 63.013 0 00158.183 77.8c3.588-.514 8.054-2.015 9.75-3.302a4.215 4.215 0 001.059-1.297 1.32 1.32 0 00-.078-1.382 1.694 1.694 0 00-.895-.506 5.028 5.028 0 00-.635-.134c.279-.025.557-.057.835-.102a9.315 9.315 0 003.919-1.496 3.695 3.695 0 001.159-1.198 1.877 1.877 0 00.142-1.62 1.561 1.561 0 00-.333-.478.828.828 0 00-.561-.376c-.07-.03-.14-.056-.212-.078a2.963 2.963 0 00-.193-.045 7.617 7.617 0 001.765-.823c.6-.38 1.055-.951 1.293-1.62a1.24 1.24 0 00-.591-1.646 1.24 1.24 0 00-.628-.117 2.242 2.242 0 00-.536.034 7.649 7.649 0 002.874-3.066c.259-.48.494-1.611.365-2.14-.288-1.176-1.507-1.3-2.484-1.102a6.492 6.492 0 00-4.703 4.075c.05-.425-.049-.958-.388-1.14a1.463 1.463 0 00-.575-.158zm-3.48 13.145l-.063.013.063-.013z" fill="#D98784"/><path d="M159.031 67.154c.375-.637.941-1.234 1.64-1.459.7-.225 1.637.23 1.615.966.363-1.616.848-3.227 1.709-4.641.86-1.414 1.907-2.864 3.359-3.67a2.074 2.074 0 011.179-.267 62.994 62.994 0 00-10.35 19.717l-.57.076a.536.536 0 01-.636-.543c.129-1.983.697-7.901 2.054-10.18z" fill="#C47A77"/><path d="M174.374 56.693c-6.518 6.306-11.791 13.763-17.024 21.17m10.521-18.198a10.183 10.183 0 00-1.549 5.824" stroke="#E8C79A" stroke-width=".62" stroke-linecap="round" stroke-linejoin="round"/><path d="M167.833 63.867c-.012-.078.096-.11.174-.112a12.905 12.905 0 005.021-1.117m-9.063 6.096a17.995 17.995 0 006.874-1.546m-10.017-.055a23.714 23.714 0 00-1.06 3.528 7.952 7.952 0 00.059 3.657m.543-.709a24.55 24.55 0 007.16-1.03" stroke="#E8C79A" stroke-width=".62" stroke-linecap="round" stroke-linejoin="round"/><path d="M171.29 64.918a.712.712 0 00.577-.149.505.505 0 00.239-.424c-.042-.38-.593-.453-.848-.26-.297.22-.43.716.032.833zm1.27-3.951a.423.423 0 00.341-.087.296.296 0 00.142-.253c-.026-.225-.352-.27-.505-.155-.152.115-.252.427.022.495zm1.899-2.13a.617.617 0 00.349.395.442.442 0 00.424.017c.282-.187.117-.652-.14-.777-.284-.142-.731-.047-.633.365zm-3.809-.367a.574.574 0 00.32.359.404.404 0 00.394.017c.257-.172.106-.595-.129-.71-.235-.114-.672-.042-.585.334zm-.443 10.537a.421.421 0 00.239.27.301.301 0 00.293.01c.193-.127.08-.443-.096-.528-.175-.085-.502-.023-.436.248zm-1.077-2.722a.424.424 0 00.356.034.295.295 0 00.137-.066.297.297 0 00.088-.125c.053-.225-.244-.378-.424-.322-.18.055-.394.318-.157.48zm2.792 1.083a.42.42 0 00.201.295.3.3 0 00.29.05c.212-.103.136-.425-.027-.536-.163-.11-.494-.095-.464.191z" fill="#E0A95D"/><path d="M145.026 71.331c.212.198.411.385.636.567a4.782 4.782 0 00-.598-.259 1.701 1.701 0 00-1.023-.104 1.32 1.32 0 00-.859 1.085 4.172 4.172 0 00.121 1.671c.676 2.14 3.73 6.253 6.481 8.722a.538.538 0 00.831-.076c1.037-1.699 3.978-6.856 4.186-9.502.055-.732-.059-1.552-.5-2.14-.441-.588-1.471-.756-1.876-.144.636-1.529 1.166-3.126 1.272-4.778.106-1.651.087-3.446-.636-4.938a1.885 1.885 0 00-1.363-1.1c-.381-.047-.769.329-.975.707a6.516 6.516 0 00-1.483-6.045c-.685-.726-1.751-1.33-2.662-.537-.412.359-.872 1.418-.937 1.96a7.683 7.683 0 00.583 4.165 2.258 2.258 0 00-.424-.34 1.25 1.25 0 00-1.216-.206 1.25 1.25 0 00-.796.943 3.197 3.197 0 00.123 2.07c.249.606.573 1.177.967 1.7a2.032 2.032 0 00-.183-.075 4.157 4.157 0 00-.211-.06.851.851 0 00-.677-.019 1.523 1.523 0 00-.546.2 1.86 1.86 0 00-.831 1.393 3.75 3.75 0 00.258 1.65 9.33 9.33 0 002.338 3.49zm2.49 1.947c.011.015.024.028.037.043l-.037-.043z" fill="#D98784"/><path d="M148.277 56.031c1.696 8.918 1.696 18.048 1.711 27.13m1.891-20.947a10.174 10.174 0 01-2.09 5.652" stroke="#E8C79A" stroke-width=".62" stroke-linecap="round" stroke-linejoin="round"/><path d="M149.492 65.662c.055-.055-.013-.144-.077-.191a12.94 12.94 0 01-3.463-3.807m3.896 10.211a18.057 18.057 0 01-4.722-5.236m8.213 5.743a23.945 23.945 0 01-1.16 3.502 7.97 7.97 0 01-2.155 2.953m-.041-.9a24.55 24.55 0 01-5.256-4.98" stroke="#E8C79A" stroke-width=".62" stroke-linecap="round" stroke-linejoin="round"/><path d="M146.054 64.524a.705.705 0 01-.383-.454.508.508 0 01.048-.486c.255-.287.746-.028.848.28.123.348-.059.84-.513.66zm1.249-3.96a.415.415 0 01-.229-.27.301.301 0 01.029-.288c.151-.17.441-.015.501.165.059.18-.039.5-.301.393zm-.325-2.836a.632.632 0 01-.513.118.442.442 0 01-.364-.235c-.123-.316.281-.599.563-.554.32.053.63.388.314.67zm3.315 1.9a.564.564 0 01-.468.108.4.4 0 01-.331-.212c-.11-.289.257-.546.513-.505.299.046.581.352.286.609zm-5.706 8.869a.42.42 0 01-.347.082.298.298 0 01-.248-.16c-.083-.213.19-.409.381-.377.191.032.43.272.214.455zm2.453-1.607a.426.426 0 01-.31-.179.296.296 0 01-.074-.284c.087-.213.424-.17.536-.018.112.153.134.487-.152.48zm-2.894-.729a.429.429 0 01-.337.126.3.3 0 01-.264-.13c-.111-.212.137-.425.332-.425s.45.213.269.43z" fill="#E0A95D"/><path d="M122.889 42.084c0-.051.017-.102.021-.153.062-.68-.093-1.486-.691-1.805-.729-.405-1.68.18-2.007.952a1.797 1.797 0 00.164-1.464 1.796 1.796 0 00-3.058-.65 1.81 1.81 0 00-.372.655 8.94 8.94 0 001.721 1.355 7.83 7.83 0 004.222 1.11z" fill="#E0B534"/><path d="M118.667 40.978a8.944 8.944 0 01-1.721-1.355c-.071.205-.104.42-.097.637a3.827 3.827 0 00-2.16-1.764c-.52-.175-1.134-.213-1.577.104-.568.424-.619 1.273-.369 1.934.25.66.729 1.204 1.06 1.82a1.353 1.353 0 00-2.031.28 1.702 1.702 0 00.036 1.577c.275.477.651.888 1.103 1.202 1.239.947 2.509 1.684 4.238 1.926a2.903 2.903 0 001.969-.348c.982-.637 1.639-1 2.385-1.9a5.946 5.946 0 001.386-3.007 7.833 7.833 0 01-4.222-1.106z" fill="#E0A23C"/><path d="M118.73 47.413a5.91 5.91 0 002.349-1.437.808.808 0 00.235-.35.302.302 0 00-.152-.36.426.426 0 00-.323.054 4.878 4.878 0 00-1.237.849 4.183 4.183 0 001.498-2.09c.053-.171.087-.384-.044-.507-.181-.17-.471 0-.647.168a5.717 5.717 0 00-1.348 2.072 5.126 5.126 0 00-.498-2.346.741.741 0 00-.424-.478.532.532 0 00-.572.327 1.357 1.357 0 00-.068.703c.075.807.284 1.597.617 2.336a4.901 4.901 0 00-1.59-1.718 1.322 1.322 0 00-.555-.24.555.555 0 00-.536.212c-.176.279.021.637.231.896a6.651 6.651 0 001.579 1.391 4.797 4.797 0 00-1.908-.637c-.212-.025-.483 0-.538.212.578.756 1.611.962 2.543 1.115.47.061.948.002 1.388-.172z" fill="#3B496C"/><path d="M118.79 47.222c.613.917.971 1.98 1.289 3.039 1.011 3.356 1.695 6.836 1.719 10.344.023 3.508-.615 7.054-2.147 10.209-.848 1.737-1.944 3.335-3.038 4.928" stroke="#3D4868" stroke-width="2.13" stroke-miterlimit="10"/><path d="M119 47.738a.605.605 0 01-.212.034.931.931 0 01-.29-.076c-.1-.04-.212-.096-.238-.202a.272.272 0 01.036-.174.958.958 0 011.102-.484c.594.18-.103.809-.398.902z" fill="#3D4868"/><path d="M149.214 41.342c-.915.3-1.684.932-2.154 1.773a1.722 1.722 0 00-.019-.32 7.803 7.803 0 01-1.203 1.062c-1.386.981-3.193 1.415-4.815 1.068a5.918 5.918 0 001.391 3.04c.75.898 1.408 1.26 2.391 1.894a2.91 2.91 0 001.976.337c1.73-.25 2.998-.99 4.234-1.943a3.705 3.705 0 001.097-1.206 1.68 1.68 0 00.031-1.575 1.354 1.354 0 00-2.031-.275c.34-.618.814-1.164 1.062-1.824.248-.66.196-1.519-.377-1.93-.451-.322-1.066-.276-1.583-.1z" fill="#E0A23C"/><path d="M145.838 43.857a7.855 7.855 0 001.203-1.063 1.815 1.815 0 00-.836-1.298 1.802 1.802 0 00-2.506 2.443c-.328-.77-1.281-1.35-2.01-.943-.595.334-.747 1.129-.684 1.807.003.04.013.08.015.118 1.621.344 3.438-.087 4.818-1.064z" fill="#E0B534"/><path d="M145.205 50.268a5.91 5.91 0 01-2.353-1.432.79.79 0 01-.239-.35.305.305 0 01.157-.353.424.424 0 01.318.048c.454.214.872.496 1.24.836a4.186 4.186 0 01-1.504-2.086c-.055-.168-.089-.384.042-.505.18-.171.47-.009.648.164a5.745 5.745 0 011.355 2.068 5.095 5.095 0 01.489-2.349.744.744 0 01.429-.479.528.528 0 01.572.327c.088.225.114.47.075.708a7.382 7.382 0 01-.608 2.33 4.9 4.9 0 011.581-1.724 1.36 1.36 0 01.555-.242.552.552 0 01.538.216c.177.277-.017.64-.224.899a6.658 6.658 0 01-1.576 1.397 4.802 4.802 0 011.906-.648c.209-.026.483.005.54.208-.576.757-1.606.968-2.55 1.13a2.83 2.83 0 01-1.391-.163z" fill="#3B496C"/><path d="M145.144 50.075c-.61.92-.962 1.984-1.278 3.043-.999 3.362-1.669 6.845-1.68 10.352-.01 3.508.642 7.049 2.182 10.195.855 1.734 1.957 3.331 3.057 4.917" stroke="#3D4868" stroke-width="2.13" stroke-miterlimit="10"/><path d="M144.939 50.597a.64.64 0 00.212.033c.1-.01.198-.037.289-.08a.334.334 0 00.238-.2.31.31 0 00-.035-.176.957.957 0 00-1.104-.48c-.598.179.102.806.4.903z" fill="#3D4868"/><path d="M146.118 44.275a.802.802 0 00.17-.568.653.653 0 00-.529-.498 1.317 1.317 0 00-.754.103c-.242.082-.46.222-.636.407a.838.838 0 00-.206.707c.235 1.054 1.583.38 1.955-.15z" stroke="#fff" stroke-width=".71" stroke-miterlimit="10"/><path d="M108.117 86.572l-13.91 7.264a1.835 1.835 0 01-2.509-.846l-8.486-18.01a1.84 1.84 0 01.813-2.416l12.701-6.633a1.834 1.834 0 012.452.733l9.694 17.38a1.827 1.827 0 01-.188 2.068c-.156.19-.349.347-.567.46z" fill="url(#paint0_linear)"/><path d="M92.925 65.78a.826.826 0 01-1.055-.253l-3.47-4.863-4.102 2.142 1.99 5.635a.83.83 0 01-.397 1.011 1.264 1.264 0 00-.537 1.708l.776 1.491 9.277-4.844-.776-1.492a1.264 1.264 0 00-1.706-.536z" fill="url(#paint1_linear)"/><path d="M88.326 59.872l-4.634 2.42a.095.095 0 00-.04.127l.714 1.373a.094.094 0 00.127.04l4.635-2.42a.094.094 0 00.04-.127l-.715-1.373a.094.094 0 00-.127-.04z" fill="url(#paint2_linear)"/><path d="M85.558 54.848l-4.38 2.287a.239.239 0 00-.1.321l2.427 4.665c.06.116.204.162.32.1l4.38-2.286a.239.239 0 00.101-.322L85.88 54.95a.238.238 0 00-.32-.101z" fill="url(#paint3_linear)"/><path d="M91.846 72.456a2.424 2.424 0 001.028-3.267 2.415 2.415 0 00-3.262-1.027 2.424 2.424 0 00-1.027 3.267 2.415 2.415 0 003.261 1.027z" fill="url(#paint4_linear)"/><path d="M103.23 81.883l-10.19 5.321a.827.827 0 01-1.137-.394l-3.788-8.44a.83.83 0 01.372-1.074l9.716-5.074a.826.826 0 011.117.352l4.262 8.191a.83.83 0 01-.352 1.118z" fill="url(#paint5_linear)"/><path d="M86.842 80.558a.044.044 0 01-.011.006c-.058.013-.064.014-1.136-2.389-.579-1.296-1.25-2.813-1.6-3.601a.795.795 0 01.348-1.024l1.658-.91a.051.051 0 01.037-.002.051.051 0 01.012.092l-1.658.91a.693.693 0 00-.303.893c1.573 3.562 2.563 5.77 2.663 5.941a.051.051 0 01.02.038.054.054 0 01-.03.046zm17.484 6.597a.05.05 0 01-.065-.022.048.048 0 01-.005-.037.053.053 0 01.021-.03l3.102-1.817a.69.69 0 00.257-.931l-6.391-11.635a.033.033 0 01-.006-.019.044.044 0 01.011-.037.046.046 0 01.015-.013.05.05 0 01.038-.003.052.052 0 01.03.024l6.39 11.634a.79.79 0 01-.294 1.068l-3.101 1.817h-.002zm-2.267-5.879l-8.36 4.366a.748.748 0 01-1.026-.354l-2.964-6.555a.75.75 0 01.335-.972l7.814-4.08a.743.743 0 01.997.297l3.51 6.269a.746.746 0 01-.307 1.03h.001zm-9.294 3.97a.645.645 0 00.886.306l8.361-4.366a.65.65 0 00.265-.89l-3.511-6.268a.643.643 0 00-.862-.257l-7.814 4.08a.647.647 0 00-.29.84l2.965 6.555zm-8.852-23.992a.05.05 0 01-.068-.021l-1.894-3.64a.052.052 0 01-.008-.02.053.053 0 01.011-.04.052.052 0 01.036-.019.052.052 0 01.039.014c.005.005.009.01.012.017l1.894 3.64a.05.05 0 01.003.04.05.05 0 01-.025.03zm.653-.341a.051.051 0 01-.039.004.05.05 0 01-.03-.025l-1.894-3.64a.052.052 0 01.004-.059.05.05 0 01.036-.02.05.05 0 01.038.014c.006.005.01.011.012.018l1.895 3.64a.05.05 0 01-.022.068zm.653-.34a.051.051 0 01-.057-.007.05.05 0 01-.012-.015l-1.894-3.64a.05.05 0 01.004-.06.05.05 0 01.036-.018.05.05 0 01.038.014c.005.004.01.01.012.017l1.894 3.64a.051.051 0 01-.021.069zm.652-.341a.05.05 0 01-.038.003.05.05 0 01-.03-.025l-1.894-3.64a.051.051 0 01.06-.072.05.05 0 01.03.025l1.894 3.64a.051.051 0 01-.022.069zm.653-.342a.051.051 0 01-.069-.02l-1.894-3.641a.052.052 0 01-.006-.04.052.052 0 01.026-.032.05.05 0 01.07.025l1.894 3.64a.05.05 0 01-.021.069zm.653-.34a.05.05 0 01-.07-.021l-1.893-3.64a.05.05 0 01.004-.059.052.052 0 01.035-.02l.021.003a.051.051 0 01.03.028l1.894 3.64a.05.05 0 01.003.04.05.05 0 01-.024.03zm.466-.243a.05.05 0 01-.069-.022l-1.894-3.64a.052.052 0 01.004-.059.05.05 0 01.036-.019.05.05 0 01.038.014.04.04 0 01.012.017l1.894 3.64a.05.05 0 01.004.039.05.05 0 01-.025.03z" fill="#fff"/><path d="M157.925 44.765l.01-2.974a1.794 1.794 0 01.574-1.307 1.7 1.7 0 011.332-.442l1.905.206a1.713 1.713 0 011.215.726 1.796 1.796 0 01.27 1.414l-.59 2.568-4.716-.19z" fill="url(#paint6_linear)"/><path d="M162.506 44.19a1.327 1.327 0 01.757 1.6c-1.18 4.023-2.156 9.632-.902 15.889 1.19 5.938 3.711 9.08 5.313 12.584 2.493 5.453 3.83 14.122-1.536 28.181a5.26 5.26 0 01-1.834 2.383 5.232 5.232 0 01-2.837.985c-5.331.234-10.446-.246-15.305-1.577a5.25 5.25 0 01-3.806-4.275c-2.282-14.932.87-23.139 4.47-27.944 2.309-3.083 5.44-5.616 7.863-11.165 2.554-5.846 2.791-11.535 2.492-15.717a1.324 1.324 0 011.08-1.402 7.396 7.396 0 014.245.458z" fill="url(#paint7_linear)"/><path style="mix-blend-mode:multiply" opacity=".2" d="M167.683 74.264c-1.597-3.504-4.11-6.645-5.295-12.582-1.249-6.257-.274-11.866.904-15.89a1.324 1.324 0 00-.755-1.6 7.35 7.35 0 00-4.233-.455c-.185.034-.36.107-.513.215 1.001 1.509 1.893 3.324 2.384 5.449 1.68 7.269-3.026 10.79-4.339 20.136-1.496 10.656 3.635 13.101 1.962 21.425-.766 3.816-2.933 8.72-8.954 13.912 4.053.845 8.273 1.134 12.638.94a5.207 5.207 0 002.83-.985 5.252 5.252 0 001.829-2.384c5.359-14.06 4.027-22.729 1.542-28.18z" fill="url(#paint8_linear)"/><path d="M149.752 77.311l13.027 1.404a1.631 1.631 0 011.445 1.791l-1.19 11.081a1.625 1.625 0 01-1.793 1.442l-13.026-1.403a1.629 1.629 0 01-1.446-1.791l1.19-11.081a1.624 1.624 0 011.793-1.443z" fill="#fff" opacity=".57"/><path d="M116.838 67.942c-2.382-4.855-6.423-5.974-6.423-5.974l-1.939-16.201a2.673 2.673 0 00-2.965-2.327l-1.591.191a2.669 2.669 0 00-2.332 2.969l1.939 16.2s-3.664 2.046-4.833 7.327c-.745 3.372-.304 5.353-.237 5.916l3.818 31.891.007.057.385 3.217a48.632 48.632 0 0020.011-2.404l-.385-3.215-.007-.059-3.818-31.897c-.071-.562-.104-2.592-1.63-5.691z" fill="#2B846D"/><path opacity=".1" d="M104.832 111.24l-.297-2.475-.006-.058-3.821-31.915c-.067-.56-.508-2.546.24-5.922 1.176-5.285 5.267-8.055 5.267-8.055l-2.355-15.487a2.67 2.67 0 01.555-1.97 2.684 2.684 0 011.789-1.004l1.592-.191a2.673 2.673 0 011.006.068 2.678 2.678 0 00-2.347-.904l-1.598.192a2.683 2.683 0 00-1.787 1.002 2.666 2.666 0 00-.555 1.97l2.137 16.518s-3.875 1.74-5.041 7.025c-.75 3.374-.308 5.356-.24 5.92l3.82 31.911.007.058.385 3.219c.412.037.828.07 1.249.098z" fill="#fff"/><path d="M107.007 62.696a37.582 37.582 0 003.774-.642 3.45 3.45 0 00-.297-.098l-1.939-16.2a2.64 2.64 0 00-1.019-1.774 2.745 2.745 0 00-2.002-.543l-1.622.194a2.747 2.747 0 00-1.816 1.005 2.647 2.647 0 00-.566 1.968l1.938 16.192s-.099.053-.267.166a37.62 37.62 0 003.816-.268z" fill="#39A387"/><path d="M108.934 49.194l-.418-3.49a2.569 2.569 0 00-1.008-1.736 2.756 2.756 0 00-1.988-.529l-1.612.194a2.753 2.753 0 00-1.807.987 2.57 2.57 0 00-.567 1.928l.418 3.49 6.982-.844z" fill="#2B846D"/><path d="M104.825 111.346a48.171 48.171 0 0015.787-1.896c-2.054-1.787-5.07-2.737-8.289-2.35-3.219.387-5.925 2.024-7.498 4.246z" fill="#267561"/><path d="M104.619 39.228l-.828.1c-1.448.173-2.483 1.477-2.311 2.912l.161 1.344c.172 1.434 1.485 2.456 2.933 2.282l.828-.099c1.448-.174 2.483-1.478 2.311-2.913l-.161-1.343c-.172-1.435-1.485-2.457-2.933-2.283z" fill="#DEA263"/><path d="M101.388 41.467l.252 2.112a2.61 2.61 0 001.904 2.21c.334.092.684.119 1.028.078l.83-.1a2.658 2.658 0 001.763-.983c.433-.547.631-1.24.548-1.93l-.253-2.116-6.072.73z" fill="#BA8753"/><path d="M106.903 41.73l-4.74.57a2.665 2.665 0 00-2.322 2.968l.039.324a2.663 2.663 0 002.956 2.334l4.741-.57a2.665 2.665 0 002.321-2.967l-.038-.325a2.663 2.663 0 00-2.957-2.334z" fill="#2B846D"/><path d="M107.412 45.983l-4.74.57a2.654 2.654 0 01-1.743-.399 2.667 2.667 0 01-1.099-1.414c-.013.176-.01.354.011.53l.04.326c.084.703.443 1.342.997 1.78a2.652 2.652 0 001.958.55l4.741-.57a2.657 2.657 0 001.773-.998 2.673 2.673 0 00.549-1.965l-.039-.326a2.707 2.707 0 00-.115-.519 2.66 2.66 0 01-2.333 2.435z" fill="#267561"/><path d="M108.776 77.462a35.785 35.785 0 01-7.493.12c-.01.125-.008.252.008.377l3.156 26.368a36.25 36.25 0 0014.876-1.787l-3.157-26.373a1.865 1.865 0 00-.08-.37 35.82 35.82 0 01-7.31 1.665z" fill="#FFE2A5"/><path d="M116.831 67.92a12.514 12.514 0 00-3.084-4.028c.22.352.433.735.633 1.142 1.521 3.103 1.56 5.134 1.627 5.697l3.82 31.912.008.059.385 3.217c-.654.226-1.32.435-1.994.631a44.82 44.82 0 01-.857.243l-.183.049c-.277.074-.55.147-.835.217l-.156.04c-.503.123-1.011.239-1.524.347l-.33.072a27.07 27.07 0 01-.579.113c-.192.037-.399.077-.599.112a38.934 38.934 0 01-1.253.207l-.412.065c-.388.056-.777.108-1.171.156-.393.047-.783.094-1.175.126l-.414.034c-.248.03-.498.043-.749.062l-.497.035-.622.033-.565.024-.388.011c-.503.015-1.002.022-1.498.021h-.189a61.173 61.173 0 01-.855-.013l-.189-.005c-.287-.009-.57-.019-.861-.033l.328 2.743a47.3 47.3 0 002.979.174l.19.005c.285.006.569.012.855.013h.189c.497.001.996-.006 1.498-.021.13-.002.258-.004.388-.011.189-.005.377-.015.565-.024l.624-.033.506-.035.75-.059.412-.037a46.74 46.74 0 001.174-.126c.394-.047.784-.094 1.172-.155l.412-.063.742-.12.508-.087.6-.114c.185-.035.386-.073.578-.113l.33-.07a50.549 50.549 0 001.527-.35l.154-.037c.281-.07.551-.142.835-.218l.183-.05c.288-.078.573-.158.856-.241l.012-.001a48.163 48.163 0 001.992-.631l-.386-3.219a1.386 1.386 0 00-.007-.06l-3.82-31.913c-.08-.561-.114-2.593-1.64-5.693z" fill="#000" opacity=".2"/><path d="M126.111 51.124v-4.767c0-.804.5-1.528 1.254-1.785 1.971-.673 3.974-.647 6.006.016.378.122.707.363.941.686.234.324.36.715.361 1.116v4.734h-8.562z" fill="url(#paint9_linear)"/><path d="M133.149 49.133c1.616 0 2.802 1.54 2.371 3.1l-.011.038c-.271.956-.696 1.58-.851 1.827-1.443 2.314-.754 6.226-.52 7.198 1.117 4.628 6.725 3.947 10.302 8.639 2.843 3.73.11 5.226 1.524 19.004.75 7.314 2.101 12.552-1.054 15.563-.723.689-1.461 1.168-2.032 1.301-13.396 3.098-24.97 0-24.97 0a6.5 6.5 0 01-2.032-1.301c-3.158-3.012-1.807-8.25-1.056-15.563 1.413-13.778-1.32-15.274 1.524-19.004 3.576-4.69 9.184-4.008 10.301-8.638.234-.973.923-4.885-.52-7.198-.154-.247-.58-.873-.851-1.827l-.011-.038c-.431-1.56.755-3.1 2.371-3.1l5.515-.001z" fill="url(#paint10_linear)"/><path d="M135.713 76.242h-14.771a.486.486 0 00-.488.482v25.072c0 .267.219.483.488.483h14.771c.27 0 .488-.216.488-.483V76.724a.485.485 0 00-.488-.482z" fill="#fff"/><path style="mix-blend-mode:multiply" opacity=".3" d="M145.965 88.914c-1.413-13.745 1.318-15.238-1.523-18.959-3.573-4.678-9.177-3.998-10.292-8.617-.235-.97-.923-4.873.519-7.181.119-.19.398-.603.643-1.217-2.747 1.427-5.787 1.415-7.897-.005-.93-.625-1.569-1.45-2.011-2.27a2.4 2.4 0 00-.121 1.63l.01.038c.271.954.696 1.576.85 1.823.466.746.708 1.659.817 2.585 1.044.018 2.064.26 2.827.94 4.16 3.705-5.89 14.57-2.672 26.735 2.5 9.448 10.799 11.346 10.203 18.107-.139 1.569-.724 3.02-1.608 4.35a53.122 53.122 0 007.17-1.139c.572-.132 1.309-.609 2.03-1.297 3.154-3.003 1.804-8.23 1.055-15.523z" fill="url(#paint11_linear)"/><path d="M182.953 65.516l4.055-13.234-6.333-1.93-3.985 13.543c-.861.275-6.28 2.545-6.61 3.63-.335 1.1-8.251 29.15-10.057 35.09-.215.707.931 1.547 1.593 2.048 1.138.862 3.106 2.156 5.096 2.763 1.99.607 4.179.581 5.604.501.828-.047 3.849-.104 4.064-.812l9.635-34.715s-1.101-3.848-3.062-6.884z" fill="url(#paint12_linear)"/><path d="M181.345 79.336l-10.343-3.155c-.571-.174-1.131.003-1.251.397l-5.796 19.064c-.119.394.247.855.818 1.029l10.343 3.155c.571.174 1.131-.004 1.252-.397l5.795-19.065c.119-.394-.247-.854-.818-1.028z" fill="url(#paint13_linear)"/><path d="M179.692 53.588l-2.248 7.393 6.333 1.932 2.248-7.393-6.333-1.932z" fill="url(#paint14_linear)"/><path d="M187.174 50.314l-5.541-1.69c-.51-.156-1.033.08-1.169.527l-1.194 3.928c-.136.446.167.935.677 1.09l5.542 1.69c.51.156 1.033-.08 1.169-.527l1.194-3.927c.135-.447-.168-.935-.678-1.091z" fill="url(#paint15_linear)"/><path d="M126.777 91.338l6.916-3.68 7.558 5.015s-5.669 2.34-8.871 1.739c-3.202-.6-5.603-3.074-5.603-3.074z" fill="#C3BFEC"/><path d="M127.445 92.007l6.1-4.349s0-2.684-4.282-3.877c-4.281-1.192-42.877-7.757-42.877-7.757l-8.537 5.867 49.596 10.116z" fill="#EBEBEB"/><path d="M85.527 76.445s39.74 7.308 42.326 7.805c3.996.784 4.992 3.743 4.992 3.743" stroke="#C3BFEC" stroke-width="1.05" stroke-miterlimit="10"/><path opacity=".9" d="M84.856 76.936s39.744 7.314 42.327 7.815c3.995.783 4.992 3.742 4.992 3.742" stroke="#C0BDE4" stroke-width="1.05" stroke-miterlimit="10"/><path opacity=".81" d="M84.182 77.43s39.747 7.309 42.33 7.815c3.996.783 4.992 3.743 4.992 3.743" stroke="#BEBBDD" stroke-width="1.05" stroke-miterlimit="10"/><path opacity=".71" d="M83.512 77.923s39.758 7.31 42.326 7.814c3.996.783 4.992 3.743 4.992 3.743" stroke="#BBB8D5" stroke-width="1.05" stroke-miterlimit="10"/><path opacity=".61" d="M82.841 78.417s39.747 7.308 42.33 7.814c3.995.784 4.991 3.743 4.991 3.743" stroke="#B8B6CE" stroke-width="1.05" stroke-miterlimit="10"/><path opacity=".51" d="M82.17 78.91s39.747 7.307 42.327 7.813c3.996.784 4.992 3.743 4.992 3.743" stroke="#B5B4C6" stroke-width="1.05" stroke-miterlimit="10"/><path opacity=".42" d="M81.5 79.404s39.743 7.308 42.341 7.814c3.995.783 4.991 3.743 4.991 3.743" stroke="#B3B2BE" stroke-width="1.05" stroke-miterlimit="10"/><path opacity=".32" d="M80.826 79.895s39.747 7.309 42.33 7.815c3.995.783 4.991 3.742 4.991 3.742" stroke="#B0AFB7" stroke-width="1.05" stroke-miterlimit="10"/><path opacity=".22" d="M80.155 80.39s39.747 7.308 42.33 7.814c3.996.784 4.992 3.743 4.992 3.743" stroke="#ADADAF" stroke-width="1.05" stroke-miterlimit="10"/><path d="M139.584 91.939l-5.891-4.29s0-2.684 4.281-3.876c4.282-1.193 42.881-7.757 42.881-7.757l8.534 5.867-49.805 10.056z" fill="#EBEBEB"/><path d="M181.697 76.445s-39.744 7.308-42.327 7.805c-3.996.784-4.992 3.743-4.992 3.743" stroke="#C3BFEC" stroke-width="1.05" stroke-miterlimit="10"/><path opacity=".9" d="M182.37 76.936s-39.746 7.314-42.329 7.815c-3.996.783-4.992 3.742-4.992 3.742" stroke="#C0BDE4" stroke-width="1.05" stroke-miterlimit="10"/><path opacity=".81" d="M183.041 77.43s-39.747 7.309-42.33 7.815c-3.995.783-4.992 3.743-4.992 3.743" stroke="#BEBBDD" stroke-width="1.05" stroke-miterlimit="10"/><path opacity=".71" d="M183.712 77.923s-39.747 7.31-42.33 7.814c-3.996.783-4.992 3.743-4.992 3.743" stroke="#BBB8D5" stroke-width="1.05" stroke-miterlimit="10"/><path opacity=".61" d="M184.383 78.417s-39.747 7.308-42.327 7.814c-3.996.784-4.992 3.743-4.992 3.743" stroke="#B8B6CE" stroke-width="1.05" stroke-miterlimit="10"/><path opacity=".51" d="M185.053 78.91s-39.744 7.307-42.327 7.813c-3.995.784-4.991 3.743-4.991 3.743" stroke="#B5B4C6" stroke-width="1.05" stroke-miterlimit="10"/><path opacity=".42" d="M185.727 79.404s-39.747 7.308-42.33 7.814c-3.996.783-4.992 3.743-4.992 3.743" stroke="#B3B2BE" stroke-width="1.05" stroke-miterlimit="10"/><path opacity=".32" d="M186.397 79.895s-39.746 7.309-42.329 7.815c-3.996.783-4.992 3.742-4.992 3.742" stroke="#B0AFB7" stroke-width="1.05" stroke-miterlimit="10"/><path opacity=".22" d="M187.068 80.39s-39.747 7.308-42.33 7.814c-3.995.784-4.991 3.743-4.991 3.743" stroke="#ADADAF" stroke-width="1.05" stroke-miterlimit="10"/><path d="M125.179 88.184l.605 46.96-41.955-6.659a1.572 1.572 0 01-1.31-1.313l-7.199-45.75a.95.95 0 011.088-1.083l48.771 7.846z" fill="url(#paint16_linear)"/><path d="M141.91 88.184l-.605 46.96 41.956-6.659a1.574 1.574 0 001.31-1.313l7.204-45.747a.947.947 0 00-.646-1.05.948.948 0 00-.442-.033l-48.777 7.842z" fill="url(#paint17_linear)"/><path d="M180.544 124.15a1.69 1.69 0 011.472-.746l5.4-36.312a1.807 1.807 0 01-1.761-1.781l-38.219 6.219a1.673 1.673 0 01-.921 1.516 1.715 1.715 0 01-.826.188l-.828 36.229c.341.009.673.115.956.306a1.788 1.788 0 01.802 1.466l33.648-6.136a1.666 1.666 0 01.277-.949v0z" stroke="#E8E8E8" stroke-width=".87" stroke-miterlimit="10"/><path d="M86.788 124.15a1.714 1.714 0 00-1.472-.746l-5.4-36.312a1.809 1.809 0 001.76-1.781l38.217 6.224a1.673 1.673 0 00.92 1.516c.254.131.538.196.824.189l.828 36.228a1.823 1.823 0 00-1.53.94 1.785 1.785 0 00-.217.833l-33.65-6.141a1.7 1.7 0 00-.28-.95v0z" stroke="#fff" stroke-miterlimit="10"/><path d="M138.893 91.45c-1.698 1.263-4.892 1.143-5.337 1.126h-.054c-.445.023-3.642.137-5.337-1.126-1.285-.958-2.986-3.266-2.986-3.266l.628 46.96a5.8 5.8 0 001.998 1.904c2.209 1.184 5.423.941 5.728.912.314.029 3.519.272 5.731-.912a5.817 5.817 0 001.998-1.904l.628-46.951s-1.712 2.299-2.997 3.257z" fill="url(#paint18_linear)"/><path d="M159.357 84.662l-.856 28.374 2.4-3.502 2.129 3.056s.757-28.206.794-28.995c0-.18-.183-.331-.305-.263l-4.336.858c-.066.02.174-.034.174.472z" fill="#D98784"/><path d="M125.179 88.184l.628 46.96a5.8 5.8 0 001.998 1.904l.148.074-.539-46.319a25.027 25.027 0 01-2.235-2.619zm14.339 2.728l-.768 46.365c.174-.072.343-.152.508-.238a5.817 5.817 0 001.998-1.904l.628-46.95a24.686 24.686 0 01-2.366 2.727z" fill="#D98469"/><path d="M13.633 16.116a3.712 3.712 0 01-3.548-2.531 3.485 3.485 0 011.635-3.992c1.386-.718 3.289-.243 4.126 1.084-1.25-1.35-.58-3.861 1.107-4.59 1.687-.73 3.835.294 4.544 1.993-.784-1.631-.364-3.673.75-5.106C23.36 1.542 25.06.677 26.809.227c.886-.226 1.842-.355 2.7-.036.756.282 1.356.882 1.837 1.531a8.879 8.879 0 01.728 9.147c.126-1.653 2.213-2.796 3.67-2.01 1.456.785 1.65 3.16.344 4.174 1.182-1.819 2.682-2.616 4.791-3.112.626-.148 1.316-.216 1.884.087.728.39 1.04 1.306.97 2.13-.07.825-.468 1.576-.854 2.308.223-.681.917-1.077 1.57-1.37a18.507 18.507 0 013.61-1.186c1.34-.289 2.895-.377 3.922.533 1.32 1.164 1.043 3.374.094 4.862H1c.032.338 6.136-.42 9.264-.386 1.194.012 2.24-.387 3.369-.783zm91.655 13.659a2.071 2.071 0 00-.665-1.42c-.774-.683-1.941-.618-2.951-.399-.935.202-1.847.501-2.72.893-.401.148-.756.4-1.03.729l-.153.297a1.06 1.06 0 01.153-.297c.145-.275.267-.561.367-.856-.142.1-.265.222-.367.362l-.153.297c.037-.106.088-.206.153-.297a4.2 4.2 0 00.486-1.38 1.503 1.503 0 00-.728-1.17c-.428-.229-.947-.178-1.418-.066-1.308.309-2.303.771-3.111 1.69-.106.255-.273.48-.486.654a5.41 5.41 0 01.486-.654c.089-.21.141-.434.155-.661-.053.053-.104.11-.155.168-.105.255-.272.48-.486.654.146-.23.308-.449.486-.654a2.04 2.04 0 00.148-.552 1.853 1.853 0 00-.903-1.445c-.789-.425-1.825-.095-2.379.589-.1.318-.229.627-.383.924.032-.34.166-.662.383-.924.075-.227.137-.457.185-.69a2.82 2.82 0 00-.185.196c-.101.32-.23.63-.383.926a1.7 1.7 0 01.383-.926 6.633 6.633 0 00.318-1.797A6.572 6.572 0 0089.09 20.3a3.156 3.156 0 00-1.38-1.155c-.646-.243-1.367-.143-2.032.03-1.318.337-2.597.994-3.435 2.066a4.113 4.113 0 00-.856 2.215c.025.392.124.775.29 1.13a2.368 2.368 0 00-.278-.486c.037.343.132.678.279.99-.534-1.28-2.148-2.05-3.417-1.5a2.322 2.322 0 00-1.304 1.891c.03.291.126.572.282.82.068.076.13.157.187.243a1.864 1.864 0 01-.187-.244 2.345 2.345 0 00-.275-.265c.036.27.13.529.275.759.069.076.131.157.187.243a1.859 1.859 0 01-.187-.243 2.474 2.474 0 00-2.913-.567 2.582 2.582 0 00-1.322 2.055c.014.153-.243 1.746 1.798 2.69.31.114.64.17.97.165-.397.14-.78.28-1.169.389h30.096a3.876 3.876 0 00.589-1.751zm-50.438 59.2a2.883 2.883 0 00-.922-1.974c-1.075-.949-2.701-.859-4.102-.555a19.238 19.238 0 00-3.776 1.24c-.539.243-1.1.555-1.43 1.021-.07.14-.14.275-.213.411a1.51 1.51 0 01.213-.41 7.82 7.82 0 00.508-1.192 2.247 2.247 0 00-.508.508c-.07.136-.14.275-.213.409a1.49 1.49 0 01.213-.409c.334-.596.56-1.246.668-1.92a2.086 2.086 0 00-.995-1.627c-.593-.316-1.316-.243-1.971-.092-1.818.43-3.201 1.072-4.325 2.348a2.27 2.27 0 01-.684.91 7.67 7.67 0 01.684-.91c.125-.291.199-.602.218-.919a3.103 3.103 0 00-.218.243 2.27 2.27 0 01-.684.91 8.01 8.01 0 01.684-.91c.106-.243.175-.502.206-.766a2.56 2.56 0 00-1.252-2.005c-1.1-.594-2.539-.134-3.306.817a8.85 8.85 0 01-.534 1.283c.043-.472.23-.92.534-1.283.102-.316.187-.636.255-.96a2.472 2.472 0 00-.255.274 8.844 8.844 0 01-.524 1.274c.043-.472.23-.92.534-1.284.26-.809.407-1.65.437-2.5a9.138 9.138 0 00-1.728-5.105c-.503-.681-1.129-1.308-1.923-1.602-.898-.334-1.897-.2-2.822.038-1.84.484-3.617 1.391-4.782 2.882a5.726 5.726 0 00-1.189 3.078 4.35 4.35 0 00.405 1.575 3.443 3.443 0 00-.39-.688c.053.475.185.938.39 1.37-.742-1.778-2.985-2.846-4.752-2.085-1.031.448-1.699 1.527-1.81 2.631.043.405.18.794.398 1.138.096.109.184.225.262.348a2.251 2.251 0 01-.262-.348 3.194 3.194 0 00-.379-.37c.048.375.178.736.379 1.056.094.11.179.228.255.352a2.38 2.38 0 01-.255-.352 3.443 3.443 0 00-4.046-.788 3.596 3.596 0 00-1.837 2.857c.021.214-.352 2.431 2.5 3.737.428.158.88.236 1.337.23-.554.195-1.088.387-1.629.538h41.819c.463-.73.744-1.562.817-2.424zM200.624 54.08c-.762.18-1.42-.768-1.214-1.527.206-.758.932-1.25 1.672-1.493a5.334 5.334 0 014.396.453c-1.42-1.23-.573-3.93 1.233-4.443 1.805-.513 3.781.876 4.313 2.675.133-2.675 2.106-5.327 4.764-5.706 2.658-.38 5.485 2.103 5.026 4.753.549-1.362 2.491-1.812 3.704-1.007 1.214.805 1.631 2.546 1.109 3.908 1.66-.65 3.425-1.313 5.18-1.002 1.754.311 3.397 2.006 2.958 3.737 2.789-2.313 7.204-1.476 9.051 1.64h-39.547c-1.881 0-4.514.439-6.269-.138.262-1.529 2.459-1.575 3.624-1.85zm23.303-35.512c1.099.26 2.05-1.111 1.762-2.205-.289-1.094-1.355-1.807-2.427-2.174a7.726 7.726 0 00-6.35.652c2.051-1.773.826-5.673-1.781-6.414-2.607-.742-5.461 1.264-6.228 3.866-.194-3.876-3.044-7.693-6.881-8.238-3.837-.545-7.922 3.037-7.259 6.861-.806-1.945-3.59-2.601-5.34-1.439-1.749 1.162-2.351 3.669-1.599 5.643-2.398-.938-4.946-1.894-7.483-1.446-2.536.447-4.9 2.898-4.271 5.397-4.027-3.34-10.4-2.132-13.07 2.368h57.106c2.719 0 6.519.635 9.056-.199-.379-2.208-3.554-2.276-5.235-2.672z" fill="#F5F5F7"/><defs><linearGradient id="paint0_linear" x1="24670.7" y1="20907" x2="34444" y2="54008.2" gradientUnits="userSpaceOnUse"><stop stop-color="#53D8FF"/><stop offset="1" stop-color="#3840F7"/></linearGradient><linearGradient id="paint1_linear" x1="10796.4" y1="8022.06" x2="15436.7" y2="21373.6" gradientUnits="userSpaceOnUse"><stop stop-color="#53D8FF"/><stop offset="1" stop-color="#3840F7"/></linearGradient><linearGradient id="paint2_linear" x1="86.133" y1="60.297" x2="86.941" y2="64.805" gradientUnits="userSpaceOnUse"><stop stop-color="#FDF53F"/><stop offset="1" stop-color="#D93C65"/></linearGradient><linearGradient id="paint3_linear" x1="6263.36" y1="6332.29" x2="6436.75" y2="7639.09" gradientUnits="userSpaceOnUse"><stop stop-color="#FDF53F"/><stop offset="1" stop-color="#D93C65"/></linearGradient><linearGradient id="paint4_linear" x1="6427.75" y1="6891.77" x2="6511.86" y2="9105.47" gradientUnits="userSpaceOnUse"><stop stop-color="#FDF53F"/><stop offset="1" stop-color="#D93C65"/></linearGradient><linearGradient id="paint5_linear" x1="17071.1" y1="16949.5" x2="18115.4" y2="23537.3" gradientUnits="userSpaceOnUse"><stop stop-color="#FDF53F"/><stop offset="1" stop-color="#D93C65"/></linearGradient><linearGradient id="paint6_linear" x1="166.539" y1="31.351" x2="161.367" y2="40.75" gradientUnits="userSpaceOnUse"><stop stop-color="#311944"/><stop offset="1" stop-color="#6B3976"/></linearGradient><linearGradient id="paint7_linear" x1="143.181" y1="73.137" x2="170.999" y2="76.125" gradientUnits="userSpaceOnUse"><stop stop-color="#AB316D"/><stop offset="1" stop-color="#792D3D"/></linearGradient><linearGradient id="paint8_linear" x1="12258.5" y1="118525" x2="26927.5" y2="120101" gradientUnits="userSpaceOnUse"><stop stop-color="#AB316D"/><stop offset="1" stop-color="#792D3D"/></linearGradient><linearGradient id="paint9_linear" x1="126.111" y1="47.601" x2="134.673" y2="47.601" gradientUnits="userSpaceOnUse"><stop stop-color="#444B8C"/><stop offset="1" stop-color="#26264F"/></linearGradient><linearGradient id="paint10_linear" x1="113.88" y1="78.156" x2="146.904" y2="78.156" gradientUnits="userSpaceOnUse"><stop stop-color="#AA80F9"/><stop offset="1" stop-color="#6165D7"/></linearGradient><linearGradient id="paint11_linear" x1="19408.3" y1="127497" x2="34730.8" y2="127497" gradientUnits="userSpaceOnUse"><stop stop-color="#AA80F9"/><stop offset="1" stop-color="#6165D7"/></linearGradient><linearGradient id="paint12_linear" x1="177.973" y1="41.61" x2="172.294" y2="93.884" gradientUnits="userSpaceOnUse"><stop stop-color="#A737D5"/><stop offset="1" stop-color="#EF497A"/></linearGradient><linearGradient id="paint13_linear" x1="195.253" y1="56.618" x2="145.782" y2="118.046" gradientUnits="userSpaceOnUse"><stop stop-color="#CB236D"/><stop offset="1" stop-color="#4C246D"/></linearGradient><linearGradient id="paint14_linear" x1="1142.26" y1="3032.59" x2="-253.129" y2="4721.09" gradientUnits="userSpaceOnUse"><stop stop-color="#CB236D"/><stop offset="1" stop-color="#4C246D"/></linearGradient><linearGradient id="paint15_linear" x1="1627.04" y1="1584.67" x2="-803.097" y2="4817.43" gradientUnits="userSpaceOnUse"><stop stop-color="#CB236D"/><stop offset="1" stop-color="#4C246D"/></linearGradient><linearGradient id="paint16_linear" x1="75.309" y1="107.728" x2="125.773" y2="107.728" gradientUnits="userSpaceOnUse"><stop stop-color="#FFD08E"/><stop offset="1" stop-color="#FFC26F"/></linearGradient><linearGradient id="paint17_linear" x1="141.305" y1="107.73" x2="191.775" y2="107.73" gradientUnits="userSpaceOnUse"><stop stop-color="#FFD08E"/><stop offset="1" stop-color="#FFC26F"/></linearGradient><linearGradient id="paint18_linear" x1="125.179" y1="113.086" x2="141.886" y2="113.086" gradientUnits="userSpaceOnUse"><stop stop-color="#FFC26F"/><stop offset=".495" stop-color="#FFCE8A"/><stop offset="1" stop-color="#FFC26F"/></linearGradient></defs></svg>